%TF.GenerationSoftware,KiCad,Pcbnew,7.0.10*%
%TF.CreationDate,2024-01-07T12:32:19+09:00*%
%TF.ProjectId,main,6d61696e-2e6b-4696-9361-645f70636258,rev?*%
%TF.SameCoordinates,Original*%
%TF.FileFunction,Legend,Bot*%
%TF.FilePolarity,Positive*%
%FSLAX46Y46*%
G04 Gerber Fmt 4.6, Leading zero omitted, Abs format (unit mm)*
G04 Created by KiCad (PCBNEW 7.0.10) date 2024-01-07 12:32:19*
%MOMM*%
%LPD*%
G01*
G04 APERTURE LIST*
%ADD10C,3.200000*%
%ADD11R,1.600000X1.600000*%
%ADD12C,1.600000*%
%ADD13C,2.000000*%
%ADD14R,1.700000X1.700000*%
%ADD15O,1.700000X1.700000*%
%ADD16O,1.800000X1.800000*%
%ADD17O,1.500000X1.500000*%
%ADD18R,1.500000X1.500000*%
%ADD19C,1.500000*%
G04 APERTURE END LIST*
%LPC*%
D10*
%TO.C,H1*%
X106000000Y-116000000D03*
%TD*%
D11*
%TO.C,C1*%
X94490000Y-72860000D03*
D12*
X96990000Y-72860000D03*
%TD*%
D13*
%TO.C,SW3*%
X54750000Y-94750000D03*
X61250000Y-94750000D03*
X54750000Y-99250000D03*
X61250000Y-99250000D03*
%TD*%
%TO.C,SW2*%
X54750000Y-76750000D03*
X61250000Y-76750000D03*
X54750000Y-81250000D03*
X61250000Y-81250000D03*
%TD*%
D10*
%TO.C,H4*%
X106000000Y-53810000D03*
%TD*%
D13*
%TO.C,SW1*%
X54750000Y-60750000D03*
X61250000Y-60750000D03*
X54750000Y-65250000D03*
X61250000Y-65250000D03*
%TD*%
D12*
%TO.C,C2*%
X94490000Y-65240000D03*
X96990000Y-65240000D03*
%TD*%
D14*
%TO.C,J1*%
X96990000Y-83020000D03*
D15*
X96990000Y-85560000D03*
X96990000Y-88100000D03*
%TD*%
D14*
%TO.C,J4*%
X102070000Y-62700000D03*
D15*
X102070000Y-65240000D03*
%TD*%
D14*
%TO.C,J2*%
X93205000Y-108435000D03*
D15*
X93205000Y-110975000D03*
X93205000Y-113515000D03*
%TD*%
D14*
%TO.C,J5*%
X102070000Y-71590000D03*
D15*
X102070000Y-74130000D03*
%TD*%
D14*
%TO.C,J3*%
X63995000Y-108435000D03*
D15*
X63995000Y-110975000D03*
X63995000Y-113515000D03*
%TD*%
D16*
%TO.C,U1*%
X75215000Y-52670000D03*
D17*
X75515000Y-55700000D03*
X80365000Y-55700000D03*
D16*
X80665000Y-52670000D03*
D15*
X69050000Y-52540000D03*
X69050000Y-55080000D03*
D14*
X69050000Y-57620000D03*
D15*
X69050000Y-60160000D03*
X69050000Y-62700000D03*
X69050000Y-65240000D03*
X69050000Y-67780000D03*
D14*
X69050000Y-70320000D03*
D15*
X69050000Y-72860000D03*
X69050000Y-75400000D03*
X69050000Y-77940000D03*
X69050000Y-80480000D03*
D14*
X69050000Y-83020000D03*
D15*
X69050000Y-85560000D03*
X69050000Y-88100000D03*
X69050000Y-90640000D03*
X69050000Y-93180000D03*
D14*
X69050000Y-95720000D03*
D15*
X69050000Y-98260000D03*
X69050000Y-100800000D03*
X86830000Y-100800000D03*
X86830000Y-98260000D03*
D14*
X86830000Y-95720000D03*
D15*
X86830000Y-93180000D03*
X86830000Y-90640000D03*
X86830000Y-88100000D03*
X86830000Y-85560000D03*
D14*
X86830000Y-83020000D03*
D15*
X86830000Y-80480000D03*
X86830000Y-77940000D03*
X86830000Y-75400000D03*
X86830000Y-72860000D03*
D14*
X86830000Y-70320000D03*
D15*
X86830000Y-67780000D03*
X86830000Y-65240000D03*
X86830000Y-62700000D03*
X86830000Y-60160000D03*
D14*
X86830000Y-57620000D03*
D15*
X86830000Y-55080000D03*
X86830000Y-52540000D03*
X75400000Y-100570000D03*
D14*
X77940000Y-100570000D03*
D15*
X80480000Y-100570000D03*
%TD*%
D10*
%TO.C,H3*%
X53810000Y-53810000D03*
%TD*%
D18*
%TO.C,Q1*%
X95720000Y-55080000D03*
D19*
X95720000Y-57620000D03*
X95720000Y-60160000D03*
%TD*%
D10*
%TO.C,H2*%
X54000000Y-116000000D03*
%TD*%
D13*
%TO.C,TP1*%
X85560000Y-113500000D03*
%TD*%
%LPD*%
M02*
