%TF.GenerationSoftware,KiCad,Pcbnew,7.0.10*%
%TF.CreationDate,2024-01-07T12:32:19+09:00*%
%TF.ProjectId,main,6d61696e-2e6b-4696-9361-645f70636258,rev?*%
%TF.SameCoordinates,Original*%
%TF.FileFunction,Copper,L2,Bot*%
%TF.FilePolarity,Positive*%
%FSLAX46Y46*%
G04 Gerber Fmt 4.6, Leading zero omitted, Abs format (unit mm)*
G04 Created by KiCad (PCBNEW 7.0.10) date 2024-01-07 12:32:19*
%MOMM*%
%LPD*%
G01*
G04 APERTURE LIST*
%TA.AperFunction,ComponentPad*%
%ADD10R,1.600000X1.600000*%
%TD*%
%TA.AperFunction,ComponentPad*%
%ADD11C,1.600000*%
%TD*%
%TA.AperFunction,ComponentPad*%
%ADD12C,2.000000*%
%TD*%
%TA.AperFunction,ComponentPad*%
%ADD13R,1.700000X1.700000*%
%TD*%
%TA.AperFunction,ComponentPad*%
%ADD14O,1.700000X1.700000*%
%TD*%
%TA.AperFunction,ComponentPad*%
%ADD15R,1.500000X1.500000*%
%TD*%
%TA.AperFunction,ComponentPad*%
%ADD16C,1.500000*%
%TD*%
G04 APERTURE END LIST*
D10*
%TO.P,C1,1*%
%TO.N,VCC*%
X94490000Y-72860000D03*
D11*
%TO.P,C1,2*%
%TO.N,GND*%
X96990000Y-72860000D03*
%TD*%
D12*
%TO.P,SW3,1,1*%
%TO.N,GND*%
X54750000Y-94750000D03*
X61250000Y-94750000D03*
%TO.P,SW3,2,2*%
%TO.N,Net-(U1-GPIO4)*%
X54750000Y-99250000D03*
X61250000Y-99250000D03*
%TD*%
%TO.P,SW2,1,1*%
%TO.N,GND*%
X54750000Y-76750000D03*
X61250000Y-76750000D03*
%TO.P,SW2,2,2*%
%TO.N,Net-(U1-GPIO3)*%
X54750000Y-81250000D03*
X61250000Y-81250000D03*
%TD*%
%TO.P,SW1,1,1*%
%TO.N,GND*%
X54750000Y-60750000D03*
X61250000Y-60750000D03*
%TO.P,SW1,2,2*%
%TO.N,Net-(U1-GPIO2)*%
X54750000Y-65250000D03*
X61250000Y-65250000D03*
%TD*%
D11*
%TO.P,C2,1*%
%TO.N,VCC*%
X94490000Y-65240000D03*
%TO.P,C2,2*%
%TO.N,GND*%
X96990000Y-65240000D03*
%TD*%
D13*
%TO.P,J1,1,Pin_1*%
%TO.N,GND*%
X96990000Y-83020000D03*
D14*
%TO.P,J1,2,Pin_2*%
%TO.N,Net-(J1-Pin_2)*%
X96990000Y-85560000D03*
%TO.P,J1,3,Pin_3*%
%TO.N,Net-(J1-Pin_3)*%
X96990000Y-88100000D03*
%TD*%
D13*
%TO.P,J4,1,Pin_1*%
%TO.N,Net-(J4-Pin_1)*%
X102070000Y-62700000D03*
D14*
%TO.P,J4,2,Pin_2*%
%TO.N,Net-(J4-Pin_2)*%
X102070000Y-65240000D03*
%TD*%
D13*
%TO.P,J2,1,Pin_1*%
%TO.N,GND*%
X93205000Y-108435000D03*
D14*
%TO.P,J2,2,Pin_2*%
%TO.N,VCC*%
X93205000Y-110975000D03*
%TO.P,J2,3,Pin_3*%
%TO.N,Net-(J2-Pin_3)*%
X93205000Y-113515000D03*
%TD*%
D13*
%TO.P,J5,1,Pin_1*%
%TO.N,GND*%
X102070000Y-71590000D03*
D14*
%TO.P,J5,2,Pin_2*%
%TO.N,VCC*%
X102070000Y-74130000D03*
%TD*%
D13*
%TO.P,J3,1,Pin_1*%
%TO.N,GND*%
X63995000Y-108435000D03*
D14*
%TO.P,J3,2,Pin_2*%
%TO.N,VCC*%
X63995000Y-110975000D03*
%TO.P,J3,3,Pin_3*%
%TO.N,Net-(J3-Pin_3)*%
X63995000Y-113515000D03*
%TD*%
%TO.P,U1,1,GPIO0*%
%TO.N,unconnected-(U1-GPIO0-Pad1)*%
X69050000Y-52540000D03*
%TO.P,U1,2,GPIO1*%
%TO.N,unconnected-(U1-GPIO1-Pad2)*%
X69050000Y-55080000D03*
D13*
%TO.P,U1,3,GND*%
%TO.N,GND*%
X69050000Y-57620000D03*
D14*
%TO.P,U1,4,GPIO2*%
%TO.N,Net-(U1-GPIO2)*%
X69050000Y-60160000D03*
%TO.P,U1,5,GPIO3*%
%TO.N,Net-(U1-GPIO3)*%
X69050000Y-62700000D03*
%TO.P,U1,6,GPIO4*%
%TO.N,Net-(U1-GPIO4)*%
X69050000Y-65240000D03*
%TO.P,U1,7,GPIO5*%
%TO.N,unconnected-(U1-GPIO5-Pad7)*%
X69050000Y-67780000D03*
D13*
%TO.P,U1,8,GND*%
%TO.N,unconnected-(U1-GND-Pad8)*%
X69050000Y-70320000D03*
D14*
%TO.P,U1,9,GPIO6*%
%TO.N,unconnected-(U1-GPIO6-Pad9)*%
X69050000Y-72860000D03*
%TO.P,U1,10,GPIO7*%
%TO.N,unconnected-(U1-GPIO7-Pad10)*%
X69050000Y-75400000D03*
%TO.P,U1,11,GPIO8*%
%TO.N,Net-(J2-Pin_3)*%
X69050000Y-77940000D03*
%TO.P,U1,12,GPIO9*%
%TO.N,Net-(J3-Pin_3)*%
X69050000Y-80480000D03*
D13*
%TO.P,U1,13,GND*%
%TO.N,unconnected-(U1-GND-Pad13)*%
X69050000Y-83020000D03*
D14*
%TO.P,U1,14,GPIO10*%
%TO.N,unconnected-(U1-GPIO10-Pad14)*%
X69050000Y-85560000D03*
%TO.P,U1,15,GPIO11*%
%TO.N,unconnected-(U1-GPIO11-Pad15)*%
X69050000Y-88100000D03*
%TO.P,U1,16,GPIO12*%
%TO.N,unconnected-(U1-GPIO12-Pad16)*%
X69050000Y-90640000D03*
%TO.P,U1,17,GPIO13*%
%TO.N,unconnected-(U1-GPIO13-Pad17)*%
X69050000Y-93180000D03*
D13*
%TO.P,U1,18,GND*%
%TO.N,unconnected-(U1-GND-Pad18)*%
X69050000Y-95720000D03*
D14*
%TO.P,U1,19,GPIO14*%
%TO.N,unconnected-(U1-GPIO14-Pad19)*%
X69050000Y-98260000D03*
%TO.P,U1,20,GPIO15*%
%TO.N,unconnected-(U1-GPIO15-Pad20)*%
X69050000Y-100800000D03*
%TO.P,U1,21,GPIO16*%
%TO.N,unconnected-(U1-GPIO16-Pad21)*%
X86830000Y-100800000D03*
%TO.P,U1,22,GPIO17*%
%TO.N,unconnected-(U1-GPIO17-Pad22)*%
X86830000Y-98260000D03*
D13*
%TO.P,U1,23,GND*%
%TO.N,unconnected-(U1-GND-Pad23)*%
X86830000Y-95720000D03*
D14*
%TO.P,U1,24,GPIO18*%
%TO.N,unconnected-(U1-GPIO18-Pad24)*%
X86830000Y-93180000D03*
%TO.P,U1,25,GPIO19*%
%TO.N,unconnected-(U1-GPIO19-Pad25)*%
X86830000Y-90640000D03*
%TO.P,U1,26,GPIO20*%
%TO.N,unconnected-(U1-GPIO20-Pad26)*%
X86830000Y-88100000D03*
%TO.P,U1,27,GPIO21*%
%TO.N,unconnected-(U1-GPIO21-Pad27)*%
X86830000Y-85560000D03*
D13*
%TO.P,U1,28,GND*%
%TO.N,unconnected-(U1-GND-Pad28)*%
X86830000Y-83020000D03*
D14*
%TO.P,U1,29,GPIO22*%
%TO.N,unconnected-(U1-GPIO22-Pad29)*%
X86830000Y-80480000D03*
%TO.P,U1,30,RUN*%
%TO.N,unconnected-(U1-RUN-Pad30)*%
X86830000Y-77940000D03*
%TO.P,U1,31,GPIO26_ADC0*%
%TO.N,Net-(J1-Pin_3)*%
X86830000Y-75400000D03*
%TO.P,U1,32,GPIO27_ADC1*%
%TO.N,unconnected-(U1-GPIO27_ADC1-Pad32)*%
X86830000Y-72860000D03*
D13*
%TO.P,U1,33,AGND*%
%TO.N,GND*%
X86830000Y-70320000D03*
D14*
%TO.P,U1,34,GPIO28_ADC2*%
%TO.N,unconnected-(U1-GPIO28_ADC2-Pad34)*%
X86830000Y-67780000D03*
%TO.P,U1,35,ADC_VREF*%
%TO.N,unconnected-(U1-ADC_VREF-Pad35)*%
X86830000Y-65240000D03*
%TO.P,U1,36,3V3*%
%TO.N,Net-(J1-Pin_2)*%
X86830000Y-62700000D03*
%TO.P,U1,37,3V3_EN*%
%TO.N,unconnected-(U1-3V3_EN-Pad37)*%
X86830000Y-60160000D03*
D13*
%TO.P,U1,38,GND*%
%TO.N,GND*%
X86830000Y-57620000D03*
D14*
%TO.P,U1,39,VSYS*%
%TO.N,VCC*%
X86830000Y-55080000D03*
%TO.P,U1,40,VBUS*%
%TO.N,Net-(J4-Pin_1)*%
X86830000Y-52540000D03*
%TO.P,U1,41,SWCLK*%
%TO.N,unconnected-(U1-SWCLK-Pad41)*%
X75400000Y-100570000D03*
D13*
%TO.P,U1,42,GND*%
%TO.N,unconnected-(U1-GND-Pad42)*%
X77940000Y-100570000D03*
D14*
%TO.P,U1,43,SWDIO*%
%TO.N,unconnected-(U1-SWDIO-Pad43)*%
X80480000Y-100570000D03*
%TD*%
D15*
%TO.P,Q1,1,G*%
%TO.N,Net-(J4-Pin_1)*%
X95720000Y-55080000D03*
D16*
%TO.P,Q1,2,D*%
%TO.N,Net-(J4-Pin_2)*%
X95720000Y-57620000D03*
%TO.P,Q1,3,S*%
%TO.N,VCC*%
X95720000Y-60160000D03*
%TD*%
D12*
%TO.P,TP1,1,1*%
%TO.N,Net-(J2-Pin_3)*%
X85560000Y-113500000D03*
%TD*%
%TA.AperFunction,Conductor*%
%TO.N,GND*%
G36*
X68704590Y-51019685D02*
G01*
X68750345Y-51072489D01*
X68760289Y-51141647D01*
X68731264Y-51205203D01*
X68672486Y-51242977D01*
X68669644Y-51243775D01*
X68586344Y-51266094D01*
X68586335Y-51266098D01*
X68372171Y-51365964D01*
X68372169Y-51365965D01*
X68178597Y-51501505D01*
X68011505Y-51668597D01*
X67875965Y-51862169D01*
X67875964Y-51862171D01*
X67776098Y-52076335D01*
X67776094Y-52076344D01*
X67714938Y-52304586D01*
X67714936Y-52304596D01*
X67694341Y-52539999D01*
X67694341Y-52540000D01*
X67714936Y-52775403D01*
X67714938Y-52775413D01*
X67776094Y-53003655D01*
X67776096Y-53003659D01*
X67776097Y-53003663D01*
X67864887Y-53194074D01*
X67875965Y-53217830D01*
X67875967Y-53217834D01*
X67943466Y-53314232D01*
X68008388Y-53406950D01*
X68011501Y-53411395D01*
X68011506Y-53411402D01*
X68178597Y-53578493D01*
X68178603Y-53578498D01*
X68364158Y-53708425D01*
X68407783Y-53763002D01*
X68414977Y-53832500D01*
X68383454Y-53894855D01*
X68364158Y-53911575D01*
X68178597Y-54041505D01*
X68011505Y-54208597D01*
X67875965Y-54402169D01*
X67875964Y-54402171D01*
X67776098Y-54616335D01*
X67776094Y-54616344D01*
X67714938Y-54844586D01*
X67714936Y-54844596D01*
X67694341Y-55079999D01*
X67694341Y-55080000D01*
X67714936Y-55315403D01*
X67714938Y-55315413D01*
X67776094Y-55543655D01*
X67776096Y-55543659D01*
X67776097Y-55543663D01*
X67865204Y-55734752D01*
X67875965Y-55757830D01*
X67875967Y-55757834D01*
X67953483Y-55868537D01*
X68011501Y-55951396D01*
X68011506Y-55951402D01*
X68133818Y-56073714D01*
X68167303Y-56135037D01*
X68162319Y-56204729D01*
X68120447Y-56260662D01*
X68089471Y-56277577D01*
X67957912Y-56326646D01*
X67957906Y-56326649D01*
X67842812Y-56412809D01*
X67842809Y-56412812D01*
X67756649Y-56527906D01*
X67756645Y-56527913D01*
X67706403Y-56662620D01*
X67706401Y-56662627D01*
X67700000Y-56722155D01*
X67700000Y-57370000D01*
X68604428Y-57370000D01*
X68581318Y-57405960D01*
X68540000Y-57546673D01*
X68540000Y-57693327D01*
X68581318Y-57834040D01*
X68604428Y-57870000D01*
X67700000Y-57870000D01*
X67700000Y-58517844D01*
X67706401Y-58577372D01*
X67706403Y-58577379D01*
X67756645Y-58712086D01*
X67756649Y-58712093D01*
X67842809Y-58827187D01*
X67842812Y-58827190D01*
X67957906Y-58913350D01*
X67957913Y-58913354D01*
X68089470Y-58962421D01*
X68145403Y-59004292D01*
X68169821Y-59069756D01*
X68154970Y-59138029D01*
X68133819Y-59166284D01*
X68011503Y-59288600D01*
X67875965Y-59482169D01*
X67875964Y-59482171D01*
X67776098Y-59696335D01*
X67776094Y-59696344D01*
X67714938Y-59924586D01*
X67714936Y-59924596D01*
X67694341Y-60159999D01*
X67694341Y-60160000D01*
X67714936Y-60395403D01*
X67714938Y-60395413D01*
X67776094Y-60623655D01*
X67776096Y-60623659D01*
X67776097Y-60623663D01*
X67852676Y-60787886D01*
X67875965Y-60837830D01*
X67875967Y-60837834D01*
X68011501Y-61031395D01*
X68011506Y-61031402D01*
X68178597Y-61198493D01*
X68178603Y-61198498D01*
X68364158Y-61328425D01*
X68407783Y-61383002D01*
X68414977Y-61452500D01*
X68383454Y-61514855D01*
X68364158Y-61531575D01*
X68178597Y-61661505D01*
X68011505Y-61828597D01*
X67875965Y-62022169D01*
X67875964Y-62022171D01*
X67776098Y-62236335D01*
X67776094Y-62236344D01*
X67714938Y-62464586D01*
X67714936Y-62464596D01*
X67694341Y-62699999D01*
X67694341Y-62700000D01*
X67714936Y-62935403D01*
X67714938Y-62935413D01*
X67776094Y-63163655D01*
X67776096Y-63163659D01*
X67776097Y-63163663D01*
X67875965Y-63377830D01*
X67875967Y-63377834D01*
X68011501Y-63571395D01*
X68011506Y-63571402D01*
X68178597Y-63738493D01*
X68178603Y-63738498D01*
X68364158Y-63868425D01*
X68407783Y-63923002D01*
X68414977Y-63992500D01*
X68383454Y-64054855D01*
X68364158Y-64071575D01*
X68178597Y-64201505D01*
X68011505Y-64368597D01*
X67875965Y-64562169D01*
X67875964Y-64562171D01*
X67776098Y-64776335D01*
X67776094Y-64776344D01*
X67714938Y-65004586D01*
X67714936Y-65004596D01*
X67694341Y-65239999D01*
X67694341Y-65240000D01*
X67714936Y-65475403D01*
X67714938Y-65475413D01*
X67776094Y-65703655D01*
X67776096Y-65703659D01*
X67776097Y-65703663D01*
X67832980Y-65825648D01*
X67875965Y-65917830D01*
X67875967Y-65917834D01*
X68011501Y-66111395D01*
X68011506Y-66111402D01*
X68178597Y-66278493D01*
X68178603Y-66278498D01*
X68364158Y-66408425D01*
X68407783Y-66463002D01*
X68414977Y-66532500D01*
X68383454Y-66594855D01*
X68364158Y-66611575D01*
X68178597Y-66741505D01*
X68011505Y-66908597D01*
X67875965Y-67102169D01*
X67875964Y-67102171D01*
X67776098Y-67316335D01*
X67776094Y-67316344D01*
X67714938Y-67544586D01*
X67714936Y-67544596D01*
X67694341Y-67779999D01*
X67694341Y-67780000D01*
X67714936Y-68015403D01*
X67714938Y-68015413D01*
X67776094Y-68243655D01*
X67776096Y-68243659D01*
X67776097Y-68243663D01*
X67875965Y-68457830D01*
X67875967Y-68457834D01*
X67984281Y-68612521D01*
X68011501Y-68651396D01*
X68011506Y-68651402D01*
X68133430Y-68773326D01*
X68166915Y-68834649D01*
X68161931Y-68904341D01*
X68120059Y-68960274D01*
X68089083Y-68977189D01*
X67957669Y-69026203D01*
X67957664Y-69026206D01*
X67842455Y-69112452D01*
X67842452Y-69112455D01*
X67756206Y-69227664D01*
X67756202Y-69227671D01*
X67705908Y-69362517D01*
X67699501Y-69422116D01*
X67699501Y-69422123D01*
X67699500Y-69422135D01*
X67699500Y-71217870D01*
X67699501Y-71217876D01*
X67705908Y-71277483D01*
X67756202Y-71412328D01*
X67756206Y-71412335D01*
X67842452Y-71527544D01*
X67842455Y-71527547D01*
X67957664Y-71613793D01*
X67957671Y-71613797D01*
X68089081Y-71662810D01*
X68145015Y-71704681D01*
X68169432Y-71770145D01*
X68154580Y-71838418D01*
X68133430Y-71866673D01*
X68011503Y-71988600D01*
X67875965Y-72182169D01*
X67875964Y-72182171D01*
X67776098Y-72396335D01*
X67776094Y-72396344D01*
X67714938Y-72624586D01*
X67714936Y-72624596D01*
X67694341Y-72859999D01*
X67694341Y-72860000D01*
X67714936Y-73095403D01*
X67714938Y-73095413D01*
X67776094Y-73323655D01*
X67776096Y-73323659D01*
X67776097Y-73323663D01*
X67864143Y-73512478D01*
X67875965Y-73537830D01*
X67875967Y-73537834D01*
X68011501Y-73731395D01*
X68011506Y-73731402D01*
X68178597Y-73898493D01*
X68178603Y-73898498D01*
X68364158Y-74028425D01*
X68407783Y-74083002D01*
X68414977Y-74152500D01*
X68383454Y-74214855D01*
X68364158Y-74231575D01*
X68178597Y-74361505D01*
X68011505Y-74528597D01*
X67875965Y-74722169D01*
X67875964Y-74722171D01*
X67776098Y-74936335D01*
X67776094Y-74936344D01*
X67714938Y-75164586D01*
X67714936Y-75164596D01*
X67694341Y-75399999D01*
X67694341Y-75400000D01*
X67714936Y-75635403D01*
X67714938Y-75635413D01*
X67776094Y-75863655D01*
X67776096Y-75863659D01*
X67776097Y-75863663D01*
X67855354Y-76033630D01*
X67875965Y-76077830D01*
X67875967Y-76077834D01*
X68011501Y-76271395D01*
X68011506Y-76271402D01*
X68178597Y-76438493D01*
X68178603Y-76438498D01*
X68364158Y-76568425D01*
X68407783Y-76623002D01*
X68414977Y-76692500D01*
X68383454Y-76754855D01*
X68364158Y-76771575D01*
X68178597Y-76901505D01*
X68011505Y-77068597D01*
X67875965Y-77262169D01*
X67875964Y-77262171D01*
X67776098Y-77476335D01*
X67776094Y-77476344D01*
X67714938Y-77704586D01*
X67714936Y-77704596D01*
X67694341Y-77939999D01*
X67694341Y-77940000D01*
X67714936Y-78175403D01*
X67714938Y-78175413D01*
X67776094Y-78403655D01*
X67776096Y-78403659D01*
X67776097Y-78403663D01*
X67875965Y-78617830D01*
X67875967Y-78617834D01*
X68011501Y-78811395D01*
X68011506Y-78811402D01*
X68178597Y-78978493D01*
X68178603Y-78978498D01*
X68364158Y-79108425D01*
X68407783Y-79163002D01*
X68414977Y-79232500D01*
X68383454Y-79294855D01*
X68364158Y-79311575D01*
X68178597Y-79441505D01*
X68011505Y-79608597D01*
X67875965Y-79802169D01*
X67875964Y-79802171D01*
X67776098Y-80016335D01*
X67776094Y-80016344D01*
X67714938Y-80244586D01*
X67714936Y-80244596D01*
X67694341Y-80479999D01*
X67694341Y-80480000D01*
X67714936Y-80715403D01*
X67714938Y-80715413D01*
X67776094Y-80943655D01*
X67776096Y-80943659D01*
X67776097Y-80943663D01*
X67875965Y-81157830D01*
X67875967Y-81157834D01*
X67984281Y-81312521D01*
X68011501Y-81351396D01*
X68011506Y-81351402D01*
X68133430Y-81473326D01*
X68166915Y-81534649D01*
X68161931Y-81604341D01*
X68120059Y-81660274D01*
X68089083Y-81677189D01*
X67957669Y-81726203D01*
X67957664Y-81726206D01*
X67842455Y-81812452D01*
X67842452Y-81812455D01*
X67756206Y-81927664D01*
X67756202Y-81927671D01*
X67705908Y-82062517D01*
X67699501Y-82122116D01*
X67699501Y-82122123D01*
X67699500Y-82122135D01*
X67699500Y-83917870D01*
X67699501Y-83917876D01*
X67705908Y-83977483D01*
X67756202Y-84112328D01*
X67756206Y-84112335D01*
X67842452Y-84227544D01*
X67842455Y-84227547D01*
X67957664Y-84313793D01*
X67957671Y-84313797D01*
X68089081Y-84362810D01*
X68145015Y-84404681D01*
X68169432Y-84470145D01*
X68154580Y-84538418D01*
X68133430Y-84566673D01*
X68011503Y-84688600D01*
X67875965Y-84882169D01*
X67875964Y-84882171D01*
X67776098Y-85096335D01*
X67776094Y-85096344D01*
X67714938Y-85324586D01*
X67714936Y-85324596D01*
X67694341Y-85559999D01*
X67694341Y-85560000D01*
X67714936Y-85795403D01*
X67714938Y-85795413D01*
X67776094Y-86023655D01*
X67776096Y-86023659D01*
X67776097Y-86023663D01*
X67875965Y-86237830D01*
X67875967Y-86237834D01*
X68011501Y-86431395D01*
X68011506Y-86431402D01*
X68178597Y-86598493D01*
X68178603Y-86598498D01*
X68364158Y-86728425D01*
X68407783Y-86783002D01*
X68414977Y-86852500D01*
X68383454Y-86914855D01*
X68364158Y-86931575D01*
X68178597Y-87061505D01*
X68011505Y-87228597D01*
X67875965Y-87422169D01*
X67875964Y-87422171D01*
X67776098Y-87636335D01*
X67776094Y-87636344D01*
X67714938Y-87864586D01*
X67714936Y-87864596D01*
X67694341Y-88099999D01*
X67694341Y-88100000D01*
X67714936Y-88335403D01*
X67714938Y-88335413D01*
X67776094Y-88563655D01*
X67776096Y-88563659D01*
X67776097Y-88563663D01*
X67875965Y-88777830D01*
X67875967Y-88777834D01*
X68011501Y-88971395D01*
X68011506Y-88971402D01*
X68178597Y-89138493D01*
X68178603Y-89138498D01*
X68364158Y-89268425D01*
X68407783Y-89323002D01*
X68414977Y-89392500D01*
X68383454Y-89454855D01*
X68364158Y-89471575D01*
X68178597Y-89601505D01*
X68011505Y-89768597D01*
X67875965Y-89962169D01*
X67875964Y-89962171D01*
X67776098Y-90176335D01*
X67776094Y-90176344D01*
X67714938Y-90404586D01*
X67714936Y-90404596D01*
X67694341Y-90639999D01*
X67694341Y-90640000D01*
X67714936Y-90875403D01*
X67714938Y-90875413D01*
X67776094Y-91103655D01*
X67776096Y-91103659D01*
X67776097Y-91103663D01*
X67875965Y-91317830D01*
X67875967Y-91317834D01*
X68011501Y-91511395D01*
X68011506Y-91511402D01*
X68178597Y-91678493D01*
X68178603Y-91678498D01*
X68364158Y-91808425D01*
X68407783Y-91863002D01*
X68414977Y-91932500D01*
X68383454Y-91994855D01*
X68364158Y-92011575D01*
X68178597Y-92141505D01*
X68011505Y-92308597D01*
X67875965Y-92502169D01*
X67875964Y-92502171D01*
X67776098Y-92716335D01*
X67776094Y-92716344D01*
X67714938Y-92944586D01*
X67714936Y-92944596D01*
X67694341Y-93179999D01*
X67694341Y-93180000D01*
X67714936Y-93415403D01*
X67714938Y-93415413D01*
X67776094Y-93643655D01*
X67776096Y-93643659D01*
X67776097Y-93643663D01*
X67875965Y-93857830D01*
X67875967Y-93857834D01*
X67984281Y-94012521D01*
X68011501Y-94051396D01*
X68011506Y-94051402D01*
X68133430Y-94173326D01*
X68166915Y-94234649D01*
X68161931Y-94304341D01*
X68120059Y-94360274D01*
X68089083Y-94377189D01*
X67957669Y-94426203D01*
X67957664Y-94426206D01*
X67842455Y-94512452D01*
X67842452Y-94512455D01*
X67756206Y-94627664D01*
X67756202Y-94627671D01*
X67705908Y-94762517D01*
X67703181Y-94787886D01*
X67699501Y-94822123D01*
X67699500Y-94822135D01*
X67699500Y-96617870D01*
X67699501Y-96617876D01*
X67705908Y-96677483D01*
X67756202Y-96812328D01*
X67756206Y-96812335D01*
X67842452Y-96927544D01*
X67842455Y-96927547D01*
X67957664Y-97013793D01*
X67957671Y-97013797D01*
X68089081Y-97062810D01*
X68145015Y-97104681D01*
X68169432Y-97170145D01*
X68154580Y-97238418D01*
X68133430Y-97266673D01*
X68011503Y-97388600D01*
X67875965Y-97582169D01*
X67875964Y-97582171D01*
X67776098Y-97796335D01*
X67776094Y-97796344D01*
X67714938Y-98024586D01*
X67714936Y-98024596D01*
X67694341Y-98259999D01*
X67694341Y-98260000D01*
X67714936Y-98495403D01*
X67714938Y-98495413D01*
X67776094Y-98723655D01*
X67776096Y-98723659D01*
X67776097Y-98723663D01*
X67875965Y-98937830D01*
X67875967Y-98937834D01*
X68011501Y-99131395D01*
X68011506Y-99131402D01*
X68178597Y-99298493D01*
X68178603Y-99298498D01*
X68364158Y-99428425D01*
X68407783Y-99483002D01*
X68414977Y-99552500D01*
X68383454Y-99614855D01*
X68364158Y-99631575D01*
X68178597Y-99761505D01*
X68011505Y-99928597D01*
X67875965Y-100122169D01*
X67875964Y-100122171D01*
X67776098Y-100336335D01*
X67776094Y-100336344D01*
X67714938Y-100564586D01*
X67714936Y-100564596D01*
X67694341Y-100799999D01*
X67694341Y-100800000D01*
X67714936Y-101035403D01*
X67714938Y-101035413D01*
X67776094Y-101263655D01*
X67776096Y-101263659D01*
X67776097Y-101263663D01*
X67871322Y-101467873D01*
X67875965Y-101477830D01*
X67875967Y-101477834D01*
X67967456Y-101608493D01*
X68011505Y-101671401D01*
X68178599Y-101838495D01*
X68214733Y-101863796D01*
X68372165Y-101974032D01*
X68372167Y-101974033D01*
X68372170Y-101974035D01*
X68586337Y-102073903D01*
X68814592Y-102135063D01*
X69002918Y-102151539D01*
X69049999Y-102155659D01*
X69050000Y-102155659D01*
X69050001Y-102155659D01*
X69089234Y-102152226D01*
X69285408Y-102135063D01*
X69513663Y-102073903D01*
X69727830Y-101974035D01*
X69921401Y-101838495D01*
X70088495Y-101671401D01*
X70224035Y-101477830D01*
X70323903Y-101263663D01*
X70385063Y-101035408D01*
X70405659Y-100800000D01*
X70385536Y-100570000D01*
X74044341Y-100570000D01*
X74064936Y-100805403D01*
X74064938Y-100805413D01*
X74126094Y-101033655D01*
X74126096Y-101033659D01*
X74126097Y-101033663D01*
X74210499Y-101214663D01*
X74225965Y-101247830D01*
X74225967Y-101247834D01*
X74334281Y-101402521D01*
X74361505Y-101441401D01*
X74528599Y-101608495D01*
X74618429Y-101671395D01*
X74722165Y-101744032D01*
X74722167Y-101744033D01*
X74722170Y-101744035D01*
X74936337Y-101843903D01*
X75164592Y-101905063D01*
X75341034Y-101920500D01*
X75399999Y-101925659D01*
X75400000Y-101925659D01*
X75400001Y-101925659D01*
X75458966Y-101920500D01*
X75635408Y-101905063D01*
X75863663Y-101843903D01*
X76077830Y-101744035D01*
X76271401Y-101608495D01*
X76393329Y-101486566D01*
X76454648Y-101453084D01*
X76524340Y-101458068D01*
X76580274Y-101499939D01*
X76597189Y-101530917D01*
X76646202Y-101662328D01*
X76646206Y-101662335D01*
X76732452Y-101777544D01*
X76732455Y-101777547D01*
X76847664Y-101863793D01*
X76847671Y-101863797D01*
X76982517Y-101914091D01*
X76982516Y-101914091D01*
X76989444Y-101914835D01*
X77042127Y-101920500D01*
X78837872Y-101920499D01*
X78897483Y-101914091D01*
X79032331Y-101863796D01*
X79147546Y-101777546D01*
X79233796Y-101662331D01*
X79282810Y-101530916D01*
X79324681Y-101474984D01*
X79390145Y-101450566D01*
X79458418Y-101465417D01*
X79486673Y-101486569D01*
X79608599Y-101608495D01*
X79698429Y-101671395D01*
X79802165Y-101744032D01*
X79802167Y-101744033D01*
X79802170Y-101744035D01*
X80016337Y-101843903D01*
X80244592Y-101905063D01*
X80421034Y-101920500D01*
X80479999Y-101925659D01*
X80480000Y-101925659D01*
X80480001Y-101925659D01*
X80538966Y-101920500D01*
X80715408Y-101905063D01*
X80943663Y-101843903D01*
X81157830Y-101744035D01*
X81351401Y-101608495D01*
X81518495Y-101441401D01*
X81654035Y-101247830D01*
X81753903Y-101033663D01*
X81815063Y-100805408D01*
X81835659Y-100570000D01*
X81815063Y-100334592D01*
X81753903Y-100106337D01*
X81654035Y-99892171D01*
X81562540Y-99761501D01*
X81518494Y-99698597D01*
X81351402Y-99531506D01*
X81351395Y-99531501D01*
X81349251Y-99530000D01*
X81303295Y-99497821D01*
X81157834Y-99395967D01*
X81157830Y-99395965D01*
X81157828Y-99395964D01*
X80943663Y-99296097D01*
X80943659Y-99296096D01*
X80943655Y-99296094D01*
X80715413Y-99234938D01*
X80715403Y-99234936D01*
X80480001Y-99214341D01*
X80479999Y-99214341D01*
X80244596Y-99234936D01*
X80244586Y-99234938D01*
X80016344Y-99296094D01*
X80016335Y-99296098D01*
X79802171Y-99395964D01*
X79802169Y-99395965D01*
X79608600Y-99531503D01*
X79486673Y-99653430D01*
X79425350Y-99686914D01*
X79355658Y-99681930D01*
X79299725Y-99640058D01*
X79282810Y-99609081D01*
X79233797Y-99477671D01*
X79233793Y-99477664D01*
X79147547Y-99362455D01*
X79147544Y-99362452D01*
X79032335Y-99276206D01*
X79032328Y-99276202D01*
X78897482Y-99225908D01*
X78897483Y-99225908D01*
X78837883Y-99219501D01*
X78837881Y-99219500D01*
X78837873Y-99219500D01*
X78837864Y-99219500D01*
X77042129Y-99219500D01*
X77042123Y-99219501D01*
X76982516Y-99225908D01*
X76847671Y-99276202D01*
X76847664Y-99276206D01*
X76732455Y-99362452D01*
X76732452Y-99362455D01*
X76646206Y-99477664D01*
X76646203Y-99477669D01*
X76597189Y-99609083D01*
X76555317Y-99665016D01*
X76489853Y-99689433D01*
X76421580Y-99674581D01*
X76393326Y-99653430D01*
X76271402Y-99531506D01*
X76271395Y-99531501D01*
X76269251Y-99530000D01*
X76223295Y-99497821D01*
X76077834Y-99395967D01*
X76077830Y-99395965D01*
X76077828Y-99395964D01*
X75863663Y-99296097D01*
X75863659Y-99296096D01*
X75863655Y-99296094D01*
X75635413Y-99234938D01*
X75635403Y-99234936D01*
X75400001Y-99214341D01*
X75399999Y-99214341D01*
X75164596Y-99234936D01*
X75164586Y-99234938D01*
X74936344Y-99296094D01*
X74936335Y-99296098D01*
X74722171Y-99395964D01*
X74722169Y-99395965D01*
X74528597Y-99531505D01*
X74361505Y-99698597D01*
X74225965Y-99892169D01*
X74225964Y-99892171D01*
X74126098Y-100106335D01*
X74126094Y-100106344D01*
X74064938Y-100334586D01*
X74064936Y-100334596D01*
X74044341Y-100569999D01*
X74044341Y-100570000D01*
X70385536Y-100570000D01*
X70385063Y-100564592D01*
X70323903Y-100336337D01*
X70224035Y-100122171D01*
X70115109Y-99966607D01*
X70088494Y-99928597D01*
X69921402Y-99761506D01*
X69921396Y-99761501D01*
X69735842Y-99631575D01*
X69692217Y-99576998D01*
X69685023Y-99507500D01*
X69716546Y-99445145D01*
X69735842Y-99428425D01*
X69782197Y-99395967D01*
X69921401Y-99298495D01*
X70088495Y-99131401D01*
X70224035Y-98937830D01*
X70323903Y-98723663D01*
X70385063Y-98495408D01*
X70405659Y-98260000D01*
X70385063Y-98024592D01*
X70323903Y-97796337D01*
X70224035Y-97582171D01*
X70088495Y-97388599D01*
X69966567Y-97266671D01*
X69933084Y-97205351D01*
X69938068Y-97135659D01*
X69979939Y-97079725D01*
X70010915Y-97062810D01*
X70142331Y-97013796D01*
X70257546Y-96927546D01*
X70343796Y-96812331D01*
X70394091Y-96677483D01*
X70400500Y-96617873D01*
X70400499Y-94822128D01*
X70394091Y-94762517D01*
X70389424Y-94750005D01*
X70343797Y-94627671D01*
X70343793Y-94627664D01*
X70257547Y-94512455D01*
X70257544Y-94512452D01*
X70142335Y-94426206D01*
X70142328Y-94426202D01*
X70010917Y-94377189D01*
X69954983Y-94335318D01*
X69930566Y-94269853D01*
X69945418Y-94201580D01*
X69966563Y-94173332D01*
X70088495Y-94051401D01*
X70224035Y-93857830D01*
X70323903Y-93643663D01*
X70385063Y-93415408D01*
X70405659Y-93180000D01*
X70385063Y-92944592D01*
X70323903Y-92716337D01*
X70224035Y-92502171D01*
X70088495Y-92308599D01*
X70088494Y-92308597D01*
X69921402Y-92141506D01*
X69921396Y-92141501D01*
X69735842Y-92011575D01*
X69692217Y-91956998D01*
X69685023Y-91887500D01*
X69716546Y-91825145D01*
X69735842Y-91808425D01*
X69758026Y-91792891D01*
X69921401Y-91678495D01*
X70088495Y-91511401D01*
X70224035Y-91317830D01*
X70323903Y-91103663D01*
X70385063Y-90875408D01*
X70405659Y-90640000D01*
X70385063Y-90404592D01*
X70323903Y-90176337D01*
X70224035Y-89962171D01*
X70088495Y-89768599D01*
X70088494Y-89768597D01*
X69921402Y-89601506D01*
X69921396Y-89601501D01*
X69735842Y-89471575D01*
X69692217Y-89416998D01*
X69685023Y-89347500D01*
X69716546Y-89285145D01*
X69735842Y-89268425D01*
X69758026Y-89252891D01*
X69921401Y-89138495D01*
X70088495Y-88971401D01*
X70224035Y-88777830D01*
X70323903Y-88563663D01*
X70385063Y-88335408D01*
X70405659Y-88100000D01*
X70385063Y-87864592D01*
X70323903Y-87636337D01*
X70224035Y-87422171D01*
X70088495Y-87228599D01*
X70088494Y-87228597D01*
X69921402Y-87061506D01*
X69921396Y-87061501D01*
X69735842Y-86931575D01*
X69692217Y-86876998D01*
X69685023Y-86807500D01*
X69716546Y-86745145D01*
X69735842Y-86728425D01*
X69758026Y-86712891D01*
X69921401Y-86598495D01*
X70088495Y-86431401D01*
X70224035Y-86237830D01*
X70323903Y-86023663D01*
X70385063Y-85795408D01*
X70405659Y-85560000D01*
X70385063Y-85324592D01*
X70323903Y-85096337D01*
X70224035Y-84882171D01*
X70088495Y-84688599D01*
X69966567Y-84566671D01*
X69933084Y-84505351D01*
X69938068Y-84435659D01*
X69979939Y-84379725D01*
X70010915Y-84362810D01*
X70142331Y-84313796D01*
X70257546Y-84227546D01*
X70343796Y-84112331D01*
X70394091Y-83977483D01*
X70400500Y-83917873D01*
X70400499Y-82122128D01*
X70394091Y-82062517D01*
X70343884Y-81927906D01*
X70343797Y-81927671D01*
X70343793Y-81927664D01*
X70257547Y-81812455D01*
X70257544Y-81812452D01*
X70142335Y-81726206D01*
X70142328Y-81726202D01*
X70010917Y-81677189D01*
X69954983Y-81635318D01*
X69930566Y-81569853D01*
X69945418Y-81501580D01*
X69966563Y-81473332D01*
X70088495Y-81351401D01*
X70224035Y-81157830D01*
X70323903Y-80943663D01*
X70385063Y-80715408D01*
X70405659Y-80480000D01*
X70385063Y-80244592D01*
X70323903Y-80016337D01*
X70224035Y-79802171D01*
X70215814Y-79790429D01*
X70088494Y-79608597D01*
X69921402Y-79441506D01*
X69921396Y-79441501D01*
X69735842Y-79311575D01*
X69692217Y-79256998D01*
X69685023Y-79187500D01*
X69716546Y-79125145D01*
X69735842Y-79108425D01*
X69758026Y-79092891D01*
X69921401Y-78978495D01*
X70088495Y-78811401D01*
X70224035Y-78617830D01*
X70323903Y-78403663D01*
X70385063Y-78175408D01*
X70405659Y-77940000D01*
X70385063Y-77704592D01*
X70323903Y-77476337D01*
X70224035Y-77262171D01*
X70207613Y-77238717D01*
X70088494Y-77068597D01*
X69921402Y-76901506D01*
X69921396Y-76901501D01*
X69735842Y-76771575D01*
X69692217Y-76716998D01*
X69685023Y-76647500D01*
X69716546Y-76585145D01*
X69735842Y-76568425D01*
X69830321Y-76502270D01*
X69921401Y-76438495D01*
X70088495Y-76271401D01*
X70224035Y-76077830D01*
X70323903Y-75863663D01*
X70385063Y-75635408D01*
X70405659Y-75400000D01*
X70385063Y-75164592D01*
X70323903Y-74936337D01*
X70224035Y-74722171D01*
X70134054Y-74593663D01*
X70088494Y-74528597D01*
X69921402Y-74361506D01*
X69921396Y-74361501D01*
X69735842Y-74231575D01*
X69692217Y-74176998D01*
X69685023Y-74107500D01*
X69716546Y-74045145D01*
X69735842Y-74028425D01*
X69863518Y-73939025D01*
X69921401Y-73898495D01*
X70088495Y-73731401D01*
X70224035Y-73537830D01*
X70323903Y-73323663D01*
X70385063Y-73095408D01*
X70405659Y-72860000D01*
X70385063Y-72624592D01*
X70323903Y-72396337D01*
X70224035Y-72182171D01*
X70187050Y-72129351D01*
X70088496Y-71988600D01*
X70052412Y-71952516D01*
X69966567Y-71866671D01*
X69933084Y-71805351D01*
X69938068Y-71735659D01*
X69979939Y-71679725D01*
X70010915Y-71662810D01*
X70142331Y-71613796D01*
X70257546Y-71527546D01*
X70343796Y-71412331D01*
X70394091Y-71277483D01*
X70400500Y-71217873D01*
X70400499Y-69422128D01*
X70394091Y-69362517D01*
X70343884Y-69227906D01*
X70343797Y-69227671D01*
X70343793Y-69227664D01*
X70257547Y-69112455D01*
X70257544Y-69112452D01*
X70142335Y-69026206D01*
X70142328Y-69026202D01*
X70010917Y-68977189D01*
X69954983Y-68935318D01*
X69930566Y-68869853D01*
X69945418Y-68801580D01*
X69966563Y-68773332D01*
X70088495Y-68651401D01*
X70224035Y-68457830D01*
X70323903Y-68243663D01*
X70385063Y-68015408D01*
X70405659Y-67780000D01*
X70385063Y-67544592D01*
X70323903Y-67316337D01*
X70224035Y-67102171D01*
X70088495Y-66908599D01*
X70088494Y-66908597D01*
X69921402Y-66741506D01*
X69921396Y-66741501D01*
X69735842Y-66611575D01*
X69692217Y-66556998D01*
X69685023Y-66487500D01*
X69716546Y-66425145D01*
X69735842Y-66408425D01*
X69863518Y-66319025D01*
X69921401Y-66278495D01*
X70088495Y-66111401D01*
X70224035Y-65917830D01*
X70323903Y-65703663D01*
X70385063Y-65475408D01*
X70405659Y-65240000D01*
X70385063Y-65004592D01*
X70323903Y-64776337D01*
X70224035Y-64562171D01*
X70088495Y-64368599D01*
X70088494Y-64368597D01*
X69921402Y-64201506D01*
X69921396Y-64201501D01*
X69735842Y-64071575D01*
X69692217Y-64016998D01*
X69685023Y-63947500D01*
X69716546Y-63885145D01*
X69735842Y-63868425D01*
X69758026Y-63852891D01*
X69921401Y-63738495D01*
X70088495Y-63571401D01*
X70224035Y-63377830D01*
X70323903Y-63163663D01*
X70385063Y-62935408D01*
X70405659Y-62700000D01*
X70385063Y-62464592D01*
X70323903Y-62236337D01*
X70224035Y-62022171D01*
X70215552Y-62010055D01*
X70088494Y-61828597D01*
X69921402Y-61661506D01*
X69921396Y-61661501D01*
X69735842Y-61531575D01*
X69692217Y-61476998D01*
X69685023Y-61407500D01*
X69716546Y-61345145D01*
X69735842Y-61328425D01*
X69798453Y-61284584D01*
X69921401Y-61198495D01*
X70088495Y-61031401D01*
X70224035Y-60837830D01*
X70323903Y-60623663D01*
X70385063Y-60395408D01*
X70405659Y-60160000D01*
X70385063Y-59924592D01*
X70323903Y-59696337D01*
X70224035Y-59482171D01*
X70146637Y-59371635D01*
X70088496Y-59288600D01*
X70049896Y-59250000D01*
X69966179Y-59166283D01*
X69932696Y-59104963D01*
X69937680Y-59035271D01*
X69979551Y-58979337D01*
X70010529Y-58962422D01*
X70142086Y-58913354D01*
X70142093Y-58913350D01*
X70257187Y-58827190D01*
X70257190Y-58827187D01*
X70343350Y-58712093D01*
X70343354Y-58712086D01*
X70393596Y-58577379D01*
X70393598Y-58577372D01*
X70399999Y-58517844D01*
X70400000Y-58517827D01*
X70400000Y-57870000D01*
X69495572Y-57870000D01*
X69518682Y-57834040D01*
X69560000Y-57693327D01*
X69560000Y-57546673D01*
X69518682Y-57405960D01*
X69495572Y-57370000D01*
X70400000Y-57370000D01*
X70400000Y-56722172D01*
X70399999Y-56722155D01*
X70393598Y-56662627D01*
X70393596Y-56662620D01*
X70343354Y-56527913D01*
X70343350Y-56527906D01*
X70257190Y-56412812D01*
X70257187Y-56412809D01*
X70142093Y-56326649D01*
X70142088Y-56326646D01*
X70010528Y-56277577D01*
X69954595Y-56235705D01*
X69930178Y-56170241D01*
X69945030Y-56101968D01*
X69966175Y-56073720D01*
X70088495Y-55951401D01*
X70224035Y-55757830D01*
X70251000Y-55700003D01*
X74259723Y-55700003D01*
X74261331Y-55718389D01*
X74261678Y-55734752D01*
X74260709Y-55756324D01*
X74260710Y-55756328D01*
X74271444Y-55835576D01*
X74272094Y-55841412D01*
X74278792Y-55917972D01*
X74278795Y-55917989D01*
X74284461Y-55939134D01*
X74287563Y-55954576D01*
X74290923Y-55979380D01*
X74290926Y-55979392D01*
X74314573Y-56052169D01*
X74316417Y-56058393D01*
X74335423Y-56129324D01*
X74335428Y-56129337D01*
X74346135Y-56152300D01*
X74351682Y-56166380D01*
X74360483Y-56193464D01*
X74395128Y-56257845D01*
X74398312Y-56264193D01*
X74402791Y-56273797D01*
X74427897Y-56327638D01*
X74429901Y-56330500D01*
X74444410Y-56351221D01*
X74452025Y-56363578D01*
X74467146Y-56391678D01*
X74467152Y-56391687D01*
X74510587Y-56446153D01*
X74515214Y-56452340D01*
X74540510Y-56488465D01*
X74553402Y-56506877D01*
X74553405Y-56506880D01*
X74576186Y-56529661D01*
X74585452Y-56540029D01*
X74607492Y-56567666D01*
X74657387Y-56611259D01*
X74663484Y-56616959D01*
X74708116Y-56661592D01*
X74708121Y-56661596D01*
X74708123Y-56661598D01*
X74709583Y-56662620D01*
X74737332Y-56682050D01*
X74747793Y-56690244D01*
X74777004Y-56715765D01*
X74777013Y-56715771D01*
X74830924Y-56747981D01*
X74838449Y-56752854D01*
X74887359Y-56787101D01*
X74887365Y-56787104D01*
X74922798Y-56803627D01*
X74933992Y-56809561D01*
X74970234Y-56831214D01*
X74970236Y-56831215D01*
X75015728Y-56848288D01*
X75025838Y-56852082D01*
X75034669Y-56855792D01*
X75078300Y-56876138D01*
X75085670Y-56879575D01*
X75085675Y-56879577D01*
X75126756Y-56890584D01*
X75138227Y-56894262D01*
X75180976Y-56910307D01*
X75236047Y-56920301D01*
X75245965Y-56922526D01*
X75297023Y-56936207D01*
X75342829Y-56940214D01*
X75354121Y-56941728D01*
X75402453Y-56950500D01*
X75454985Y-56950500D01*
X75465792Y-56950972D01*
X75514998Y-56955277D01*
X75515000Y-56955277D01*
X75565369Y-56950870D01*
X75570600Y-56950524D01*
X75571122Y-56950500D01*
X75571155Y-56950500D01*
X75624217Y-56945724D01*
X75625173Y-56945638D01*
X75625180Y-56945724D01*
X75625477Y-56945611D01*
X75732977Y-56936207D01*
X75732982Y-56936205D01*
X75735000Y-56936029D01*
X75737205Y-56935736D01*
X75739182Y-56935377D01*
X75739188Y-56935377D01*
X75842684Y-56906812D01*
X75843350Y-56906631D01*
X75944330Y-56879575D01*
X75944337Y-56879571D01*
X75948913Y-56877906D01*
X75954449Y-56876138D01*
X75956159Y-56875495D01*
X75956170Y-56875493D01*
X76049890Y-56830359D01*
X76051016Y-56829825D01*
X76142639Y-56787102D01*
X76142640Y-56787101D01*
X76147327Y-56784395D01*
X76147400Y-56784522D01*
X76158164Y-56778218D01*
X76158973Y-56777829D01*
X76240325Y-56718721D01*
X76241993Y-56717531D01*
X76321877Y-56661598D01*
X76322747Y-56660727D01*
X76337550Y-56648084D01*
X76341078Y-56645522D01*
X76408237Y-56575277D01*
X76410098Y-56573376D01*
X76476592Y-56506883D01*
X76476592Y-56506882D01*
X76476598Y-56506877D01*
X76479285Y-56503039D01*
X76491239Y-56488465D01*
X76496629Y-56482828D01*
X76496628Y-56482828D01*
X76496632Y-56482825D01*
X76548266Y-56404600D01*
X76550083Y-56401928D01*
X76602102Y-56327639D01*
X76605543Y-56320259D01*
X76614432Y-56304364D01*
X76620635Y-56294968D01*
X76656101Y-56211987D01*
X76657735Y-56208332D01*
X76667427Y-56187547D01*
X76694575Y-56129330D01*
X76697570Y-56118148D01*
X76703325Y-56101505D01*
X76709103Y-56087988D01*
X76728417Y-56003366D01*
X76729533Y-55998863D01*
X76751207Y-55917977D01*
X76752515Y-55903015D01*
X76755150Y-55886237D01*
X76759191Y-55868537D01*
X76762934Y-55785183D01*
X76763274Y-55780036D01*
X76770277Y-55700003D01*
X79109723Y-55700003D01*
X79111331Y-55718389D01*
X79111678Y-55734752D01*
X79110709Y-55756324D01*
X79110710Y-55756328D01*
X79121444Y-55835576D01*
X79122094Y-55841412D01*
X79128792Y-55917972D01*
X79128795Y-55917989D01*
X79134461Y-55939134D01*
X79137563Y-55954576D01*
X79140923Y-55979380D01*
X79140926Y-55979392D01*
X79164573Y-56052169D01*
X79166417Y-56058393D01*
X79185423Y-56129324D01*
X79185428Y-56129337D01*
X79196135Y-56152300D01*
X79201682Y-56166380D01*
X79210483Y-56193464D01*
X79245128Y-56257845D01*
X79248312Y-56264193D01*
X79252791Y-56273797D01*
X79277897Y-56327638D01*
X79279901Y-56330500D01*
X79294410Y-56351221D01*
X79302025Y-56363578D01*
X79317146Y-56391678D01*
X79317152Y-56391687D01*
X79360587Y-56446153D01*
X79365214Y-56452340D01*
X79390510Y-56488465D01*
X79403402Y-56506877D01*
X79403405Y-56506880D01*
X79426186Y-56529661D01*
X79435452Y-56540029D01*
X79457492Y-56567666D01*
X79507387Y-56611259D01*
X79513484Y-56616959D01*
X79558116Y-56661592D01*
X79558121Y-56661596D01*
X79558123Y-56661598D01*
X79559583Y-56662620D01*
X79587332Y-56682050D01*
X79597793Y-56690244D01*
X79627004Y-56715765D01*
X79627013Y-56715771D01*
X79680924Y-56747981D01*
X79688449Y-56752854D01*
X79737359Y-56787101D01*
X79737365Y-56787104D01*
X79772798Y-56803627D01*
X79783992Y-56809561D01*
X79820234Y-56831214D01*
X79820236Y-56831215D01*
X79865728Y-56848288D01*
X79875838Y-56852082D01*
X79884669Y-56855792D01*
X79928300Y-56876138D01*
X79935670Y-56879575D01*
X79935675Y-56879577D01*
X79976756Y-56890584D01*
X79988227Y-56894262D01*
X80030976Y-56910307D01*
X80086047Y-56920301D01*
X80095965Y-56922526D01*
X80147023Y-56936207D01*
X80192829Y-56940214D01*
X80204121Y-56941728D01*
X80252453Y-56950500D01*
X80304985Y-56950500D01*
X80315792Y-56950972D01*
X80364998Y-56955277D01*
X80365000Y-56955277D01*
X80415369Y-56950870D01*
X80420600Y-56950524D01*
X80421122Y-56950500D01*
X80421155Y-56950500D01*
X80474217Y-56945724D01*
X80475173Y-56945638D01*
X80475180Y-56945724D01*
X80475477Y-56945611D01*
X80582977Y-56936207D01*
X80582982Y-56936205D01*
X80585000Y-56936029D01*
X80587205Y-56935736D01*
X80589182Y-56935377D01*
X80589188Y-56935377D01*
X80692684Y-56906812D01*
X80693350Y-56906631D01*
X80794330Y-56879575D01*
X80794337Y-56879571D01*
X80798913Y-56877906D01*
X80804449Y-56876138D01*
X80806159Y-56875495D01*
X80806170Y-56875493D01*
X80899890Y-56830359D01*
X80901016Y-56829825D01*
X80992639Y-56787102D01*
X80992640Y-56787101D01*
X80997327Y-56784395D01*
X80997400Y-56784522D01*
X81008164Y-56778218D01*
X81008973Y-56777829D01*
X81090325Y-56718721D01*
X81091993Y-56717531D01*
X81171877Y-56661598D01*
X81172747Y-56660727D01*
X81187550Y-56648084D01*
X81191078Y-56645522D01*
X81258237Y-56575277D01*
X81260098Y-56573376D01*
X81326592Y-56506883D01*
X81326592Y-56506882D01*
X81326598Y-56506877D01*
X81329285Y-56503039D01*
X81341239Y-56488465D01*
X81346629Y-56482828D01*
X81346628Y-56482828D01*
X81346632Y-56482825D01*
X81398266Y-56404600D01*
X81400083Y-56401928D01*
X81452102Y-56327639D01*
X81455543Y-56320259D01*
X81464432Y-56304364D01*
X81470635Y-56294968D01*
X81506101Y-56211987D01*
X81507735Y-56208332D01*
X81517427Y-56187547D01*
X81544575Y-56129330D01*
X81547570Y-56118148D01*
X81553325Y-56101505D01*
X81559103Y-56087988D01*
X81578417Y-56003366D01*
X81579533Y-55998863D01*
X81601207Y-55917977D01*
X81602515Y-55903015D01*
X81605150Y-55886237D01*
X81609191Y-55868537D01*
X81612934Y-55785183D01*
X81613274Y-55780036D01*
X81620277Y-55700000D01*
X81618667Y-55681608D01*
X81618321Y-55665239D01*
X81618534Y-55660499D01*
X81619290Y-55643670D01*
X81608549Y-55564385D01*
X81607905Y-55558600D01*
X81601207Y-55482023D01*
X81595539Y-55460870D01*
X81592434Y-55445412D01*
X81589076Y-55420619D01*
X81589075Y-55420618D01*
X81589075Y-55420613D01*
X81565414Y-55347795D01*
X81563578Y-55341593D01*
X81544576Y-55270674D01*
X81544575Y-55270671D01*
X81544575Y-55270670D01*
X81533863Y-55247699D01*
X81528317Y-55233618D01*
X81519519Y-55206541D01*
X81519517Y-55206537D01*
X81519517Y-55206536D01*
X81484869Y-55142149D01*
X81481681Y-55135794D01*
X81459398Y-55088009D01*
X81452102Y-55072362D01*
X81435592Y-55048785D01*
X81427976Y-55036425D01*
X81412852Y-55008319D01*
X81369398Y-54953830D01*
X81364785Y-54947661D01*
X81326598Y-54893123D01*
X81303804Y-54870329D01*
X81294545Y-54859968D01*
X81272508Y-54832334D01*
X81265967Y-54826619D01*
X81222611Y-54788739D01*
X81216514Y-54783039D01*
X81171878Y-54738402D01*
X81142663Y-54717946D01*
X81132210Y-54709759D01*
X81102996Y-54684235D01*
X81100156Y-54682538D01*
X81049073Y-54652017D01*
X81041550Y-54647145D01*
X80992641Y-54612899D01*
X80957205Y-54596374D01*
X80946015Y-54590442D01*
X80909769Y-54568787D01*
X80909767Y-54568786D01*
X80901951Y-54565852D01*
X80854154Y-54547914D01*
X80845349Y-54544216D01*
X80794330Y-54520425D01*
X80753232Y-54509412D01*
X80741759Y-54505731D01*
X80699024Y-54489692D01*
X80643965Y-54479700D01*
X80634016Y-54477468D01*
X80582977Y-54463793D01*
X80537176Y-54459785D01*
X80525846Y-54458264D01*
X80477552Y-54449500D01*
X80477547Y-54449500D01*
X80425015Y-54449500D01*
X80414208Y-54449028D01*
X80365002Y-54444723D01*
X80364996Y-54444723D01*
X80314651Y-54449127D01*
X80309442Y-54449473D01*
X80308848Y-54449499D01*
X80254915Y-54454352D01*
X80254613Y-54454379D01*
X80157239Y-54462899D01*
X80147023Y-54463793D01*
X80147022Y-54463793D01*
X80145081Y-54463963D01*
X80142708Y-54464278D01*
X80140809Y-54464623D01*
X80037522Y-54493129D01*
X80036628Y-54493372D01*
X79935668Y-54520425D01*
X79931051Y-54522105D01*
X79925520Y-54523872D01*
X79923836Y-54524504D01*
X79830246Y-54569573D01*
X79828853Y-54570233D01*
X79737359Y-54612899D01*
X79732670Y-54615606D01*
X79732598Y-54615481D01*
X79721871Y-54621764D01*
X79721031Y-54622168D01*
X79639662Y-54681284D01*
X79637904Y-54682538D01*
X79558121Y-54738403D01*
X79557241Y-54739284D01*
X79542461Y-54751906D01*
X79538928Y-54754472D01*
X79538921Y-54754478D01*
X79471847Y-54824632D01*
X79469903Y-54826619D01*
X79403404Y-54893119D01*
X79403402Y-54893121D01*
X79400711Y-54896965D01*
X79388773Y-54911521D01*
X79383368Y-54917174D01*
X79363253Y-54947647D01*
X79331750Y-54995369D01*
X79329865Y-54998142D01*
X79277901Y-55072356D01*
X79277891Y-55072374D01*
X79274457Y-55079738D01*
X79265572Y-55095628D01*
X79259363Y-55105034D01*
X79223893Y-55188020D01*
X79222254Y-55191688D01*
X79185426Y-55270664D01*
X79185424Y-55270671D01*
X79182425Y-55281860D01*
X79176681Y-55298475D01*
X79170899Y-55312005D01*
X79170896Y-55312014D01*
X79151576Y-55396659D01*
X79150460Y-55401158D01*
X79128793Y-55482022D01*
X79127483Y-55496992D01*
X79124847Y-55513769D01*
X79120809Y-55531459D01*
X79120809Y-55531464D01*
X79117066Y-55614777D01*
X79116719Y-55620016D01*
X79109723Y-55699995D01*
X79109723Y-55700003D01*
X76770277Y-55700003D01*
X76770277Y-55700000D01*
X76768667Y-55681608D01*
X76768321Y-55665239D01*
X76768534Y-55660499D01*
X76769290Y-55643670D01*
X76758549Y-55564385D01*
X76757905Y-55558600D01*
X76751207Y-55482023D01*
X76745539Y-55460870D01*
X76742434Y-55445412D01*
X76739076Y-55420619D01*
X76739075Y-55420618D01*
X76739075Y-55420613D01*
X76715414Y-55347795D01*
X76713578Y-55341593D01*
X76694576Y-55270674D01*
X76694575Y-55270671D01*
X76694575Y-55270670D01*
X76683863Y-55247699D01*
X76678317Y-55233618D01*
X76669519Y-55206541D01*
X76669517Y-55206537D01*
X76669517Y-55206536D01*
X76634869Y-55142149D01*
X76631681Y-55135794D01*
X76609398Y-55088009D01*
X76602102Y-55072362D01*
X76585592Y-55048785D01*
X76577976Y-55036425D01*
X76562852Y-55008319D01*
X76519398Y-54953830D01*
X76514785Y-54947661D01*
X76476598Y-54893123D01*
X76453804Y-54870329D01*
X76444545Y-54859968D01*
X76422508Y-54832334D01*
X76415967Y-54826619D01*
X76372611Y-54788739D01*
X76366514Y-54783039D01*
X76321878Y-54738402D01*
X76292663Y-54717946D01*
X76282210Y-54709759D01*
X76252996Y-54684235D01*
X76250156Y-54682538D01*
X76199073Y-54652017D01*
X76191550Y-54647145D01*
X76142641Y-54612899D01*
X76107205Y-54596374D01*
X76096015Y-54590442D01*
X76059769Y-54568787D01*
X76059767Y-54568786D01*
X76051951Y-54565852D01*
X76004154Y-54547914D01*
X75995349Y-54544216D01*
X75944330Y-54520425D01*
X75903232Y-54509412D01*
X75891759Y-54505731D01*
X75849024Y-54489692D01*
X75793965Y-54479700D01*
X75784016Y-54477468D01*
X75732977Y-54463793D01*
X75687176Y-54459785D01*
X75675846Y-54458264D01*
X75627552Y-54449500D01*
X75627547Y-54449500D01*
X75575015Y-54449500D01*
X75564208Y-54449028D01*
X75515002Y-54444723D01*
X75514996Y-54444723D01*
X75464651Y-54449127D01*
X75459442Y-54449473D01*
X75458848Y-54449499D01*
X75404915Y-54454352D01*
X75404613Y-54454379D01*
X75307239Y-54462899D01*
X75297023Y-54463793D01*
X75297022Y-54463793D01*
X75295081Y-54463963D01*
X75292708Y-54464278D01*
X75290809Y-54464623D01*
X75187522Y-54493129D01*
X75186628Y-54493372D01*
X75085668Y-54520425D01*
X75081051Y-54522105D01*
X75075520Y-54523872D01*
X75073836Y-54524504D01*
X74980246Y-54569573D01*
X74978853Y-54570233D01*
X74887359Y-54612899D01*
X74882670Y-54615606D01*
X74882598Y-54615481D01*
X74871871Y-54621764D01*
X74871031Y-54622168D01*
X74789662Y-54681284D01*
X74787904Y-54682538D01*
X74708121Y-54738403D01*
X74707241Y-54739284D01*
X74692461Y-54751906D01*
X74688928Y-54754472D01*
X74688921Y-54754478D01*
X74621847Y-54824632D01*
X74619903Y-54826619D01*
X74553404Y-54893119D01*
X74553402Y-54893121D01*
X74550711Y-54896965D01*
X74538773Y-54911521D01*
X74533368Y-54917174D01*
X74513253Y-54947647D01*
X74481750Y-54995369D01*
X74479865Y-54998142D01*
X74427901Y-55072356D01*
X74427891Y-55072374D01*
X74424457Y-55079738D01*
X74415572Y-55095628D01*
X74409363Y-55105034D01*
X74373893Y-55188020D01*
X74372254Y-55191688D01*
X74335426Y-55270664D01*
X74335424Y-55270671D01*
X74332425Y-55281860D01*
X74326681Y-55298475D01*
X74320899Y-55312005D01*
X74320896Y-55312014D01*
X74301576Y-55396659D01*
X74300460Y-55401158D01*
X74278793Y-55482022D01*
X74277483Y-55496992D01*
X74274847Y-55513769D01*
X74270809Y-55531459D01*
X74270809Y-55531464D01*
X74267066Y-55614777D01*
X74266719Y-55620016D01*
X74259723Y-55699995D01*
X74259723Y-55700003D01*
X70251000Y-55700003D01*
X70323903Y-55543663D01*
X70385063Y-55315408D01*
X70405659Y-55080000D01*
X70385063Y-54844592D01*
X70333463Y-54652017D01*
X70323905Y-54616344D01*
X70323904Y-54616343D01*
X70323903Y-54616337D01*
X70224035Y-54402171D01*
X70139986Y-54282135D01*
X70088494Y-54208597D01*
X69921402Y-54041506D01*
X69921396Y-54041501D01*
X69735842Y-53911575D01*
X69692217Y-53856998D01*
X69685023Y-53787500D01*
X69716546Y-53725145D01*
X69735842Y-53708425D01*
X69818170Y-53650778D01*
X69921401Y-53578495D01*
X70088495Y-53411401D01*
X70224035Y-53217830D01*
X70323903Y-53003663D01*
X70385063Y-52775408D01*
X70394285Y-52669998D01*
X73809700Y-52669998D01*
X73816750Y-52755098D01*
X73817061Y-52760071D01*
X73820819Y-52848523D01*
X73820820Y-52848534D01*
X73825092Y-52868355D01*
X73827451Y-52884238D01*
X73828865Y-52901301D01*
X73828865Y-52901306D01*
X73850660Y-52987372D01*
X73851670Y-52991685D01*
X73871044Y-53081575D01*
X73871046Y-53081582D01*
X73877333Y-53097228D01*
X73882477Y-53113010D01*
X73885843Y-53126300D01*
X73915571Y-53194075D01*
X73922875Y-53210725D01*
X73924377Y-53214300D01*
X73959934Y-53302787D01*
X73959935Y-53302788D01*
X73966981Y-53314232D01*
X73974943Y-53329428D01*
X73979076Y-53338850D01*
X74031366Y-53418886D01*
X74033147Y-53421693D01*
X74084930Y-53505794D01*
X74091543Y-53513308D01*
X74102263Y-53527402D01*
X74106019Y-53533151D01*
X74106021Y-53533153D01*
X74173117Y-53606040D01*
X74174930Y-53608054D01*
X74242436Y-53684755D01*
X74247564Y-53688895D01*
X74260882Y-53701377D01*
X74263216Y-53703913D01*
X74303620Y-53735360D01*
X74344062Y-53766837D01*
X74345795Y-53768211D01*
X74427920Y-53834523D01*
X74427922Y-53834524D01*
X74430678Y-53836064D01*
X74446360Y-53846460D01*
X74446367Y-53846465D01*
X74446371Y-53846467D01*
X74446374Y-53846470D01*
X74539507Y-53896870D01*
X74540785Y-53897573D01*
X74594637Y-53927657D01*
X74636051Y-53950793D01*
X74638849Y-53952058D01*
X74645695Y-53955097D01*
X74645794Y-53954873D01*
X74650491Y-53956933D01*
X74650497Y-53956936D01*
X74753950Y-53992451D01*
X74754557Y-53992662D01*
X74860829Y-54030211D01*
X74860843Y-54030213D01*
X74862392Y-54030617D01*
X74868492Y-54031910D01*
X74869999Y-54032291D01*
X74870019Y-54032298D01*
X74981192Y-54050849D01*
X74981608Y-54050919D01*
X75007416Y-54055345D01*
X75095792Y-54070499D01*
X75095800Y-54070500D01*
X75331044Y-54070500D01*
X75331049Y-54070500D01*
X75385013Y-54061494D01*
X75394883Y-54060252D01*
X75452541Y-54055346D01*
X75501925Y-54042487D01*
X75512760Y-54040177D01*
X75559981Y-54032298D01*
X75614963Y-54013421D01*
X75623941Y-54010716D01*
X75683249Y-53995275D01*
X75726642Y-53975659D01*
X75737436Y-53971377D01*
X75779503Y-53956936D01*
X75833611Y-53927653D01*
X75841541Y-53923721D01*
X75900486Y-53897077D01*
X75937120Y-53872316D01*
X75947503Y-53866018D01*
X75983626Y-53846470D01*
X76034878Y-53806578D01*
X76041584Y-53801710D01*
X76098003Y-53763579D01*
X76127460Y-53735345D01*
X76137075Y-53727035D01*
X76166784Y-53703913D01*
X76213070Y-53653632D01*
X76218490Y-53648100D01*
X76270118Y-53598621D01*
X76292351Y-53568557D01*
X76300799Y-53558331D01*
X76323979Y-53533153D01*
X76363223Y-53473084D01*
X76367317Y-53467196D01*
X76411879Y-53406947D01*
X76427176Y-53376604D01*
X76434074Y-53364637D01*
X76450924Y-53338849D01*
X76481130Y-53269984D01*
X76483927Y-53264045D01*
X76519207Y-53194074D01*
X76528155Y-53164854D01*
X76533153Y-53151383D01*
X76544157Y-53126300D01*
X76563450Y-53050110D01*
X76565088Y-53044255D01*
X76589015Y-52966126D01*
X76589016Y-52966121D01*
X76592460Y-52939227D01*
X76595251Y-52924535D01*
X76601132Y-52901311D01*
X76601134Y-52901305D01*
X76607903Y-52819600D01*
X76608484Y-52814095D01*
X76619298Y-52729654D01*
X76618291Y-52705961D01*
X76618602Y-52690481D01*
X76620300Y-52670000D01*
X76620300Y-52669998D01*
X79259700Y-52669998D01*
X79266750Y-52755098D01*
X79267061Y-52760071D01*
X79270819Y-52848523D01*
X79270820Y-52848534D01*
X79275092Y-52868355D01*
X79277451Y-52884238D01*
X79278865Y-52901301D01*
X79278865Y-52901306D01*
X79300660Y-52987372D01*
X79301670Y-52991685D01*
X79321044Y-53081575D01*
X79321046Y-53081582D01*
X79327333Y-53097228D01*
X79332477Y-53113010D01*
X79335843Y-53126300D01*
X79365571Y-53194075D01*
X79372875Y-53210725D01*
X79374377Y-53214300D01*
X79409934Y-53302787D01*
X79409935Y-53302788D01*
X79416981Y-53314232D01*
X79424943Y-53329428D01*
X79429076Y-53338850D01*
X79481366Y-53418886D01*
X79483147Y-53421693D01*
X79534930Y-53505794D01*
X79541543Y-53513308D01*
X79552263Y-53527402D01*
X79556019Y-53533151D01*
X79556021Y-53533153D01*
X79623117Y-53606040D01*
X79624930Y-53608054D01*
X79692436Y-53684755D01*
X79697564Y-53688895D01*
X79710882Y-53701377D01*
X79713216Y-53703913D01*
X79753620Y-53735360D01*
X79794062Y-53766837D01*
X79795795Y-53768211D01*
X79877920Y-53834523D01*
X79877922Y-53834524D01*
X79880678Y-53836064D01*
X79896360Y-53846460D01*
X79896367Y-53846465D01*
X79896371Y-53846467D01*
X79896374Y-53846470D01*
X79989507Y-53896870D01*
X79990785Y-53897573D01*
X80044637Y-53927657D01*
X80086051Y-53950793D01*
X80088849Y-53952058D01*
X80095695Y-53955097D01*
X80095794Y-53954873D01*
X80100491Y-53956933D01*
X80100497Y-53956936D01*
X80203950Y-53992451D01*
X80204557Y-53992662D01*
X80310829Y-54030211D01*
X80310843Y-54030213D01*
X80312392Y-54030617D01*
X80318492Y-54031910D01*
X80319999Y-54032291D01*
X80320019Y-54032298D01*
X80431192Y-54050849D01*
X80431608Y-54050919D01*
X80457416Y-54055345D01*
X80545792Y-54070499D01*
X80545800Y-54070500D01*
X80781044Y-54070500D01*
X80781049Y-54070500D01*
X80835013Y-54061494D01*
X80844883Y-54060252D01*
X80902541Y-54055346D01*
X80951925Y-54042487D01*
X80962760Y-54040177D01*
X81009981Y-54032298D01*
X81064963Y-54013421D01*
X81073941Y-54010716D01*
X81133249Y-53995275D01*
X81176642Y-53975659D01*
X81187436Y-53971377D01*
X81229503Y-53956936D01*
X81283611Y-53927653D01*
X81291541Y-53923721D01*
X81350486Y-53897077D01*
X81387120Y-53872316D01*
X81397503Y-53866018D01*
X81433626Y-53846470D01*
X81484878Y-53806578D01*
X81491584Y-53801710D01*
X81548003Y-53763579D01*
X81577460Y-53735345D01*
X81587075Y-53727035D01*
X81616784Y-53703913D01*
X81663070Y-53653632D01*
X81668490Y-53648100D01*
X81720118Y-53598621D01*
X81742351Y-53568557D01*
X81750799Y-53558331D01*
X81773979Y-53533153D01*
X81813223Y-53473084D01*
X81817317Y-53467196D01*
X81861879Y-53406947D01*
X81877176Y-53376604D01*
X81884074Y-53364637D01*
X81900924Y-53338849D01*
X81931130Y-53269984D01*
X81933927Y-53264045D01*
X81969207Y-53194074D01*
X81978155Y-53164854D01*
X81983153Y-53151383D01*
X81994157Y-53126300D01*
X82013450Y-53050110D01*
X82015088Y-53044255D01*
X82039015Y-52966126D01*
X82039016Y-52966121D01*
X82042460Y-52939227D01*
X82045251Y-52924535D01*
X82051132Y-52901311D01*
X82051134Y-52901305D01*
X82057903Y-52819600D01*
X82058484Y-52814095D01*
X82069298Y-52729654D01*
X82068291Y-52705961D01*
X82068602Y-52690481D01*
X82070300Y-52670000D01*
X82063248Y-52584902D01*
X82062938Y-52579943D01*
X82061241Y-52540000D01*
X82059180Y-52491468D01*
X82054906Y-52471640D01*
X82052548Y-52455764D01*
X82051134Y-52438695D01*
X82029325Y-52352577D01*
X82028336Y-52348354D01*
X82008954Y-52258419D01*
X82002665Y-52242770D01*
X81997519Y-52226980D01*
X81994157Y-52213700D01*
X81957092Y-52129202D01*
X81955621Y-52125697D01*
X81936043Y-52076976D01*
X81920064Y-52037210D01*
X81917607Y-52033220D01*
X81913021Y-52025771D01*
X81905053Y-52010565D01*
X81900924Y-52001151D01*
X81848639Y-51921122D01*
X81846859Y-51918315D01*
X81795074Y-51834212D01*
X81795071Y-51834209D01*
X81795069Y-51834205D01*
X81788451Y-51826686D01*
X81777727Y-51812584D01*
X81773980Y-51806848D01*
X81750800Y-51781668D01*
X81706876Y-51733953D01*
X81705068Y-51731944D01*
X81637565Y-51655246D01*
X81632439Y-51651107D01*
X81619117Y-51638621D01*
X81616785Y-51636088D01*
X81616783Y-51636086D01*
X81535936Y-51573161D01*
X81534198Y-51571783D01*
X81452080Y-51505477D01*
X81452073Y-51505472D01*
X81449311Y-51503929D01*
X81433643Y-51493542D01*
X81433634Y-51493535D01*
X81433628Y-51493532D01*
X81433626Y-51493530D01*
X81340485Y-51443125D01*
X81339094Y-51442359D01*
X81243961Y-51389213D01*
X81241381Y-51388047D01*
X81234284Y-51384898D01*
X81234188Y-51385119D01*
X81229499Y-51383062D01*
X81126278Y-51347626D01*
X81125233Y-51347262D01*
X81019172Y-51309789D01*
X81017635Y-51309389D01*
X81011549Y-51308098D01*
X81009995Y-51307704D01*
X80898772Y-51289144D01*
X80898227Y-51289051D01*
X80784210Y-51269500D01*
X80784200Y-51269500D01*
X80781049Y-51269500D01*
X80548951Y-51269500D01*
X80494993Y-51278503D01*
X80485101Y-51279747D01*
X80427470Y-51284652D01*
X80427461Y-51284653D01*
X80378077Y-51297511D01*
X80367250Y-51299819D01*
X80320012Y-51307703D01*
X80265068Y-51326566D01*
X80256051Y-51329284D01*
X80196749Y-51344725D01*
X80196743Y-51344727D01*
X80153361Y-51364337D01*
X80142553Y-51368624D01*
X80100504Y-51383060D01*
X80100498Y-51383063D01*
X80046396Y-51412341D01*
X80038460Y-51416275D01*
X79979514Y-51442922D01*
X79942883Y-51467679D01*
X79932470Y-51473994D01*
X79896379Y-51493526D01*
X79896367Y-51493533D01*
X79845126Y-51533416D01*
X79838402Y-51538297D01*
X79782001Y-51576417D01*
X79781994Y-51576423D01*
X79752546Y-51604644D01*
X79742918Y-51612967D01*
X79713217Y-51636085D01*
X79713209Y-51636093D01*
X79666925Y-51686369D01*
X79661500Y-51691905D01*
X79609882Y-51741378D01*
X79609880Y-51741380D01*
X79587657Y-51771427D01*
X79579198Y-51781668D01*
X79556021Y-51806846D01*
X79516781Y-51866906D01*
X79512671Y-51872814D01*
X79468124Y-51933047D01*
X79468119Y-51933055D01*
X79452826Y-51963384D01*
X79445918Y-51975370D01*
X79429076Y-52001149D01*
X79398887Y-52069974D01*
X79396060Y-52075975D01*
X79369189Y-52129274D01*
X79360791Y-52145930D01*
X79351847Y-52175131D01*
X79346842Y-52188620D01*
X79335845Y-52213691D01*
X79335845Y-52213692D01*
X79316552Y-52289872D01*
X79314913Y-52295735D01*
X79290984Y-52373877D01*
X79290983Y-52373879D01*
X79287538Y-52400777D01*
X79284750Y-52415454D01*
X79278867Y-52438687D01*
X79278864Y-52438706D01*
X79272097Y-52520377D01*
X79271517Y-52525887D01*
X79260702Y-52610344D01*
X79260701Y-52610345D01*
X79261707Y-52634025D01*
X79261396Y-52649520D01*
X79259700Y-52669998D01*
X76620300Y-52669998D01*
X76613248Y-52584902D01*
X76612938Y-52579943D01*
X76611241Y-52540000D01*
X76609180Y-52491468D01*
X76604906Y-52471640D01*
X76602548Y-52455764D01*
X76601134Y-52438695D01*
X76579325Y-52352577D01*
X76578336Y-52348354D01*
X76558954Y-52258419D01*
X76552665Y-52242770D01*
X76547519Y-52226980D01*
X76544157Y-52213700D01*
X76507092Y-52129202D01*
X76505621Y-52125697D01*
X76486043Y-52076976D01*
X76470064Y-52037210D01*
X76467607Y-52033220D01*
X76463021Y-52025771D01*
X76455053Y-52010565D01*
X76450924Y-52001151D01*
X76398639Y-51921122D01*
X76396859Y-51918315D01*
X76345074Y-51834212D01*
X76345071Y-51834209D01*
X76345069Y-51834205D01*
X76338451Y-51826686D01*
X76327727Y-51812584D01*
X76323980Y-51806848D01*
X76300800Y-51781668D01*
X76256876Y-51733953D01*
X76255068Y-51731944D01*
X76187565Y-51655246D01*
X76182439Y-51651107D01*
X76169117Y-51638621D01*
X76166785Y-51636088D01*
X76166783Y-51636086D01*
X76085936Y-51573161D01*
X76084198Y-51571783D01*
X76002080Y-51505477D01*
X76002073Y-51505472D01*
X75999311Y-51503929D01*
X75983643Y-51493542D01*
X75983634Y-51493535D01*
X75983628Y-51493532D01*
X75983626Y-51493530D01*
X75890485Y-51443125D01*
X75889094Y-51442359D01*
X75793961Y-51389213D01*
X75791381Y-51388047D01*
X75784284Y-51384898D01*
X75784188Y-51385119D01*
X75779499Y-51383062D01*
X75676278Y-51347626D01*
X75675233Y-51347262D01*
X75569172Y-51309789D01*
X75567635Y-51309389D01*
X75561549Y-51308098D01*
X75559995Y-51307704D01*
X75448772Y-51289144D01*
X75448227Y-51289051D01*
X75334210Y-51269500D01*
X75334200Y-51269500D01*
X75331049Y-51269500D01*
X75098951Y-51269500D01*
X75044993Y-51278503D01*
X75035101Y-51279747D01*
X74977470Y-51284652D01*
X74977461Y-51284653D01*
X74928077Y-51297511D01*
X74917250Y-51299819D01*
X74870012Y-51307703D01*
X74815068Y-51326566D01*
X74806051Y-51329284D01*
X74746749Y-51344725D01*
X74746743Y-51344727D01*
X74703361Y-51364337D01*
X74692553Y-51368624D01*
X74650504Y-51383060D01*
X74650498Y-51383063D01*
X74596396Y-51412341D01*
X74588460Y-51416275D01*
X74529514Y-51442922D01*
X74492883Y-51467679D01*
X74482470Y-51473994D01*
X74446379Y-51493526D01*
X74446367Y-51493533D01*
X74395126Y-51533416D01*
X74388402Y-51538297D01*
X74332001Y-51576417D01*
X74331994Y-51576423D01*
X74302546Y-51604644D01*
X74292918Y-51612967D01*
X74263217Y-51636085D01*
X74263209Y-51636093D01*
X74216925Y-51686369D01*
X74211500Y-51691905D01*
X74159882Y-51741378D01*
X74159880Y-51741380D01*
X74137657Y-51771427D01*
X74129198Y-51781668D01*
X74106021Y-51806846D01*
X74066781Y-51866906D01*
X74062671Y-51872814D01*
X74018124Y-51933047D01*
X74018119Y-51933055D01*
X74002826Y-51963384D01*
X73995918Y-51975370D01*
X73979076Y-52001149D01*
X73948887Y-52069974D01*
X73946060Y-52075975D01*
X73919189Y-52129274D01*
X73910791Y-52145930D01*
X73901847Y-52175131D01*
X73896842Y-52188620D01*
X73885845Y-52213691D01*
X73885845Y-52213692D01*
X73866552Y-52289872D01*
X73864913Y-52295735D01*
X73840984Y-52373877D01*
X73840983Y-52373879D01*
X73837538Y-52400777D01*
X73834750Y-52415454D01*
X73828867Y-52438687D01*
X73828864Y-52438706D01*
X73822097Y-52520377D01*
X73821517Y-52525887D01*
X73810702Y-52610344D01*
X73810701Y-52610345D01*
X73811707Y-52634025D01*
X73811396Y-52649520D01*
X73809700Y-52669998D01*
X70394285Y-52669998D01*
X70405659Y-52540000D01*
X70404099Y-52522175D01*
X70398990Y-52463778D01*
X70385063Y-52304592D01*
X70323903Y-52076337D01*
X70224035Y-51862171D01*
X70199196Y-51826696D01*
X70088494Y-51668597D01*
X69921402Y-51501506D01*
X69921395Y-51501501D01*
X69918297Y-51499332D01*
X69882111Y-51473994D01*
X69727834Y-51365967D01*
X69727830Y-51365965D01*
X69688502Y-51347626D01*
X69513663Y-51266097D01*
X69513659Y-51266096D01*
X69513655Y-51266094D01*
X69430356Y-51243775D01*
X69370695Y-51207410D01*
X69340166Y-51144563D01*
X69348461Y-51075188D01*
X69392946Y-51021310D01*
X69459498Y-51000035D01*
X69462449Y-51000000D01*
X86417551Y-51000000D01*
X86484590Y-51019685D01*
X86530345Y-51072489D01*
X86540289Y-51141647D01*
X86511264Y-51205203D01*
X86452486Y-51242977D01*
X86449644Y-51243775D01*
X86366344Y-51266094D01*
X86366335Y-51266098D01*
X86152171Y-51365964D01*
X86152169Y-51365965D01*
X85958597Y-51501505D01*
X85791505Y-51668597D01*
X85655965Y-51862169D01*
X85655964Y-51862171D01*
X85556098Y-52076335D01*
X85556094Y-52076344D01*
X85494938Y-52304586D01*
X85494936Y-52304596D01*
X85474341Y-52539999D01*
X85474341Y-52540000D01*
X85494936Y-52775403D01*
X85494938Y-52775413D01*
X85556094Y-53003655D01*
X85556096Y-53003659D01*
X85556097Y-53003663D01*
X85644887Y-53194074D01*
X85655965Y-53217830D01*
X85655967Y-53217834D01*
X85723466Y-53314232D01*
X85788388Y-53406950D01*
X85791501Y-53411395D01*
X85791506Y-53411402D01*
X85958597Y-53578493D01*
X85958603Y-53578498D01*
X86144158Y-53708425D01*
X86187783Y-53763002D01*
X86194977Y-53832500D01*
X86163454Y-53894855D01*
X86144158Y-53911575D01*
X85958597Y-54041505D01*
X85791505Y-54208597D01*
X85655965Y-54402169D01*
X85655964Y-54402171D01*
X85556098Y-54616335D01*
X85556094Y-54616344D01*
X85494938Y-54844586D01*
X85494936Y-54844596D01*
X85474341Y-55079999D01*
X85474341Y-55080000D01*
X85494936Y-55315403D01*
X85494938Y-55315413D01*
X85556094Y-55543655D01*
X85556096Y-55543659D01*
X85556097Y-55543663D01*
X85645204Y-55734752D01*
X85655965Y-55757830D01*
X85655967Y-55757834D01*
X85733483Y-55868537D01*
X85791501Y-55951396D01*
X85791506Y-55951402D01*
X85913818Y-56073714D01*
X85947303Y-56135037D01*
X85942319Y-56204729D01*
X85900447Y-56260662D01*
X85869471Y-56277577D01*
X85737912Y-56326646D01*
X85737906Y-56326649D01*
X85622812Y-56412809D01*
X85622809Y-56412812D01*
X85536649Y-56527906D01*
X85536645Y-56527913D01*
X85486403Y-56662620D01*
X85486401Y-56662627D01*
X85480000Y-56722155D01*
X85480000Y-57370000D01*
X86384428Y-57370000D01*
X86361318Y-57405960D01*
X86320000Y-57546673D01*
X86320000Y-57693327D01*
X86361318Y-57834040D01*
X86384428Y-57870000D01*
X85480000Y-57870000D01*
X85480000Y-58517844D01*
X85486401Y-58577372D01*
X85486403Y-58577379D01*
X85536645Y-58712086D01*
X85536649Y-58712093D01*
X85622809Y-58827187D01*
X85622812Y-58827190D01*
X85737906Y-58913350D01*
X85737913Y-58913354D01*
X85869470Y-58962421D01*
X85925403Y-59004292D01*
X85949821Y-59069756D01*
X85934970Y-59138029D01*
X85913819Y-59166284D01*
X85791503Y-59288600D01*
X85655965Y-59482169D01*
X85655964Y-59482171D01*
X85556098Y-59696335D01*
X85556094Y-59696344D01*
X85494938Y-59924586D01*
X85494936Y-59924596D01*
X85474341Y-60159999D01*
X85474341Y-60160000D01*
X85494936Y-60395403D01*
X85494938Y-60395413D01*
X85556094Y-60623655D01*
X85556096Y-60623659D01*
X85556097Y-60623663D01*
X85632676Y-60787886D01*
X85655965Y-60837830D01*
X85655967Y-60837834D01*
X85791501Y-61031395D01*
X85791506Y-61031402D01*
X85958597Y-61198493D01*
X85958603Y-61198498D01*
X86144158Y-61328425D01*
X86187783Y-61383002D01*
X86194977Y-61452500D01*
X86163454Y-61514855D01*
X86144158Y-61531575D01*
X85958597Y-61661505D01*
X85791505Y-61828597D01*
X85655965Y-62022169D01*
X85655964Y-62022171D01*
X85556098Y-62236335D01*
X85556094Y-62236344D01*
X85494938Y-62464586D01*
X85494936Y-62464596D01*
X85474341Y-62699999D01*
X85474341Y-62700000D01*
X85494936Y-62935403D01*
X85494938Y-62935413D01*
X85556094Y-63163655D01*
X85556096Y-63163659D01*
X85556097Y-63163663D01*
X85655965Y-63377830D01*
X85655967Y-63377834D01*
X85791501Y-63571395D01*
X85791506Y-63571402D01*
X85958597Y-63738493D01*
X85958603Y-63738498D01*
X86144158Y-63868425D01*
X86187783Y-63923002D01*
X86194977Y-63992500D01*
X86163454Y-64054855D01*
X86144158Y-64071575D01*
X85958597Y-64201505D01*
X85791505Y-64368597D01*
X85655965Y-64562169D01*
X85655964Y-64562171D01*
X85556098Y-64776335D01*
X85556094Y-64776344D01*
X85494938Y-65004586D01*
X85494936Y-65004596D01*
X85474341Y-65239999D01*
X85474341Y-65240000D01*
X85494936Y-65475403D01*
X85494938Y-65475413D01*
X85556094Y-65703655D01*
X85556096Y-65703659D01*
X85556097Y-65703663D01*
X85612980Y-65825648D01*
X85655965Y-65917830D01*
X85655967Y-65917834D01*
X85791501Y-66111395D01*
X85791506Y-66111402D01*
X85958597Y-66278493D01*
X85958603Y-66278498D01*
X86144158Y-66408425D01*
X86187783Y-66463002D01*
X86194977Y-66532500D01*
X86163454Y-66594855D01*
X86144158Y-66611575D01*
X85958597Y-66741505D01*
X85791505Y-66908597D01*
X85655965Y-67102169D01*
X85655964Y-67102171D01*
X85556098Y-67316335D01*
X85556094Y-67316344D01*
X85494938Y-67544586D01*
X85494936Y-67544596D01*
X85474341Y-67779999D01*
X85474341Y-67780000D01*
X85494936Y-68015403D01*
X85494938Y-68015413D01*
X85556094Y-68243655D01*
X85556096Y-68243659D01*
X85556097Y-68243663D01*
X85655965Y-68457830D01*
X85655967Y-68457834D01*
X85764281Y-68612521D01*
X85791501Y-68651396D01*
X85791506Y-68651402D01*
X85913818Y-68773714D01*
X85947303Y-68835037D01*
X85942319Y-68904729D01*
X85900447Y-68960662D01*
X85869471Y-68977577D01*
X85737912Y-69026646D01*
X85737906Y-69026649D01*
X85622812Y-69112809D01*
X85622809Y-69112812D01*
X85536649Y-69227906D01*
X85536645Y-69227913D01*
X85486403Y-69362620D01*
X85486401Y-69362627D01*
X85480000Y-69422155D01*
X85480000Y-70070000D01*
X86384428Y-70070000D01*
X86361318Y-70105960D01*
X86320000Y-70246673D01*
X86320000Y-70393327D01*
X86361318Y-70534040D01*
X86384428Y-70570000D01*
X85480000Y-70570000D01*
X85480000Y-71217844D01*
X85486401Y-71277372D01*
X85486403Y-71277379D01*
X85536645Y-71412086D01*
X85536649Y-71412093D01*
X85622809Y-71527187D01*
X85622812Y-71527190D01*
X85737906Y-71613350D01*
X85737913Y-71613354D01*
X85869470Y-71662421D01*
X85925403Y-71704292D01*
X85949821Y-71769756D01*
X85934970Y-71838029D01*
X85913819Y-71866284D01*
X85791503Y-71988600D01*
X85655965Y-72182169D01*
X85655964Y-72182171D01*
X85556098Y-72396335D01*
X85556094Y-72396344D01*
X85494938Y-72624586D01*
X85494936Y-72624596D01*
X85474341Y-72859999D01*
X85474341Y-72860000D01*
X85494936Y-73095403D01*
X85494938Y-73095413D01*
X85556094Y-73323655D01*
X85556096Y-73323659D01*
X85556097Y-73323663D01*
X85644143Y-73512478D01*
X85655965Y-73537830D01*
X85655967Y-73537834D01*
X85791501Y-73731395D01*
X85791506Y-73731402D01*
X85958597Y-73898493D01*
X85958603Y-73898498D01*
X86144158Y-74028425D01*
X86187783Y-74083002D01*
X86194977Y-74152500D01*
X86163454Y-74214855D01*
X86144158Y-74231575D01*
X85958597Y-74361505D01*
X85791505Y-74528597D01*
X85655965Y-74722169D01*
X85655964Y-74722171D01*
X85556098Y-74936335D01*
X85556094Y-74936344D01*
X85494938Y-75164586D01*
X85494936Y-75164596D01*
X85474341Y-75399999D01*
X85474341Y-75400000D01*
X85494936Y-75635403D01*
X85494938Y-75635413D01*
X85556094Y-75863655D01*
X85556096Y-75863659D01*
X85556097Y-75863663D01*
X85635354Y-76033630D01*
X85655965Y-76077830D01*
X85655967Y-76077834D01*
X85791501Y-76271395D01*
X85791506Y-76271402D01*
X85958597Y-76438493D01*
X85958603Y-76438498D01*
X86144158Y-76568425D01*
X86187783Y-76623002D01*
X86194977Y-76692500D01*
X86163454Y-76754855D01*
X86144158Y-76771575D01*
X85958597Y-76901505D01*
X85791505Y-77068597D01*
X85655965Y-77262169D01*
X85655964Y-77262171D01*
X85556098Y-77476335D01*
X85556094Y-77476344D01*
X85494938Y-77704586D01*
X85494936Y-77704596D01*
X85474341Y-77939999D01*
X85474341Y-77940000D01*
X85494936Y-78175403D01*
X85494938Y-78175413D01*
X85556094Y-78403655D01*
X85556096Y-78403659D01*
X85556097Y-78403663D01*
X85655965Y-78617830D01*
X85655967Y-78617834D01*
X85791501Y-78811395D01*
X85791506Y-78811402D01*
X85958597Y-78978493D01*
X85958603Y-78978498D01*
X86144158Y-79108425D01*
X86187783Y-79163002D01*
X86194977Y-79232500D01*
X86163454Y-79294855D01*
X86144158Y-79311575D01*
X85958597Y-79441505D01*
X85791505Y-79608597D01*
X85655965Y-79802169D01*
X85655964Y-79802171D01*
X85556098Y-80016335D01*
X85556094Y-80016344D01*
X85494938Y-80244586D01*
X85494936Y-80244596D01*
X85474341Y-80479999D01*
X85474341Y-80480000D01*
X85494936Y-80715403D01*
X85494938Y-80715413D01*
X85556094Y-80943655D01*
X85556096Y-80943659D01*
X85556097Y-80943663D01*
X85655965Y-81157830D01*
X85655967Y-81157834D01*
X85764281Y-81312521D01*
X85791501Y-81351396D01*
X85791506Y-81351402D01*
X85913430Y-81473326D01*
X85946915Y-81534649D01*
X85941931Y-81604341D01*
X85900059Y-81660274D01*
X85869083Y-81677189D01*
X85737669Y-81726203D01*
X85737664Y-81726206D01*
X85622455Y-81812452D01*
X85622452Y-81812455D01*
X85536206Y-81927664D01*
X85536202Y-81927671D01*
X85485908Y-82062517D01*
X85479501Y-82122116D01*
X85479501Y-82122123D01*
X85479500Y-82122135D01*
X85479500Y-83917870D01*
X85479501Y-83917876D01*
X85485908Y-83977483D01*
X85536202Y-84112328D01*
X85536206Y-84112335D01*
X85622452Y-84227544D01*
X85622455Y-84227547D01*
X85737664Y-84313793D01*
X85737671Y-84313797D01*
X85869081Y-84362810D01*
X85925015Y-84404681D01*
X85949432Y-84470145D01*
X85934580Y-84538418D01*
X85913430Y-84566673D01*
X85791503Y-84688600D01*
X85655965Y-84882169D01*
X85655964Y-84882171D01*
X85556098Y-85096335D01*
X85556094Y-85096344D01*
X85494938Y-85324586D01*
X85494936Y-85324596D01*
X85474341Y-85559999D01*
X85474341Y-85560000D01*
X85494936Y-85795403D01*
X85494938Y-85795413D01*
X85556094Y-86023655D01*
X85556096Y-86023659D01*
X85556097Y-86023663D01*
X85655965Y-86237830D01*
X85655967Y-86237834D01*
X85791501Y-86431395D01*
X85791506Y-86431402D01*
X85958597Y-86598493D01*
X85958603Y-86598498D01*
X86144158Y-86728425D01*
X86187783Y-86783002D01*
X86194977Y-86852500D01*
X86163454Y-86914855D01*
X86144158Y-86931575D01*
X85958597Y-87061505D01*
X85791505Y-87228597D01*
X85655965Y-87422169D01*
X85655964Y-87422171D01*
X85556098Y-87636335D01*
X85556094Y-87636344D01*
X85494938Y-87864586D01*
X85494936Y-87864596D01*
X85474341Y-88099999D01*
X85474341Y-88100000D01*
X85494936Y-88335403D01*
X85494938Y-88335413D01*
X85556094Y-88563655D01*
X85556096Y-88563659D01*
X85556097Y-88563663D01*
X85655965Y-88777830D01*
X85655967Y-88777834D01*
X85791501Y-88971395D01*
X85791506Y-88971402D01*
X85958597Y-89138493D01*
X85958603Y-89138498D01*
X86144158Y-89268425D01*
X86187783Y-89323002D01*
X86194977Y-89392500D01*
X86163454Y-89454855D01*
X86144158Y-89471575D01*
X85958597Y-89601505D01*
X85791505Y-89768597D01*
X85655965Y-89962169D01*
X85655964Y-89962171D01*
X85556098Y-90176335D01*
X85556094Y-90176344D01*
X85494938Y-90404586D01*
X85494936Y-90404596D01*
X85474341Y-90639999D01*
X85474341Y-90640000D01*
X85494936Y-90875403D01*
X85494938Y-90875413D01*
X85556094Y-91103655D01*
X85556096Y-91103659D01*
X85556097Y-91103663D01*
X85655965Y-91317830D01*
X85655967Y-91317834D01*
X85791501Y-91511395D01*
X85791506Y-91511402D01*
X85958597Y-91678493D01*
X85958603Y-91678498D01*
X86144158Y-91808425D01*
X86187783Y-91863002D01*
X86194977Y-91932500D01*
X86163454Y-91994855D01*
X86144158Y-92011575D01*
X85958597Y-92141505D01*
X85791505Y-92308597D01*
X85655965Y-92502169D01*
X85655964Y-92502171D01*
X85556098Y-92716335D01*
X85556094Y-92716344D01*
X85494938Y-92944586D01*
X85494936Y-92944596D01*
X85474341Y-93179999D01*
X85474341Y-93180000D01*
X85494936Y-93415403D01*
X85494938Y-93415413D01*
X85556094Y-93643655D01*
X85556096Y-93643659D01*
X85556097Y-93643663D01*
X85655965Y-93857830D01*
X85655967Y-93857834D01*
X85764281Y-94012521D01*
X85791501Y-94051396D01*
X85791506Y-94051402D01*
X85913430Y-94173326D01*
X85946915Y-94234649D01*
X85941931Y-94304341D01*
X85900059Y-94360274D01*
X85869083Y-94377189D01*
X85737669Y-94426203D01*
X85737664Y-94426206D01*
X85622455Y-94512452D01*
X85622452Y-94512455D01*
X85536206Y-94627664D01*
X85536202Y-94627671D01*
X85485908Y-94762517D01*
X85483181Y-94787886D01*
X85479501Y-94822123D01*
X85479500Y-94822135D01*
X85479500Y-96617870D01*
X85479501Y-96617876D01*
X85485908Y-96677483D01*
X85536202Y-96812328D01*
X85536206Y-96812335D01*
X85622452Y-96927544D01*
X85622455Y-96927547D01*
X85737664Y-97013793D01*
X85737671Y-97013797D01*
X85869081Y-97062810D01*
X85925015Y-97104681D01*
X85949432Y-97170145D01*
X85934580Y-97238418D01*
X85913430Y-97266673D01*
X85791503Y-97388600D01*
X85655965Y-97582169D01*
X85655964Y-97582171D01*
X85556098Y-97796335D01*
X85556094Y-97796344D01*
X85494938Y-98024586D01*
X85494936Y-98024596D01*
X85474341Y-98259999D01*
X85474341Y-98260000D01*
X85494936Y-98495403D01*
X85494938Y-98495413D01*
X85556094Y-98723655D01*
X85556096Y-98723659D01*
X85556097Y-98723663D01*
X85655965Y-98937830D01*
X85655967Y-98937834D01*
X85791501Y-99131395D01*
X85791506Y-99131402D01*
X85958597Y-99298493D01*
X85958603Y-99298498D01*
X86144158Y-99428425D01*
X86187783Y-99483002D01*
X86194977Y-99552500D01*
X86163454Y-99614855D01*
X86144158Y-99631575D01*
X85958597Y-99761505D01*
X85791505Y-99928597D01*
X85655965Y-100122169D01*
X85655964Y-100122171D01*
X85556098Y-100336335D01*
X85556094Y-100336344D01*
X85494938Y-100564586D01*
X85494936Y-100564596D01*
X85474341Y-100799999D01*
X85474341Y-100800000D01*
X85494936Y-101035403D01*
X85494938Y-101035413D01*
X85556094Y-101263655D01*
X85556096Y-101263659D01*
X85556097Y-101263663D01*
X85651322Y-101467873D01*
X85655965Y-101477830D01*
X85655967Y-101477834D01*
X85747456Y-101608493D01*
X85791505Y-101671401D01*
X85958599Y-101838495D01*
X85994733Y-101863796D01*
X86152165Y-101974032D01*
X86152167Y-101974033D01*
X86152170Y-101974035D01*
X86366337Y-102073903D01*
X86594592Y-102135063D01*
X86782918Y-102151539D01*
X86829999Y-102155659D01*
X86830000Y-102155659D01*
X86830001Y-102155659D01*
X86869234Y-102152226D01*
X87065408Y-102135063D01*
X87293663Y-102073903D01*
X87507830Y-101974035D01*
X87701401Y-101838495D01*
X87868495Y-101671401D01*
X88004035Y-101477830D01*
X88103903Y-101263663D01*
X88165063Y-101035408D01*
X88185659Y-100800000D01*
X88165063Y-100564592D01*
X88103903Y-100336337D01*
X88004035Y-100122171D01*
X87895109Y-99966607D01*
X87868494Y-99928597D01*
X87701402Y-99761506D01*
X87701396Y-99761501D01*
X87515842Y-99631575D01*
X87472217Y-99576998D01*
X87465023Y-99507500D01*
X87496546Y-99445145D01*
X87515842Y-99428425D01*
X87562197Y-99395967D01*
X87701401Y-99298495D01*
X87868495Y-99131401D01*
X88004035Y-98937830D01*
X88103903Y-98723663D01*
X88165063Y-98495408D01*
X88185659Y-98260000D01*
X88165063Y-98024592D01*
X88103903Y-97796337D01*
X88004035Y-97582171D01*
X87868495Y-97388599D01*
X87746567Y-97266671D01*
X87713084Y-97205351D01*
X87718068Y-97135659D01*
X87759939Y-97079725D01*
X87790915Y-97062810D01*
X87922331Y-97013796D01*
X88037546Y-96927546D01*
X88123796Y-96812331D01*
X88174091Y-96677483D01*
X88180500Y-96617873D01*
X88180499Y-94822128D01*
X88174091Y-94762517D01*
X88169424Y-94750005D01*
X88123797Y-94627671D01*
X88123793Y-94627664D01*
X88037547Y-94512455D01*
X88037544Y-94512452D01*
X87922335Y-94426206D01*
X87922328Y-94426202D01*
X87790917Y-94377189D01*
X87734983Y-94335318D01*
X87710566Y-94269853D01*
X87725418Y-94201580D01*
X87746563Y-94173332D01*
X87868495Y-94051401D01*
X88004035Y-93857830D01*
X88103903Y-93643663D01*
X88165063Y-93415408D01*
X88185659Y-93180000D01*
X88165063Y-92944592D01*
X88103903Y-92716337D01*
X88004035Y-92502171D01*
X87868495Y-92308599D01*
X87868494Y-92308597D01*
X87701402Y-92141506D01*
X87701396Y-92141501D01*
X87515842Y-92011575D01*
X87472217Y-91956998D01*
X87465023Y-91887500D01*
X87496546Y-91825145D01*
X87515842Y-91808425D01*
X87538026Y-91792891D01*
X87701401Y-91678495D01*
X87868495Y-91511401D01*
X88004035Y-91317830D01*
X88103903Y-91103663D01*
X88165063Y-90875408D01*
X88185659Y-90640000D01*
X88165063Y-90404592D01*
X88103903Y-90176337D01*
X88004035Y-89962171D01*
X87868495Y-89768599D01*
X87868494Y-89768597D01*
X87701402Y-89601506D01*
X87701396Y-89601501D01*
X87515842Y-89471575D01*
X87472217Y-89416998D01*
X87465023Y-89347500D01*
X87496546Y-89285145D01*
X87515842Y-89268425D01*
X87538026Y-89252891D01*
X87701401Y-89138495D01*
X87868495Y-88971401D01*
X88004035Y-88777830D01*
X88103903Y-88563663D01*
X88165063Y-88335408D01*
X88185659Y-88100000D01*
X95634341Y-88100000D01*
X95654936Y-88335403D01*
X95654938Y-88335413D01*
X95716094Y-88563655D01*
X95716096Y-88563659D01*
X95716097Y-88563663D01*
X95815965Y-88777830D01*
X95815967Y-88777834D01*
X95924281Y-88932521D01*
X95951505Y-88971401D01*
X96118599Y-89138495D01*
X96215384Y-89206265D01*
X96312165Y-89274032D01*
X96312167Y-89274033D01*
X96312170Y-89274035D01*
X96526337Y-89373903D01*
X96754592Y-89435063D01*
X96942918Y-89451539D01*
X96989999Y-89455659D01*
X96990000Y-89455659D01*
X96990001Y-89455659D01*
X97029234Y-89452226D01*
X97225408Y-89435063D01*
X97453663Y-89373903D01*
X97667830Y-89274035D01*
X97861401Y-89138495D01*
X98028495Y-88971401D01*
X98164035Y-88777830D01*
X98263903Y-88563663D01*
X98325063Y-88335408D01*
X98345659Y-88100000D01*
X98325063Y-87864592D01*
X98263903Y-87636337D01*
X98164035Y-87422171D01*
X98028495Y-87228599D01*
X98028494Y-87228597D01*
X97861402Y-87061506D01*
X97861396Y-87061501D01*
X97675842Y-86931575D01*
X97632217Y-86876998D01*
X97625023Y-86807500D01*
X97656546Y-86745145D01*
X97675842Y-86728425D01*
X97698026Y-86712891D01*
X97861401Y-86598495D01*
X98028495Y-86431401D01*
X98164035Y-86237830D01*
X98263903Y-86023663D01*
X98325063Y-85795408D01*
X98345659Y-85560000D01*
X98325063Y-85324592D01*
X98263903Y-85096337D01*
X98164035Y-84882171D01*
X98028495Y-84688599D01*
X97906179Y-84566283D01*
X97872696Y-84504963D01*
X97877680Y-84435271D01*
X97919551Y-84379337D01*
X97950529Y-84362422D01*
X98082086Y-84313354D01*
X98082093Y-84313350D01*
X98197187Y-84227190D01*
X98197190Y-84227187D01*
X98283350Y-84112093D01*
X98283354Y-84112086D01*
X98333596Y-83977379D01*
X98333598Y-83977372D01*
X98339999Y-83917844D01*
X98340000Y-83917827D01*
X98340000Y-83270000D01*
X97423686Y-83270000D01*
X97449493Y-83229844D01*
X97490000Y-83091889D01*
X97490000Y-82948111D01*
X97449493Y-82810156D01*
X97423686Y-82770000D01*
X98340000Y-82770000D01*
X98340000Y-82122172D01*
X98339999Y-82122155D01*
X98333598Y-82062627D01*
X98333596Y-82062620D01*
X98283354Y-81927913D01*
X98283350Y-81927906D01*
X98197190Y-81812812D01*
X98197187Y-81812809D01*
X98082093Y-81726649D01*
X98082086Y-81726645D01*
X97947379Y-81676403D01*
X97947372Y-81676401D01*
X97887844Y-81670000D01*
X97240000Y-81670000D01*
X97240000Y-82584498D01*
X97132315Y-82535320D01*
X97025763Y-82520000D01*
X96954237Y-82520000D01*
X96847685Y-82535320D01*
X96740000Y-82584498D01*
X96740000Y-81670000D01*
X96092155Y-81670000D01*
X96032627Y-81676401D01*
X96032620Y-81676403D01*
X95897913Y-81726645D01*
X95897906Y-81726649D01*
X95782812Y-81812809D01*
X95782809Y-81812812D01*
X95696649Y-81927906D01*
X95696645Y-81927913D01*
X95646403Y-82062620D01*
X95646401Y-82062627D01*
X95640000Y-82122155D01*
X95640000Y-82770000D01*
X96556314Y-82770000D01*
X96530507Y-82810156D01*
X96490000Y-82948111D01*
X96490000Y-83091889D01*
X96530507Y-83229844D01*
X96556314Y-83270000D01*
X95640000Y-83270000D01*
X95640000Y-83917844D01*
X95646401Y-83977372D01*
X95646403Y-83977379D01*
X95696645Y-84112086D01*
X95696649Y-84112093D01*
X95782809Y-84227187D01*
X95782812Y-84227190D01*
X95897906Y-84313350D01*
X95897913Y-84313354D01*
X96029470Y-84362421D01*
X96085403Y-84404292D01*
X96109821Y-84469756D01*
X96094970Y-84538029D01*
X96073819Y-84566284D01*
X95951503Y-84688600D01*
X95815965Y-84882169D01*
X95815964Y-84882171D01*
X95716098Y-85096335D01*
X95716094Y-85096344D01*
X95654938Y-85324586D01*
X95654936Y-85324596D01*
X95634341Y-85559999D01*
X95634341Y-85560000D01*
X95654936Y-85795403D01*
X95654938Y-85795413D01*
X95716094Y-86023655D01*
X95716096Y-86023659D01*
X95716097Y-86023663D01*
X95815965Y-86237830D01*
X95815967Y-86237834D01*
X95951501Y-86431395D01*
X95951506Y-86431402D01*
X96118597Y-86598493D01*
X96118603Y-86598498D01*
X96304158Y-86728425D01*
X96347783Y-86783002D01*
X96354977Y-86852500D01*
X96323454Y-86914855D01*
X96304158Y-86931575D01*
X96118597Y-87061505D01*
X95951505Y-87228597D01*
X95815965Y-87422169D01*
X95815964Y-87422171D01*
X95716098Y-87636335D01*
X95716094Y-87636344D01*
X95654938Y-87864586D01*
X95654936Y-87864596D01*
X95634341Y-88099999D01*
X95634341Y-88100000D01*
X88185659Y-88100000D01*
X88165063Y-87864592D01*
X88103903Y-87636337D01*
X88004035Y-87422171D01*
X87868495Y-87228599D01*
X87868494Y-87228597D01*
X87701402Y-87061506D01*
X87701396Y-87061501D01*
X87515842Y-86931575D01*
X87472217Y-86876998D01*
X87465023Y-86807500D01*
X87496546Y-86745145D01*
X87515842Y-86728425D01*
X87538026Y-86712891D01*
X87701401Y-86598495D01*
X87868495Y-86431401D01*
X88004035Y-86237830D01*
X88103903Y-86023663D01*
X88165063Y-85795408D01*
X88185659Y-85560000D01*
X88165063Y-85324592D01*
X88103903Y-85096337D01*
X88004035Y-84882171D01*
X87868495Y-84688599D01*
X87746567Y-84566671D01*
X87713084Y-84505351D01*
X87718068Y-84435659D01*
X87759939Y-84379725D01*
X87790915Y-84362810D01*
X87922331Y-84313796D01*
X88037546Y-84227546D01*
X88123796Y-84112331D01*
X88174091Y-83977483D01*
X88180500Y-83917873D01*
X88180499Y-82122128D01*
X88174091Y-82062517D01*
X88123884Y-81927906D01*
X88123797Y-81927671D01*
X88123793Y-81927664D01*
X88037547Y-81812455D01*
X88037544Y-81812452D01*
X87922335Y-81726206D01*
X87922328Y-81726202D01*
X87790917Y-81677189D01*
X87734983Y-81635318D01*
X87710566Y-81569853D01*
X87725418Y-81501580D01*
X87746563Y-81473332D01*
X87868495Y-81351401D01*
X88004035Y-81157830D01*
X88103903Y-80943663D01*
X88165063Y-80715408D01*
X88185659Y-80480000D01*
X88165063Y-80244592D01*
X88103903Y-80016337D01*
X88004035Y-79802171D01*
X87995814Y-79790429D01*
X87868494Y-79608597D01*
X87701402Y-79441506D01*
X87701396Y-79441501D01*
X87515842Y-79311575D01*
X87472217Y-79256998D01*
X87465023Y-79187500D01*
X87496546Y-79125145D01*
X87515842Y-79108425D01*
X87538026Y-79092891D01*
X87701401Y-78978495D01*
X87868495Y-78811401D01*
X88004035Y-78617830D01*
X88103903Y-78403663D01*
X88165063Y-78175408D01*
X88185659Y-77940000D01*
X88165063Y-77704592D01*
X88103903Y-77476337D01*
X88004035Y-77262171D01*
X87987613Y-77238717D01*
X87868494Y-77068597D01*
X87701402Y-76901506D01*
X87701396Y-76901501D01*
X87515842Y-76771575D01*
X87472217Y-76716998D01*
X87465023Y-76647500D01*
X87496546Y-76585145D01*
X87515842Y-76568425D01*
X87610321Y-76502270D01*
X87701401Y-76438495D01*
X87868495Y-76271401D01*
X88004035Y-76077830D01*
X88103903Y-75863663D01*
X88165063Y-75635408D01*
X88185659Y-75400000D01*
X88165063Y-75164592D01*
X88103903Y-74936337D01*
X88004035Y-74722171D01*
X87914054Y-74593663D01*
X87868494Y-74528597D01*
X87701402Y-74361506D01*
X87701396Y-74361501D01*
X87515842Y-74231575D01*
X87472217Y-74176998D01*
X87465023Y-74107500D01*
X87496546Y-74045145D01*
X87515842Y-74028425D01*
X87643518Y-73939025D01*
X87701401Y-73898495D01*
X87868495Y-73731401D01*
X87884972Y-73707870D01*
X93189500Y-73707870D01*
X93189501Y-73707876D01*
X93195908Y-73767483D01*
X93246202Y-73902328D01*
X93246206Y-73902335D01*
X93332452Y-74017544D01*
X93332455Y-74017547D01*
X93447664Y-74103793D01*
X93447671Y-74103797D01*
X93582517Y-74154091D01*
X93582516Y-74154091D01*
X93589444Y-74154835D01*
X93642127Y-74160500D01*
X95337872Y-74160499D01*
X95397483Y-74154091D01*
X95532331Y-74103796D01*
X95647546Y-74017546D01*
X95733796Y-73902331D01*
X95784091Y-73767483D01*
X95790500Y-73707873D01*
X95790499Y-73707845D01*
X95790678Y-73704547D01*
X95792183Y-73704627D01*
X95810112Y-73643326D01*
X95862868Y-73597514D01*
X95906465Y-73589981D01*
X96592046Y-72904400D01*
X96604835Y-72985148D01*
X96662359Y-73098045D01*
X96751955Y-73187641D01*
X96864852Y-73245165D01*
X96945599Y-73257953D01*
X96264526Y-73939025D01*
X96337513Y-73990132D01*
X96337521Y-73990136D01*
X96543668Y-74086264D01*
X96543682Y-74086269D01*
X96763389Y-74145139D01*
X96763400Y-74145141D01*
X96989998Y-74164966D01*
X96990002Y-74164966D01*
X97216599Y-74145141D01*
X97216610Y-74145139D01*
X97273110Y-74130000D01*
X100714341Y-74130000D01*
X100734936Y-74365403D01*
X100734938Y-74365413D01*
X100796094Y-74593655D01*
X100796096Y-74593659D01*
X100796097Y-74593663D01*
X100895965Y-74807830D01*
X100895967Y-74807834D01*
X101004281Y-74962521D01*
X101031505Y-75001401D01*
X101198599Y-75168495D01*
X101295384Y-75236265D01*
X101392165Y-75304032D01*
X101392167Y-75304033D01*
X101392170Y-75304035D01*
X101606337Y-75403903D01*
X101834592Y-75465063D01*
X102022918Y-75481539D01*
X102069999Y-75485659D01*
X102070000Y-75485659D01*
X102070001Y-75485659D01*
X102109234Y-75482226D01*
X102305408Y-75465063D01*
X102533663Y-75403903D01*
X102747830Y-75304035D01*
X102941401Y-75168495D01*
X103108495Y-75001401D01*
X103244035Y-74807830D01*
X103343903Y-74593663D01*
X103405063Y-74365408D01*
X103425659Y-74130000D01*
X103423690Y-74107500D01*
X103405740Y-73902331D01*
X103405063Y-73894592D01*
X103343903Y-73666337D01*
X103244035Y-73452171D01*
X103141907Y-73306317D01*
X103108496Y-73258600D01*
X103063449Y-73213553D01*
X102986179Y-73136283D01*
X102952696Y-73074963D01*
X102957680Y-73005271D01*
X102999551Y-72949337D01*
X103030529Y-72932422D01*
X103162086Y-72883354D01*
X103162093Y-72883350D01*
X103277187Y-72797190D01*
X103277190Y-72797187D01*
X103363350Y-72682093D01*
X103363354Y-72682086D01*
X103413596Y-72547379D01*
X103413598Y-72547372D01*
X103419999Y-72487844D01*
X103420000Y-72487827D01*
X103420000Y-71840000D01*
X102503686Y-71840000D01*
X102529493Y-71799844D01*
X102570000Y-71661889D01*
X102570000Y-71518111D01*
X102529493Y-71380156D01*
X102503686Y-71340000D01*
X103420000Y-71340000D01*
X103420000Y-70692172D01*
X103419999Y-70692155D01*
X103413598Y-70632627D01*
X103413596Y-70632620D01*
X103363354Y-70497913D01*
X103363350Y-70497906D01*
X103277190Y-70382812D01*
X103277187Y-70382809D01*
X103162093Y-70296649D01*
X103162086Y-70296645D01*
X103027379Y-70246403D01*
X103027372Y-70246401D01*
X102967844Y-70240000D01*
X102320000Y-70240000D01*
X102320000Y-71154498D01*
X102212315Y-71105320D01*
X102105763Y-71090000D01*
X102034237Y-71090000D01*
X101927685Y-71105320D01*
X101820000Y-71154498D01*
X101820000Y-70240000D01*
X101172155Y-70240000D01*
X101112627Y-70246401D01*
X101112620Y-70246403D01*
X100977913Y-70296645D01*
X100977906Y-70296649D01*
X100862812Y-70382809D01*
X100862809Y-70382812D01*
X100776649Y-70497906D01*
X100776645Y-70497913D01*
X100726403Y-70632620D01*
X100726401Y-70632627D01*
X100720000Y-70692155D01*
X100720000Y-71340000D01*
X101636314Y-71340000D01*
X101610507Y-71380156D01*
X101570000Y-71518111D01*
X101570000Y-71661889D01*
X101610507Y-71799844D01*
X101636314Y-71840000D01*
X100720000Y-71840000D01*
X100720000Y-72487844D01*
X100726401Y-72547372D01*
X100726403Y-72547379D01*
X100776645Y-72682086D01*
X100776649Y-72682093D01*
X100862809Y-72797187D01*
X100862812Y-72797190D01*
X100977906Y-72883350D01*
X100977913Y-72883354D01*
X101109470Y-72932421D01*
X101165403Y-72974292D01*
X101189821Y-73039756D01*
X101174970Y-73108029D01*
X101153819Y-73136284D01*
X101031503Y-73258600D01*
X100895965Y-73452169D01*
X100895964Y-73452171D01*
X100796098Y-73666335D01*
X100796094Y-73666344D01*
X100734938Y-73894586D01*
X100734936Y-73894596D01*
X100714341Y-74129999D01*
X100714341Y-74130000D01*
X97273110Y-74130000D01*
X97436317Y-74086269D01*
X97436331Y-74086264D01*
X97642478Y-73990136D01*
X97715471Y-73939024D01*
X97034400Y-73257953D01*
X97115148Y-73245165D01*
X97228045Y-73187641D01*
X97317641Y-73098045D01*
X97375165Y-72985148D01*
X97387953Y-72904400D01*
X98069024Y-73585471D01*
X98120136Y-73512478D01*
X98216264Y-73306331D01*
X98216269Y-73306317D01*
X98275139Y-73086610D01*
X98275141Y-73086599D01*
X98294966Y-72860002D01*
X98294966Y-72859997D01*
X98275141Y-72633400D01*
X98275139Y-72633389D01*
X98216269Y-72413682D01*
X98216264Y-72413668D01*
X98120136Y-72207521D01*
X98120132Y-72207513D01*
X98069025Y-72134526D01*
X97387953Y-72815598D01*
X97375165Y-72734852D01*
X97317641Y-72621955D01*
X97228045Y-72532359D01*
X97115148Y-72474835D01*
X97034401Y-72462046D01*
X97715472Y-71780974D01*
X97642478Y-71729863D01*
X97436331Y-71633735D01*
X97436317Y-71633730D01*
X97216610Y-71574860D01*
X97216599Y-71574858D01*
X96990002Y-71555034D01*
X96989998Y-71555034D01*
X96763400Y-71574858D01*
X96763389Y-71574860D01*
X96543682Y-71633730D01*
X96543673Y-71633734D01*
X96337516Y-71729866D01*
X96337512Y-71729868D01*
X96264526Y-71780973D01*
X96264526Y-71780974D01*
X96945599Y-72462046D01*
X96864852Y-72474835D01*
X96751955Y-72532359D01*
X96662359Y-72621955D01*
X96604835Y-72734852D01*
X96592046Y-72815598D01*
X95905799Y-72129351D01*
X95856805Y-72119505D01*
X95806622Y-72070889D01*
X95791981Y-72015366D01*
X95790900Y-72015423D01*
X95790854Y-72015429D01*
X95790853Y-72015426D01*
X95790676Y-72015436D01*
X95790499Y-72012135D01*
X95790499Y-72012128D01*
X95784091Y-71952517D01*
X95752073Y-71866673D01*
X95733797Y-71817671D01*
X95733793Y-71817664D01*
X95647547Y-71702455D01*
X95647544Y-71702452D01*
X95532335Y-71616206D01*
X95532328Y-71616202D01*
X95397482Y-71565908D01*
X95397483Y-71565908D01*
X95337883Y-71559501D01*
X95337881Y-71559500D01*
X95337873Y-71559500D01*
X95337864Y-71559500D01*
X93642129Y-71559500D01*
X93642123Y-71559501D01*
X93582516Y-71565908D01*
X93447671Y-71616202D01*
X93447664Y-71616206D01*
X93332455Y-71702452D01*
X93332452Y-71702455D01*
X93246206Y-71817664D01*
X93246202Y-71817671D01*
X93195908Y-71952517D01*
X93189501Y-72012116D01*
X93189501Y-72012123D01*
X93189500Y-72012135D01*
X93189500Y-73707870D01*
X87884972Y-73707870D01*
X88004035Y-73537830D01*
X88103903Y-73323663D01*
X88165063Y-73095408D01*
X88185659Y-72860000D01*
X88165063Y-72624592D01*
X88103903Y-72396337D01*
X88004035Y-72182171D01*
X87967050Y-72129351D01*
X87868496Y-71988600D01*
X87832412Y-71952516D01*
X87746179Y-71866283D01*
X87712696Y-71804963D01*
X87717680Y-71735271D01*
X87759551Y-71679337D01*
X87790529Y-71662422D01*
X87922086Y-71613354D01*
X87922093Y-71613350D01*
X88037187Y-71527190D01*
X88037190Y-71527187D01*
X88123350Y-71412093D01*
X88123354Y-71412086D01*
X88173596Y-71277379D01*
X88173598Y-71277372D01*
X88179999Y-71217844D01*
X88180000Y-71217827D01*
X88180000Y-70570000D01*
X87275572Y-70570000D01*
X87298682Y-70534040D01*
X87340000Y-70393327D01*
X87340000Y-70246673D01*
X87298682Y-70105960D01*
X87275572Y-70070000D01*
X88180000Y-70070000D01*
X88180000Y-69422172D01*
X88179999Y-69422155D01*
X88173598Y-69362627D01*
X88173596Y-69362620D01*
X88123354Y-69227913D01*
X88123350Y-69227906D01*
X88037190Y-69112812D01*
X88037187Y-69112809D01*
X87922093Y-69026649D01*
X87922088Y-69026646D01*
X87790528Y-68977577D01*
X87734595Y-68935705D01*
X87710178Y-68870241D01*
X87725030Y-68801968D01*
X87746175Y-68773720D01*
X87868495Y-68651401D01*
X88004035Y-68457830D01*
X88103903Y-68243663D01*
X88165063Y-68015408D01*
X88185659Y-67780000D01*
X88165063Y-67544592D01*
X88103903Y-67316337D01*
X88004035Y-67102171D01*
X87868495Y-66908599D01*
X87868494Y-66908597D01*
X87701402Y-66741506D01*
X87701396Y-66741501D01*
X87515842Y-66611575D01*
X87472217Y-66556998D01*
X87465023Y-66487500D01*
X87496546Y-66425145D01*
X87515842Y-66408425D01*
X87643518Y-66319025D01*
X87701401Y-66278495D01*
X87868495Y-66111401D01*
X88004035Y-65917830D01*
X88103903Y-65703663D01*
X88165063Y-65475408D01*
X88185659Y-65240001D01*
X93184532Y-65240001D01*
X93204364Y-65466686D01*
X93204366Y-65466697D01*
X93263258Y-65686488D01*
X93263261Y-65686497D01*
X93359431Y-65892732D01*
X93359432Y-65892734D01*
X93489954Y-66079141D01*
X93650858Y-66240045D01*
X93650861Y-66240047D01*
X93837266Y-66370568D01*
X94043504Y-66466739D01*
X94263308Y-66525635D01*
X94425230Y-66539801D01*
X94489998Y-66545468D01*
X94490000Y-66545468D01*
X94490002Y-66545468D01*
X94546673Y-66540509D01*
X94716692Y-66525635D01*
X94936496Y-66466739D01*
X95142734Y-66370568D01*
X95329139Y-66240047D01*
X95490047Y-66079139D01*
X95620568Y-65892734D01*
X95627893Y-65877024D01*
X95674064Y-65824586D01*
X95741257Y-65805433D01*
X95808138Y-65825648D01*
X95852657Y-65877024D01*
X95859864Y-65892480D01*
X95910974Y-65965472D01*
X96592046Y-65284400D01*
X96604835Y-65365148D01*
X96662359Y-65478045D01*
X96751955Y-65567641D01*
X96864852Y-65625165D01*
X96945599Y-65637953D01*
X96264526Y-66319025D01*
X96337513Y-66370132D01*
X96337521Y-66370136D01*
X96543668Y-66466264D01*
X96543682Y-66466269D01*
X96763389Y-66525139D01*
X96763400Y-66525141D01*
X96989998Y-66544966D01*
X96990002Y-66544966D01*
X97216599Y-66525141D01*
X97216610Y-66525139D01*
X97436317Y-66466269D01*
X97436331Y-66466264D01*
X97642478Y-66370136D01*
X97715471Y-66319024D01*
X97034400Y-65637953D01*
X97115148Y-65625165D01*
X97228045Y-65567641D01*
X97317641Y-65478045D01*
X97375165Y-65365148D01*
X97387953Y-65284400D01*
X98069024Y-65965471D01*
X98120136Y-65892478D01*
X98216264Y-65686331D01*
X98216269Y-65686317D01*
X98275139Y-65466610D01*
X98275141Y-65466599D01*
X98294966Y-65240002D01*
X98294966Y-65240000D01*
X100714341Y-65240000D01*
X100734936Y-65475403D01*
X100734938Y-65475413D01*
X100796094Y-65703655D01*
X100796096Y-65703659D01*
X100796097Y-65703663D01*
X100852980Y-65825648D01*
X100895965Y-65917830D01*
X100895967Y-65917834D01*
X100929324Y-65965472D01*
X101031505Y-66111401D01*
X101198599Y-66278495D01*
X101256482Y-66319025D01*
X101392165Y-66414032D01*
X101392167Y-66414033D01*
X101392170Y-66414035D01*
X101606337Y-66513903D01*
X101834592Y-66575063D01*
X102022918Y-66591539D01*
X102069999Y-66595659D01*
X102070000Y-66595659D01*
X102070001Y-66595659D01*
X102109234Y-66592226D01*
X102305408Y-66575063D01*
X102533663Y-66513903D01*
X102747830Y-66414035D01*
X102941401Y-66278495D01*
X103108495Y-66111401D01*
X103244035Y-65917830D01*
X103343903Y-65703663D01*
X103405063Y-65475408D01*
X103425659Y-65240000D01*
X103405063Y-65004592D01*
X103343903Y-64776337D01*
X103244035Y-64562171D01*
X103108495Y-64368599D01*
X102986567Y-64246671D01*
X102953084Y-64185351D01*
X102958068Y-64115659D01*
X102999939Y-64059725D01*
X103030915Y-64042810D01*
X103162331Y-63993796D01*
X103277546Y-63907546D01*
X103363796Y-63792331D01*
X103414091Y-63657483D01*
X103420500Y-63597873D01*
X103420499Y-61802128D01*
X103414091Y-61742517D01*
X103363796Y-61607669D01*
X103363795Y-61607668D01*
X103363793Y-61607664D01*
X103277547Y-61492455D01*
X103277544Y-61492452D01*
X103162335Y-61406206D01*
X103162328Y-61406202D01*
X103027482Y-61355908D01*
X103027483Y-61355908D01*
X102967883Y-61349501D01*
X102967881Y-61349500D01*
X102967873Y-61349500D01*
X102967864Y-61349500D01*
X101172129Y-61349500D01*
X101172123Y-61349501D01*
X101112516Y-61355908D01*
X100977671Y-61406202D01*
X100977664Y-61406206D01*
X100862455Y-61492452D01*
X100862452Y-61492455D01*
X100776206Y-61607664D01*
X100776202Y-61607671D01*
X100725908Y-61742517D01*
X100719501Y-61802116D01*
X100719501Y-61802123D01*
X100719500Y-61802135D01*
X100719500Y-63597870D01*
X100719501Y-63597876D01*
X100725908Y-63657483D01*
X100776202Y-63792328D01*
X100776206Y-63792335D01*
X100862452Y-63907544D01*
X100862455Y-63907547D01*
X100977664Y-63993793D01*
X100977671Y-63993797D01*
X101109081Y-64042810D01*
X101165015Y-64084681D01*
X101189432Y-64150145D01*
X101174580Y-64218418D01*
X101153430Y-64246673D01*
X101031503Y-64368600D01*
X100895965Y-64562169D01*
X100895964Y-64562171D01*
X100796098Y-64776335D01*
X100796094Y-64776344D01*
X100734938Y-65004586D01*
X100734936Y-65004596D01*
X100714341Y-65239999D01*
X100714341Y-65240000D01*
X98294966Y-65240000D01*
X98294966Y-65239997D01*
X98275141Y-65013400D01*
X98275139Y-65013389D01*
X98216269Y-64793682D01*
X98216264Y-64793668D01*
X98120136Y-64587521D01*
X98120132Y-64587513D01*
X98069025Y-64514526D01*
X97387953Y-65195598D01*
X97375165Y-65114852D01*
X97317641Y-65001955D01*
X97228045Y-64912359D01*
X97115148Y-64854835D01*
X97034401Y-64842046D01*
X97715472Y-64160974D01*
X97642478Y-64109863D01*
X97436331Y-64013735D01*
X97436317Y-64013730D01*
X97216610Y-63954860D01*
X97216599Y-63954858D01*
X96990002Y-63935034D01*
X96989998Y-63935034D01*
X96763400Y-63954858D01*
X96763389Y-63954860D01*
X96543682Y-64013730D01*
X96543673Y-64013734D01*
X96337516Y-64109866D01*
X96337512Y-64109868D01*
X96264526Y-64160973D01*
X96264526Y-64160974D01*
X96945599Y-64842046D01*
X96864852Y-64854835D01*
X96751955Y-64912359D01*
X96662359Y-65001955D01*
X96604835Y-65114852D01*
X96592046Y-65195598D01*
X95910974Y-64514526D01*
X95910973Y-64514526D01*
X95859868Y-64587512D01*
X95859867Y-64587514D01*
X95852656Y-64602979D01*
X95806482Y-64655417D01*
X95739288Y-64674567D01*
X95672407Y-64654350D01*
X95627893Y-64602976D01*
X95620568Y-64587266D01*
X95490047Y-64400861D01*
X95490045Y-64400858D01*
X95329141Y-64239954D01*
X95142734Y-64109432D01*
X95142732Y-64109431D01*
X94936497Y-64013261D01*
X94936488Y-64013258D01*
X94716697Y-63954366D01*
X94716693Y-63954365D01*
X94716692Y-63954365D01*
X94716691Y-63954364D01*
X94716686Y-63954364D01*
X94490002Y-63934532D01*
X94489998Y-63934532D01*
X94263313Y-63954364D01*
X94263302Y-63954366D01*
X94043511Y-64013258D01*
X94043502Y-64013261D01*
X93837267Y-64109431D01*
X93837265Y-64109432D01*
X93650858Y-64239954D01*
X93489954Y-64400858D01*
X93359432Y-64587265D01*
X93359431Y-64587267D01*
X93263261Y-64793502D01*
X93263258Y-64793511D01*
X93204366Y-65013302D01*
X93204364Y-65013313D01*
X93184532Y-65239998D01*
X93184532Y-65240001D01*
X88185659Y-65240001D01*
X88185659Y-65240000D01*
X88165063Y-65004592D01*
X88103903Y-64776337D01*
X88004035Y-64562171D01*
X87868495Y-64368599D01*
X87868494Y-64368597D01*
X87701402Y-64201506D01*
X87701396Y-64201501D01*
X87515842Y-64071575D01*
X87472217Y-64016998D01*
X87465023Y-63947500D01*
X87496546Y-63885145D01*
X87515842Y-63868425D01*
X87538026Y-63852891D01*
X87701401Y-63738495D01*
X87868495Y-63571401D01*
X88004035Y-63377830D01*
X88103903Y-63163663D01*
X88165063Y-62935408D01*
X88185659Y-62700000D01*
X88165063Y-62464592D01*
X88103903Y-62236337D01*
X88004035Y-62022171D01*
X87995552Y-62010055D01*
X87868494Y-61828597D01*
X87701402Y-61661506D01*
X87701396Y-61661501D01*
X87515842Y-61531575D01*
X87472217Y-61476998D01*
X87465023Y-61407500D01*
X87496546Y-61345145D01*
X87515842Y-61328425D01*
X87578453Y-61284584D01*
X87701401Y-61198495D01*
X87868495Y-61031401D01*
X88004035Y-60837830D01*
X88103903Y-60623663D01*
X88165063Y-60395408D01*
X88185659Y-60160000D01*
X94464723Y-60160000D01*
X94483188Y-60371066D01*
X94483793Y-60377975D01*
X94483793Y-60377979D01*
X94540422Y-60589322D01*
X94540424Y-60589326D01*
X94540425Y-60589330D01*
X94562676Y-60637047D01*
X94632897Y-60787638D01*
X94632898Y-60787639D01*
X94758402Y-60966877D01*
X94913123Y-61121598D01*
X95092361Y-61247102D01*
X95290670Y-61339575D01*
X95502023Y-61396207D01*
X95684926Y-61412208D01*
X95719998Y-61415277D01*
X95720000Y-61415277D01*
X95720002Y-61415277D01*
X95748254Y-61412805D01*
X95937977Y-61396207D01*
X96149330Y-61339575D01*
X96347639Y-61247102D01*
X96526877Y-61121598D01*
X96681598Y-60966877D01*
X96807102Y-60787639D01*
X96899575Y-60589330D01*
X96956207Y-60377977D01*
X96975277Y-60160000D01*
X96956207Y-59942023D01*
X96899575Y-59730670D01*
X96807102Y-59532362D01*
X96807100Y-59532359D01*
X96807099Y-59532357D01*
X96681599Y-59353124D01*
X96617074Y-59288599D01*
X96526877Y-59198402D01*
X96347639Y-59072898D01*
X96196414Y-59002381D01*
X96143977Y-58956210D01*
X96124825Y-58889016D01*
X96145041Y-58822135D01*
X96196414Y-58777618D01*
X96347639Y-58707102D01*
X96526877Y-58581598D01*
X96681598Y-58426877D01*
X96807102Y-58247639D01*
X96899575Y-58049330D01*
X96956207Y-57837977D01*
X96975277Y-57620000D01*
X96956207Y-57402023D01*
X96899575Y-57190670D01*
X96807102Y-56992362D01*
X96807100Y-56992359D01*
X96807099Y-56992357D01*
X96681599Y-56813124D01*
X96616456Y-56747981D01*
X96526877Y-56658402D01*
X96380733Y-56556071D01*
X96337112Y-56501497D01*
X96329919Y-56431998D01*
X96361441Y-56369644D01*
X96421671Y-56334230D01*
X96451859Y-56330499D01*
X96517872Y-56330499D01*
X96577483Y-56324091D01*
X96712331Y-56273796D01*
X96827546Y-56187546D01*
X96913796Y-56072331D01*
X96964091Y-55937483D01*
X96970500Y-55877873D01*
X96970499Y-54282128D01*
X96964091Y-54222517D01*
X96958899Y-54208597D01*
X96913797Y-54087671D01*
X96913793Y-54087664D01*
X96827547Y-53972455D01*
X96827544Y-53972452D01*
X96712335Y-53886206D01*
X96712328Y-53886202D01*
X96689702Y-53877763D01*
X104145787Y-53877763D01*
X104175413Y-54147013D01*
X104175415Y-54147024D01*
X104243926Y-54409082D01*
X104243928Y-54409088D01*
X104349870Y-54658390D01*
X104452539Y-54826619D01*
X104490979Y-54889605D01*
X104490986Y-54889615D01*
X104664253Y-55097819D01*
X104664259Y-55097824D01*
X104710239Y-55139022D01*
X104865998Y-55278582D01*
X105091910Y-55428044D01*
X105337176Y-55543020D01*
X105337183Y-55543022D01*
X105337185Y-55543023D01*
X105596557Y-55621057D01*
X105596564Y-55621058D01*
X105596569Y-55621060D01*
X105864561Y-55660500D01*
X105864566Y-55660500D01*
X106067629Y-55660500D01*
X106067631Y-55660500D01*
X106067636Y-55660499D01*
X106067648Y-55660499D01*
X106105191Y-55657750D01*
X106270156Y-55645677D01*
X106397109Y-55617397D01*
X106534546Y-55586782D01*
X106534548Y-55586781D01*
X106534553Y-55586780D01*
X106787558Y-55490014D01*
X107023777Y-55357441D01*
X107238177Y-55191888D01*
X107426186Y-54996881D01*
X107583799Y-54776579D01*
X107657787Y-54632669D01*
X107707649Y-54535690D01*
X107707651Y-54535684D01*
X107707656Y-54535675D01*
X107795118Y-54279305D01*
X107844319Y-54012933D01*
X107854212Y-53742235D01*
X107824586Y-53472982D01*
X107756072Y-53210912D01*
X107650130Y-52961610D01*
X107509018Y-52730390D01*
X107507845Y-52728981D01*
X107335746Y-52522180D01*
X107335740Y-52522175D01*
X107134002Y-52341418D01*
X106908092Y-52191957D01*
X106908090Y-52191956D01*
X106662824Y-52076980D01*
X106662819Y-52076978D01*
X106662814Y-52076976D01*
X106403442Y-51998942D01*
X106403428Y-51998939D01*
X106287791Y-51981921D01*
X106135439Y-51959500D01*
X105932369Y-51959500D01*
X105932351Y-51959500D01*
X105729844Y-51974323D01*
X105729831Y-51974325D01*
X105465453Y-52033217D01*
X105465446Y-52033220D01*
X105212439Y-52129987D01*
X104976226Y-52262557D01*
X104761822Y-52428112D01*
X104573822Y-52623109D01*
X104573816Y-52623116D01*
X104416202Y-52843419D01*
X104416199Y-52843424D01*
X104292350Y-53084309D01*
X104292343Y-53084327D01*
X104204884Y-53340685D01*
X104204881Y-53340699D01*
X104189921Y-53421693D01*
X104160959Y-53578495D01*
X104155681Y-53607068D01*
X104155680Y-53607075D01*
X104145787Y-53877763D01*
X96689702Y-53877763D01*
X96577482Y-53835908D01*
X96577483Y-53835908D01*
X96517883Y-53829501D01*
X96517881Y-53829500D01*
X96517873Y-53829500D01*
X96517864Y-53829500D01*
X94922129Y-53829500D01*
X94922123Y-53829501D01*
X94862516Y-53835908D01*
X94727671Y-53886202D01*
X94727664Y-53886206D01*
X94612455Y-53972452D01*
X94612452Y-53972455D01*
X94526206Y-54087664D01*
X94526202Y-54087671D01*
X94475908Y-54222517D01*
X94469804Y-54279300D01*
X94469501Y-54282123D01*
X94469500Y-54282135D01*
X94469500Y-55877870D01*
X94469501Y-55877876D01*
X94475908Y-55937483D01*
X94526202Y-56072328D01*
X94526206Y-56072335D01*
X94612452Y-56187544D01*
X94612455Y-56187547D01*
X94727664Y-56273793D01*
X94727671Y-56273797D01*
X94862517Y-56324091D01*
X94862516Y-56324091D01*
X94869444Y-56324835D01*
X94922127Y-56330500D01*
X94988139Y-56330499D01*
X95055176Y-56350183D01*
X95100932Y-56402986D01*
X95110876Y-56472144D01*
X95081852Y-56535700D01*
X95059262Y-56556074D01*
X94913118Y-56658405D01*
X94758402Y-56813121D01*
X94632900Y-56992357D01*
X94632898Y-56992361D01*
X94540426Y-57190668D01*
X94540422Y-57190677D01*
X94483793Y-57402020D01*
X94483793Y-57402024D01*
X94464723Y-57619997D01*
X94464723Y-57620002D01*
X94483793Y-57837975D01*
X94483793Y-57837979D01*
X94540422Y-58049322D01*
X94540424Y-58049326D01*
X94540425Y-58049330D01*
X94542347Y-58053451D01*
X94632897Y-58247638D01*
X94632898Y-58247639D01*
X94758402Y-58426877D01*
X94913123Y-58581598D01*
X95092360Y-58707101D01*
X95092361Y-58707102D01*
X95243583Y-58777618D01*
X95296022Y-58823790D01*
X95315174Y-58890984D01*
X95294958Y-58957865D01*
X95243583Y-59002382D01*
X95092361Y-59072898D01*
X95092357Y-59072900D01*
X94913121Y-59198402D01*
X94758402Y-59353121D01*
X94632900Y-59532357D01*
X94632898Y-59532361D01*
X94540426Y-59730668D01*
X94540422Y-59730677D01*
X94483793Y-59942020D01*
X94483793Y-59942023D01*
X94464723Y-60160000D01*
X88185659Y-60160000D01*
X88165063Y-59924592D01*
X88103903Y-59696337D01*
X88004035Y-59482171D01*
X87926637Y-59371635D01*
X87868496Y-59288600D01*
X87829896Y-59250000D01*
X87746179Y-59166283D01*
X87712696Y-59104963D01*
X87717680Y-59035271D01*
X87759551Y-58979337D01*
X87790529Y-58962422D01*
X87922086Y-58913354D01*
X87922093Y-58913350D01*
X88037187Y-58827190D01*
X88037190Y-58827187D01*
X88123350Y-58712093D01*
X88123354Y-58712086D01*
X88173596Y-58577379D01*
X88173598Y-58577372D01*
X88179999Y-58517844D01*
X88180000Y-58517827D01*
X88180000Y-57870000D01*
X87275572Y-57870000D01*
X87298682Y-57834040D01*
X87340000Y-57693327D01*
X87340000Y-57546673D01*
X87298682Y-57405960D01*
X87275572Y-57370000D01*
X88180000Y-57370000D01*
X88180000Y-56722172D01*
X88179999Y-56722155D01*
X88173598Y-56662627D01*
X88173596Y-56662620D01*
X88123354Y-56527913D01*
X88123350Y-56527906D01*
X88037190Y-56412812D01*
X88037187Y-56412809D01*
X87922093Y-56326649D01*
X87922088Y-56326646D01*
X87790528Y-56277577D01*
X87734595Y-56235705D01*
X87710178Y-56170241D01*
X87725030Y-56101968D01*
X87746175Y-56073720D01*
X87868495Y-55951401D01*
X88004035Y-55757830D01*
X88103903Y-55543663D01*
X88165063Y-55315408D01*
X88185659Y-55080000D01*
X88165063Y-54844592D01*
X88113463Y-54652017D01*
X88103905Y-54616344D01*
X88103904Y-54616343D01*
X88103903Y-54616337D01*
X88004035Y-54402171D01*
X87919986Y-54282135D01*
X87868494Y-54208597D01*
X87701402Y-54041506D01*
X87701396Y-54041501D01*
X87515842Y-53911575D01*
X87472217Y-53856998D01*
X87465023Y-53787500D01*
X87496546Y-53725145D01*
X87515842Y-53708425D01*
X87598170Y-53650778D01*
X87701401Y-53578495D01*
X87868495Y-53411401D01*
X88004035Y-53217830D01*
X88103903Y-53003663D01*
X88165063Y-52775408D01*
X88185659Y-52540000D01*
X88184099Y-52522175D01*
X88178990Y-52463778D01*
X88165063Y-52304592D01*
X88103903Y-52076337D01*
X88004035Y-51862171D01*
X87979196Y-51826696D01*
X87868494Y-51668597D01*
X87701402Y-51501506D01*
X87701395Y-51501501D01*
X87698297Y-51499332D01*
X87662111Y-51473994D01*
X87507834Y-51365967D01*
X87507830Y-51365965D01*
X87468502Y-51347626D01*
X87293663Y-51266097D01*
X87293659Y-51266096D01*
X87293655Y-51266094D01*
X87210356Y-51243775D01*
X87150695Y-51207410D01*
X87120166Y-51144563D01*
X87128461Y-51075188D01*
X87172946Y-51021310D01*
X87239498Y-51000035D01*
X87242449Y-51000000D01*
X108876000Y-51000000D01*
X108943039Y-51019685D01*
X108988794Y-51072489D01*
X109000000Y-51124000D01*
X109000000Y-118876000D01*
X108980315Y-118943039D01*
X108927511Y-118988794D01*
X108876000Y-119000000D01*
X51124000Y-119000000D01*
X51056961Y-118980315D01*
X51011206Y-118927511D01*
X51000000Y-118876000D01*
X51000000Y-116067763D01*
X52145787Y-116067763D01*
X52175413Y-116337013D01*
X52175415Y-116337024D01*
X52243926Y-116599082D01*
X52243928Y-116599088D01*
X52349870Y-116848390D01*
X52421998Y-116966575D01*
X52490979Y-117079605D01*
X52490986Y-117079615D01*
X52664253Y-117287819D01*
X52664259Y-117287824D01*
X52865998Y-117468582D01*
X53091910Y-117618044D01*
X53337176Y-117733020D01*
X53337183Y-117733022D01*
X53337185Y-117733023D01*
X53596557Y-117811057D01*
X53596564Y-117811058D01*
X53596569Y-117811060D01*
X53864561Y-117850500D01*
X53864566Y-117850500D01*
X54067629Y-117850500D01*
X54067631Y-117850500D01*
X54067636Y-117850499D01*
X54067648Y-117850499D01*
X54105191Y-117847750D01*
X54270156Y-117835677D01*
X54382758Y-117810593D01*
X54534546Y-117776782D01*
X54534548Y-117776781D01*
X54534553Y-117776780D01*
X54787558Y-117680014D01*
X55023777Y-117547441D01*
X55238177Y-117381888D01*
X55426186Y-117186881D01*
X55583799Y-116966579D01*
X55657787Y-116822669D01*
X55707649Y-116725690D01*
X55707651Y-116725684D01*
X55707656Y-116725675D01*
X55795118Y-116469305D01*
X55844319Y-116202933D01*
X55849259Y-116067763D01*
X104145787Y-116067763D01*
X104175413Y-116337013D01*
X104175415Y-116337024D01*
X104243926Y-116599082D01*
X104243928Y-116599088D01*
X104349870Y-116848390D01*
X104421998Y-116966575D01*
X104490979Y-117079605D01*
X104490986Y-117079615D01*
X104664253Y-117287819D01*
X104664259Y-117287824D01*
X104865998Y-117468582D01*
X105091910Y-117618044D01*
X105337176Y-117733020D01*
X105337183Y-117733022D01*
X105337185Y-117733023D01*
X105596557Y-117811057D01*
X105596564Y-117811058D01*
X105596569Y-117811060D01*
X105864561Y-117850500D01*
X105864566Y-117850500D01*
X106067629Y-117850500D01*
X106067631Y-117850500D01*
X106067636Y-117850499D01*
X106067648Y-117850499D01*
X106105191Y-117847750D01*
X106270156Y-117835677D01*
X106382758Y-117810593D01*
X106534546Y-117776782D01*
X106534548Y-117776781D01*
X106534553Y-117776780D01*
X106787558Y-117680014D01*
X107023777Y-117547441D01*
X107238177Y-117381888D01*
X107426186Y-117186881D01*
X107583799Y-116966579D01*
X107657787Y-116822669D01*
X107707649Y-116725690D01*
X107707651Y-116725684D01*
X107707656Y-116725675D01*
X107795118Y-116469305D01*
X107844319Y-116202933D01*
X107854212Y-115932235D01*
X107824586Y-115662982D01*
X107756072Y-115400912D01*
X107650130Y-115151610D01*
X107509018Y-114920390D01*
X107419747Y-114813119D01*
X107335746Y-114712180D01*
X107335740Y-114712175D01*
X107134002Y-114531418D01*
X106908092Y-114381957D01*
X106908090Y-114381956D01*
X106662824Y-114266980D01*
X106662819Y-114266978D01*
X106662814Y-114266976D01*
X106403442Y-114188942D01*
X106403428Y-114188939D01*
X106287791Y-114171921D01*
X106135439Y-114149500D01*
X105932369Y-114149500D01*
X105932351Y-114149500D01*
X105729844Y-114164323D01*
X105729831Y-114164325D01*
X105465453Y-114223217D01*
X105465446Y-114223220D01*
X105212439Y-114319987D01*
X104976226Y-114452557D01*
X104761822Y-114618112D01*
X104573822Y-114813109D01*
X104573816Y-114813116D01*
X104416202Y-115033419D01*
X104416199Y-115033424D01*
X104292350Y-115274309D01*
X104292343Y-115274327D01*
X104204884Y-115530685D01*
X104204881Y-115530699D01*
X104155681Y-115797068D01*
X104155680Y-115797075D01*
X104145787Y-116067763D01*
X55849259Y-116067763D01*
X55854212Y-115932235D01*
X55824586Y-115662982D01*
X55756072Y-115400912D01*
X55650130Y-115151610D01*
X55509018Y-114920390D01*
X55419747Y-114813119D01*
X55335746Y-114712180D01*
X55335740Y-114712175D01*
X55134002Y-114531418D01*
X54908092Y-114381957D01*
X54908090Y-114381956D01*
X54662824Y-114266980D01*
X54662819Y-114266978D01*
X54662814Y-114266976D01*
X54403442Y-114188942D01*
X54403428Y-114188939D01*
X54287791Y-114171921D01*
X54135439Y-114149500D01*
X53932369Y-114149500D01*
X53932351Y-114149500D01*
X53729844Y-114164323D01*
X53729831Y-114164325D01*
X53465453Y-114223217D01*
X53465446Y-114223220D01*
X53212439Y-114319987D01*
X52976226Y-114452557D01*
X52761822Y-114618112D01*
X52573822Y-114813109D01*
X52573816Y-114813116D01*
X52416202Y-115033419D01*
X52416199Y-115033424D01*
X52292350Y-115274309D01*
X52292343Y-115274327D01*
X52204884Y-115530685D01*
X52204881Y-115530699D01*
X52155681Y-115797068D01*
X52155680Y-115797075D01*
X52145787Y-116067763D01*
X51000000Y-116067763D01*
X51000000Y-113515000D01*
X62639341Y-113515000D01*
X62659936Y-113750403D01*
X62659938Y-113750413D01*
X62721094Y-113978655D01*
X62721096Y-113978659D01*
X62721097Y-113978663D01*
X62725862Y-113988881D01*
X62820965Y-114192830D01*
X62820967Y-114192834D01*
X62872885Y-114266980D01*
X62956505Y-114386401D01*
X63123599Y-114553495D01*
X63201066Y-114607738D01*
X63317165Y-114689032D01*
X63317167Y-114689033D01*
X63317170Y-114689035D01*
X63531337Y-114788903D01*
X63759592Y-114850063D01*
X63947918Y-114866539D01*
X63994999Y-114870659D01*
X63995000Y-114870659D01*
X63995001Y-114870659D01*
X64034234Y-114867226D01*
X64230408Y-114850063D01*
X64458663Y-114788903D01*
X64672830Y-114689035D01*
X64866401Y-114553495D01*
X65033495Y-114386401D01*
X65169035Y-114192830D01*
X65268903Y-113978663D01*
X65330063Y-113750408D01*
X65350659Y-113515000D01*
X65349347Y-113500005D01*
X84054357Y-113500005D01*
X84074890Y-113747812D01*
X84074892Y-113747824D01*
X84135936Y-113988881D01*
X84235826Y-114216606D01*
X84371833Y-114424782D01*
X84371836Y-114424785D01*
X84540256Y-114607738D01*
X84736491Y-114760474D01*
X84955190Y-114878828D01*
X85190386Y-114959571D01*
X85435665Y-115000500D01*
X85684335Y-115000500D01*
X85929614Y-114959571D01*
X86164810Y-114878828D01*
X86383509Y-114760474D01*
X86579744Y-114607738D01*
X86748164Y-114424785D01*
X86884173Y-114216607D01*
X86984063Y-113988881D01*
X87045108Y-113747821D01*
X87064400Y-113515000D01*
X91849341Y-113515000D01*
X91869936Y-113750403D01*
X91869938Y-113750413D01*
X91931094Y-113978655D01*
X91931096Y-113978659D01*
X91931097Y-113978663D01*
X91935862Y-113988881D01*
X92030965Y-114192830D01*
X92030967Y-114192834D01*
X92082885Y-114266980D01*
X92166505Y-114386401D01*
X92333599Y-114553495D01*
X92411066Y-114607738D01*
X92527165Y-114689032D01*
X92527167Y-114689033D01*
X92527170Y-114689035D01*
X92741337Y-114788903D01*
X92969592Y-114850063D01*
X93157918Y-114866539D01*
X93204999Y-114870659D01*
X93205000Y-114870659D01*
X93205001Y-114870659D01*
X93244234Y-114867226D01*
X93440408Y-114850063D01*
X93668663Y-114788903D01*
X93882830Y-114689035D01*
X94076401Y-114553495D01*
X94243495Y-114386401D01*
X94379035Y-114192830D01*
X94478903Y-113978663D01*
X94540063Y-113750408D01*
X94560659Y-113515000D01*
X94540063Y-113279592D01*
X94478903Y-113051337D01*
X94379035Y-112837171D01*
X94341380Y-112783393D01*
X94243494Y-112643597D01*
X94076402Y-112476506D01*
X94076396Y-112476501D01*
X93890842Y-112346575D01*
X93847217Y-112291998D01*
X93840023Y-112222500D01*
X93871546Y-112160145D01*
X93890842Y-112143425D01*
X94037935Y-112040429D01*
X94076401Y-112013495D01*
X94243495Y-111846401D01*
X94379035Y-111652830D01*
X94478903Y-111438663D01*
X94540063Y-111210408D01*
X94560659Y-110975000D01*
X94540063Y-110739592D01*
X94478903Y-110511337D01*
X94379035Y-110297171D01*
X94243495Y-110103599D01*
X94121179Y-109981283D01*
X94087696Y-109919963D01*
X94092680Y-109850271D01*
X94134551Y-109794337D01*
X94165529Y-109777422D01*
X94297086Y-109728354D01*
X94297093Y-109728350D01*
X94412187Y-109642190D01*
X94412190Y-109642187D01*
X94498350Y-109527093D01*
X94498354Y-109527086D01*
X94548596Y-109392379D01*
X94548598Y-109392372D01*
X94554999Y-109332844D01*
X94555000Y-109332827D01*
X94555000Y-108685000D01*
X93638686Y-108685000D01*
X93664493Y-108644844D01*
X93705000Y-108506889D01*
X93705000Y-108363111D01*
X93664493Y-108225156D01*
X93638686Y-108185000D01*
X94555000Y-108185000D01*
X94555000Y-107537172D01*
X94554999Y-107537155D01*
X94548598Y-107477627D01*
X94548596Y-107477620D01*
X94498354Y-107342913D01*
X94498350Y-107342906D01*
X94412190Y-107227812D01*
X94412187Y-107227809D01*
X94297093Y-107141649D01*
X94297086Y-107141645D01*
X94162379Y-107091403D01*
X94162372Y-107091401D01*
X94102844Y-107085000D01*
X93455000Y-107085000D01*
X93455000Y-107999498D01*
X93347315Y-107950320D01*
X93240763Y-107935000D01*
X93169237Y-107935000D01*
X93062685Y-107950320D01*
X92955000Y-107999498D01*
X92955000Y-107085000D01*
X92307155Y-107085000D01*
X92247627Y-107091401D01*
X92247620Y-107091403D01*
X92112913Y-107141645D01*
X92112906Y-107141649D01*
X91997812Y-107227809D01*
X91997809Y-107227812D01*
X91911649Y-107342906D01*
X91911645Y-107342913D01*
X91861403Y-107477620D01*
X91861401Y-107477627D01*
X91855000Y-107537155D01*
X91855000Y-108185000D01*
X92771314Y-108185000D01*
X92745507Y-108225156D01*
X92705000Y-108363111D01*
X92705000Y-108506889D01*
X92745507Y-108644844D01*
X92771314Y-108685000D01*
X91855000Y-108685000D01*
X91855000Y-109332844D01*
X91861401Y-109392372D01*
X91861403Y-109392379D01*
X91911645Y-109527086D01*
X91911649Y-109527093D01*
X91997809Y-109642187D01*
X91997812Y-109642190D01*
X92112906Y-109728350D01*
X92112913Y-109728354D01*
X92244470Y-109777421D01*
X92300403Y-109819292D01*
X92324821Y-109884756D01*
X92309970Y-109953029D01*
X92288819Y-109981284D01*
X92166503Y-110103600D01*
X92030965Y-110297169D01*
X92030964Y-110297171D01*
X91931098Y-110511335D01*
X91931094Y-110511344D01*
X91869938Y-110739586D01*
X91869936Y-110739596D01*
X91849341Y-110974999D01*
X91849341Y-110975000D01*
X91869936Y-111210403D01*
X91869938Y-111210413D01*
X91931094Y-111438655D01*
X91931096Y-111438659D01*
X91931097Y-111438663D01*
X92030965Y-111652830D01*
X92030967Y-111652834D01*
X92166501Y-111846395D01*
X92166506Y-111846402D01*
X92333597Y-112013493D01*
X92333603Y-112013498D01*
X92519158Y-112143425D01*
X92562783Y-112198002D01*
X92569977Y-112267500D01*
X92538454Y-112329855D01*
X92519158Y-112346575D01*
X92333597Y-112476505D01*
X92166505Y-112643597D01*
X92030965Y-112837169D01*
X92030964Y-112837171D01*
X91931098Y-113051335D01*
X91931094Y-113051344D01*
X91869938Y-113279586D01*
X91869936Y-113279596D01*
X91849341Y-113514999D01*
X91849341Y-113515000D01*
X87064400Y-113515000D01*
X87065643Y-113500005D01*
X87065643Y-113499994D01*
X87045109Y-113252187D01*
X87045107Y-113252175D01*
X86984063Y-113011118D01*
X86884173Y-112783393D01*
X86748166Y-112575217D01*
X86657291Y-112476501D01*
X86579744Y-112392262D01*
X86383509Y-112239526D01*
X86383507Y-112239525D01*
X86383506Y-112239524D01*
X86164811Y-112121172D01*
X86164802Y-112121169D01*
X85929616Y-112040429D01*
X85684335Y-111999500D01*
X85435665Y-111999500D01*
X85190383Y-112040429D01*
X84955197Y-112121169D01*
X84955188Y-112121172D01*
X84736493Y-112239524D01*
X84540257Y-112392261D01*
X84371833Y-112575217D01*
X84235826Y-112783393D01*
X84135936Y-113011118D01*
X84074892Y-113252175D01*
X84074890Y-113252187D01*
X84054357Y-113499994D01*
X84054357Y-113500005D01*
X65349347Y-113500005D01*
X65330063Y-113279592D01*
X65268903Y-113051337D01*
X65169035Y-112837171D01*
X65131380Y-112783393D01*
X65033494Y-112643597D01*
X64866402Y-112476506D01*
X64866396Y-112476501D01*
X64680842Y-112346575D01*
X64637217Y-112291998D01*
X64630023Y-112222500D01*
X64661546Y-112160145D01*
X64680842Y-112143425D01*
X64827935Y-112040429D01*
X64866401Y-112013495D01*
X65033495Y-111846401D01*
X65169035Y-111652830D01*
X65268903Y-111438663D01*
X65330063Y-111210408D01*
X65350659Y-110975000D01*
X65330063Y-110739592D01*
X65268903Y-110511337D01*
X65169035Y-110297171D01*
X65033495Y-110103599D01*
X64911179Y-109981283D01*
X64877696Y-109919963D01*
X64882680Y-109850271D01*
X64924551Y-109794337D01*
X64955529Y-109777422D01*
X65087086Y-109728354D01*
X65087093Y-109728350D01*
X65202187Y-109642190D01*
X65202190Y-109642187D01*
X65288350Y-109527093D01*
X65288354Y-109527086D01*
X65338596Y-109392379D01*
X65338598Y-109392372D01*
X65344999Y-109332844D01*
X65345000Y-109332827D01*
X65345000Y-108685000D01*
X64428686Y-108685000D01*
X64454493Y-108644844D01*
X64495000Y-108506889D01*
X64495000Y-108363111D01*
X64454493Y-108225156D01*
X64428686Y-108185000D01*
X65345000Y-108185000D01*
X65345000Y-107537172D01*
X65344999Y-107537155D01*
X65338598Y-107477627D01*
X65338596Y-107477620D01*
X65288354Y-107342913D01*
X65288350Y-107342906D01*
X65202190Y-107227812D01*
X65202187Y-107227809D01*
X65087093Y-107141649D01*
X65087086Y-107141645D01*
X64952379Y-107091403D01*
X64952372Y-107091401D01*
X64892844Y-107085000D01*
X64245000Y-107085000D01*
X64245000Y-107999498D01*
X64137315Y-107950320D01*
X64030763Y-107935000D01*
X63959237Y-107935000D01*
X63852685Y-107950320D01*
X63745000Y-107999498D01*
X63745000Y-107085000D01*
X63097155Y-107085000D01*
X63037627Y-107091401D01*
X63037620Y-107091403D01*
X62902913Y-107141645D01*
X62902906Y-107141649D01*
X62787812Y-107227809D01*
X62787809Y-107227812D01*
X62701649Y-107342906D01*
X62701645Y-107342913D01*
X62651403Y-107477620D01*
X62651401Y-107477627D01*
X62645000Y-107537155D01*
X62645000Y-108185000D01*
X63561314Y-108185000D01*
X63535507Y-108225156D01*
X63495000Y-108363111D01*
X63495000Y-108506889D01*
X63535507Y-108644844D01*
X63561314Y-108685000D01*
X62645000Y-108685000D01*
X62645000Y-109332844D01*
X62651401Y-109392372D01*
X62651403Y-109392379D01*
X62701645Y-109527086D01*
X62701649Y-109527093D01*
X62787809Y-109642187D01*
X62787812Y-109642190D01*
X62902906Y-109728350D01*
X62902913Y-109728354D01*
X63034470Y-109777421D01*
X63090403Y-109819292D01*
X63114821Y-109884756D01*
X63099970Y-109953029D01*
X63078819Y-109981284D01*
X62956503Y-110103600D01*
X62820965Y-110297169D01*
X62820964Y-110297171D01*
X62721098Y-110511335D01*
X62721094Y-110511344D01*
X62659938Y-110739586D01*
X62659936Y-110739596D01*
X62639341Y-110974999D01*
X62639341Y-110975000D01*
X62659936Y-111210403D01*
X62659938Y-111210413D01*
X62721094Y-111438655D01*
X62721096Y-111438659D01*
X62721097Y-111438663D01*
X62820965Y-111652830D01*
X62820967Y-111652834D01*
X62956501Y-111846395D01*
X62956506Y-111846402D01*
X63123597Y-112013493D01*
X63123603Y-112013498D01*
X63309158Y-112143425D01*
X63352783Y-112198002D01*
X63359977Y-112267500D01*
X63328454Y-112329855D01*
X63309158Y-112346575D01*
X63123597Y-112476505D01*
X62956505Y-112643597D01*
X62820965Y-112837169D01*
X62820964Y-112837171D01*
X62721098Y-113051335D01*
X62721094Y-113051344D01*
X62659938Y-113279586D01*
X62659936Y-113279596D01*
X62639341Y-113514999D01*
X62639341Y-113515000D01*
X51000000Y-113515000D01*
X51000000Y-99250005D01*
X53244357Y-99250005D01*
X53264890Y-99497812D01*
X53264892Y-99497824D01*
X53325936Y-99738881D01*
X53425826Y-99966606D01*
X53561833Y-100174782D01*
X53561836Y-100174785D01*
X53730256Y-100357738D01*
X53926491Y-100510474D01*
X54145190Y-100628828D01*
X54380386Y-100709571D01*
X54625665Y-100750500D01*
X54874335Y-100750500D01*
X55119614Y-100709571D01*
X55354810Y-100628828D01*
X55573509Y-100510474D01*
X55769744Y-100357738D01*
X55938164Y-100174785D01*
X56074173Y-99966607D01*
X56174063Y-99738881D01*
X56235108Y-99497821D01*
X56236778Y-99477669D01*
X56255643Y-99250005D01*
X59744357Y-99250005D01*
X59764890Y-99497812D01*
X59764892Y-99497824D01*
X59825936Y-99738881D01*
X59925826Y-99966606D01*
X60061833Y-100174782D01*
X60061836Y-100174785D01*
X60230256Y-100357738D01*
X60426491Y-100510474D01*
X60645190Y-100628828D01*
X60880386Y-100709571D01*
X61125665Y-100750500D01*
X61374335Y-100750500D01*
X61619614Y-100709571D01*
X61854810Y-100628828D01*
X62073509Y-100510474D01*
X62269744Y-100357738D01*
X62438164Y-100174785D01*
X62574173Y-99966607D01*
X62674063Y-99738881D01*
X62735108Y-99497821D01*
X62736778Y-99477669D01*
X62755643Y-99250005D01*
X62755643Y-99249994D01*
X62735109Y-99002187D01*
X62735107Y-99002175D01*
X62674063Y-98761118D01*
X62574173Y-98533393D01*
X62438166Y-98325217D01*
X62378128Y-98259999D01*
X62269744Y-98142262D01*
X62073509Y-97989526D01*
X62073507Y-97989525D01*
X62073506Y-97989524D01*
X61854811Y-97871172D01*
X61854802Y-97871169D01*
X61619616Y-97790429D01*
X61374335Y-97749500D01*
X61125665Y-97749500D01*
X60880383Y-97790429D01*
X60645197Y-97871169D01*
X60645188Y-97871172D01*
X60426493Y-97989524D01*
X60230257Y-98142261D01*
X60061833Y-98325217D01*
X59925826Y-98533393D01*
X59825936Y-98761118D01*
X59764892Y-99002175D01*
X59764890Y-99002187D01*
X59744357Y-99249994D01*
X59744357Y-99250005D01*
X56255643Y-99250005D01*
X56255643Y-99249994D01*
X56235109Y-99002187D01*
X56235107Y-99002175D01*
X56174063Y-98761118D01*
X56074173Y-98533393D01*
X55938166Y-98325217D01*
X55878128Y-98259999D01*
X55769744Y-98142262D01*
X55573509Y-97989526D01*
X55573507Y-97989525D01*
X55573506Y-97989524D01*
X55354811Y-97871172D01*
X55354802Y-97871169D01*
X55119616Y-97790429D01*
X54874335Y-97749500D01*
X54625665Y-97749500D01*
X54380383Y-97790429D01*
X54145197Y-97871169D01*
X54145188Y-97871172D01*
X53926493Y-97989524D01*
X53730257Y-98142261D01*
X53561833Y-98325217D01*
X53425826Y-98533393D01*
X53325936Y-98761118D01*
X53264892Y-99002175D01*
X53264890Y-99002187D01*
X53244357Y-99249994D01*
X53244357Y-99250005D01*
X51000000Y-99250005D01*
X51000000Y-94750005D01*
X53244859Y-94750005D01*
X53265385Y-94997729D01*
X53265387Y-94997738D01*
X53326412Y-95238717D01*
X53426266Y-95466364D01*
X53526564Y-95619882D01*
X54224070Y-94922376D01*
X54226884Y-94935915D01*
X54296442Y-95070156D01*
X54399638Y-95180652D01*
X54528819Y-95259209D01*
X54580002Y-95273549D01*
X53879942Y-95973609D01*
X53926768Y-96010055D01*
X53926770Y-96010056D01*
X54145385Y-96128364D01*
X54145396Y-96128369D01*
X54380506Y-96209083D01*
X54625707Y-96250000D01*
X54874293Y-96250000D01*
X55119493Y-96209083D01*
X55354603Y-96128369D01*
X55354614Y-96128364D01*
X55573228Y-96010057D01*
X55573231Y-96010055D01*
X55620056Y-95973609D01*
X54921568Y-95275121D01*
X55038458Y-95224349D01*
X55155739Y-95128934D01*
X55242928Y-95005415D01*
X55273354Y-94919802D01*
X55973434Y-95619882D01*
X56073731Y-95466369D01*
X56173587Y-95238717D01*
X56234612Y-94997738D01*
X56234614Y-94997729D01*
X56255141Y-94750005D01*
X59744859Y-94750005D01*
X59765385Y-94997729D01*
X59765387Y-94997738D01*
X59826412Y-95238717D01*
X59926266Y-95466364D01*
X60026564Y-95619882D01*
X60724070Y-94922376D01*
X60726884Y-94935915D01*
X60796442Y-95070156D01*
X60899638Y-95180652D01*
X61028819Y-95259209D01*
X61080002Y-95273549D01*
X60379942Y-95973609D01*
X60426768Y-96010055D01*
X60426770Y-96010056D01*
X60645385Y-96128364D01*
X60645396Y-96128369D01*
X60880506Y-96209083D01*
X61125707Y-96250000D01*
X61374293Y-96250000D01*
X61619493Y-96209083D01*
X61854603Y-96128369D01*
X61854614Y-96128364D01*
X62073228Y-96010057D01*
X62073231Y-96010055D01*
X62120056Y-95973609D01*
X61421568Y-95275121D01*
X61538458Y-95224349D01*
X61655739Y-95128934D01*
X61742928Y-95005415D01*
X61773354Y-94919802D01*
X62473434Y-95619882D01*
X62573731Y-95466369D01*
X62673587Y-95238717D01*
X62734612Y-94997738D01*
X62734614Y-94997729D01*
X62755141Y-94750005D01*
X62755141Y-94749994D01*
X62734614Y-94502270D01*
X62734612Y-94502261D01*
X62673587Y-94261282D01*
X62573731Y-94033630D01*
X62473434Y-93880116D01*
X61775929Y-94577622D01*
X61773116Y-94564085D01*
X61703558Y-94429844D01*
X61600362Y-94319348D01*
X61471181Y-94240791D01*
X61419997Y-94226450D01*
X62120057Y-93526390D01*
X62120056Y-93526389D01*
X62073229Y-93489943D01*
X61854614Y-93371635D01*
X61854603Y-93371630D01*
X61619493Y-93290916D01*
X61374293Y-93250000D01*
X61125707Y-93250000D01*
X60880506Y-93290916D01*
X60645396Y-93371630D01*
X60645390Y-93371632D01*
X60426761Y-93489949D01*
X60379942Y-93526388D01*
X60379942Y-93526390D01*
X61078431Y-94224878D01*
X60961542Y-94275651D01*
X60844261Y-94371066D01*
X60757072Y-94494585D01*
X60726645Y-94580197D01*
X60026564Y-93880116D01*
X59926267Y-94033632D01*
X59826412Y-94261282D01*
X59765387Y-94502261D01*
X59765385Y-94502270D01*
X59744859Y-94749994D01*
X59744859Y-94750005D01*
X56255141Y-94750005D01*
X56255141Y-94749994D01*
X56234614Y-94502270D01*
X56234612Y-94502261D01*
X56173587Y-94261282D01*
X56073731Y-94033630D01*
X55973434Y-93880116D01*
X55275929Y-94577622D01*
X55273116Y-94564085D01*
X55203558Y-94429844D01*
X55100362Y-94319348D01*
X54971181Y-94240791D01*
X54919997Y-94226450D01*
X55620057Y-93526390D01*
X55620056Y-93526389D01*
X55573229Y-93489943D01*
X55354614Y-93371635D01*
X55354603Y-93371630D01*
X55119493Y-93290916D01*
X54874293Y-93250000D01*
X54625707Y-93250000D01*
X54380506Y-93290916D01*
X54145396Y-93371630D01*
X54145390Y-93371632D01*
X53926761Y-93489949D01*
X53879942Y-93526388D01*
X53879942Y-93526390D01*
X54578431Y-94224878D01*
X54461542Y-94275651D01*
X54344261Y-94371066D01*
X54257072Y-94494585D01*
X54226645Y-94580197D01*
X53526564Y-93880116D01*
X53426267Y-94033632D01*
X53326412Y-94261282D01*
X53265387Y-94502261D01*
X53265385Y-94502270D01*
X53244859Y-94749994D01*
X53244859Y-94750005D01*
X51000000Y-94750005D01*
X51000000Y-81250005D01*
X53244357Y-81250005D01*
X53264890Y-81497812D01*
X53264892Y-81497824D01*
X53325936Y-81738881D01*
X53425826Y-81966606D01*
X53561833Y-82174782D01*
X53561836Y-82174785D01*
X53730256Y-82357738D01*
X53926491Y-82510474D01*
X54145190Y-82628828D01*
X54380386Y-82709571D01*
X54625665Y-82750500D01*
X54874335Y-82750500D01*
X55119614Y-82709571D01*
X55354810Y-82628828D01*
X55573509Y-82510474D01*
X55769744Y-82357738D01*
X55938164Y-82174785D01*
X56074173Y-81966607D01*
X56174063Y-81738881D01*
X56235108Y-81497821D01*
X56247241Y-81351396D01*
X56255643Y-81250005D01*
X59744357Y-81250005D01*
X59764890Y-81497812D01*
X59764892Y-81497824D01*
X59825936Y-81738881D01*
X59925826Y-81966606D01*
X60061833Y-82174782D01*
X60061836Y-82174785D01*
X60230256Y-82357738D01*
X60426491Y-82510474D01*
X60645190Y-82628828D01*
X60880386Y-82709571D01*
X61125665Y-82750500D01*
X61374335Y-82750500D01*
X61619614Y-82709571D01*
X61854810Y-82628828D01*
X62073509Y-82510474D01*
X62269744Y-82357738D01*
X62438164Y-82174785D01*
X62574173Y-81966607D01*
X62674063Y-81738881D01*
X62735108Y-81497821D01*
X62747241Y-81351396D01*
X62755643Y-81250005D01*
X62755643Y-81249994D01*
X62735109Y-81002187D01*
X62735107Y-81002175D01*
X62674063Y-80761118D01*
X62574173Y-80533393D01*
X62438166Y-80325217D01*
X62363945Y-80244592D01*
X62269744Y-80142262D01*
X62073509Y-79989526D01*
X62073507Y-79989525D01*
X62073506Y-79989524D01*
X61854811Y-79871172D01*
X61854802Y-79871169D01*
X61619616Y-79790429D01*
X61374335Y-79749500D01*
X61125665Y-79749500D01*
X60880383Y-79790429D01*
X60645197Y-79871169D01*
X60645188Y-79871172D01*
X60426493Y-79989524D01*
X60230257Y-80142261D01*
X60061833Y-80325217D01*
X59925826Y-80533393D01*
X59825936Y-80761118D01*
X59764892Y-81002175D01*
X59764890Y-81002187D01*
X59744357Y-81249994D01*
X59744357Y-81250005D01*
X56255643Y-81250005D01*
X56255643Y-81249994D01*
X56235109Y-81002187D01*
X56235107Y-81002175D01*
X56174063Y-80761118D01*
X56074173Y-80533393D01*
X55938166Y-80325217D01*
X55863945Y-80244592D01*
X55769744Y-80142262D01*
X55573509Y-79989526D01*
X55573507Y-79989525D01*
X55573506Y-79989524D01*
X55354811Y-79871172D01*
X55354802Y-79871169D01*
X55119616Y-79790429D01*
X54874335Y-79749500D01*
X54625665Y-79749500D01*
X54380383Y-79790429D01*
X54145197Y-79871169D01*
X54145188Y-79871172D01*
X53926493Y-79989524D01*
X53730257Y-80142261D01*
X53561833Y-80325217D01*
X53425826Y-80533393D01*
X53325936Y-80761118D01*
X53264892Y-81002175D01*
X53264890Y-81002187D01*
X53244357Y-81249994D01*
X53244357Y-81250005D01*
X51000000Y-81250005D01*
X51000000Y-76750005D01*
X53244859Y-76750005D01*
X53265385Y-76997729D01*
X53265387Y-76997738D01*
X53326412Y-77238717D01*
X53426266Y-77466364D01*
X53526564Y-77619882D01*
X54224070Y-76922376D01*
X54226884Y-76935915D01*
X54296442Y-77070156D01*
X54399638Y-77180652D01*
X54528819Y-77259209D01*
X54580002Y-77273549D01*
X53879942Y-77973609D01*
X53926768Y-78010055D01*
X53926770Y-78010056D01*
X54145385Y-78128364D01*
X54145396Y-78128369D01*
X54380506Y-78209083D01*
X54625707Y-78250000D01*
X54874293Y-78250000D01*
X55119493Y-78209083D01*
X55354603Y-78128369D01*
X55354614Y-78128364D01*
X55573228Y-78010057D01*
X55573231Y-78010055D01*
X55620056Y-77973609D01*
X54921568Y-77275121D01*
X55038458Y-77224349D01*
X55155739Y-77128934D01*
X55242928Y-77005415D01*
X55273354Y-76919802D01*
X55973434Y-77619882D01*
X56073731Y-77466369D01*
X56173587Y-77238717D01*
X56234612Y-76997738D01*
X56234614Y-76997729D01*
X56255141Y-76750005D01*
X59744859Y-76750005D01*
X59765385Y-76997729D01*
X59765387Y-76997738D01*
X59826412Y-77238717D01*
X59926266Y-77466364D01*
X60026564Y-77619882D01*
X60724070Y-76922376D01*
X60726884Y-76935915D01*
X60796442Y-77070156D01*
X60899638Y-77180652D01*
X61028819Y-77259209D01*
X61080002Y-77273549D01*
X60379942Y-77973609D01*
X60426768Y-78010055D01*
X60426770Y-78010056D01*
X60645385Y-78128364D01*
X60645396Y-78128369D01*
X60880506Y-78209083D01*
X61125707Y-78250000D01*
X61374293Y-78250000D01*
X61619493Y-78209083D01*
X61854603Y-78128369D01*
X61854614Y-78128364D01*
X62073228Y-78010057D01*
X62073231Y-78010055D01*
X62120056Y-77973609D01*
X61421568Y-77275121D01*
X61538458Y-77224349D01*
X61655739Y-77128934D01*
X61742928Y-77005415D01*
X61773354Y-76919802D01*
X62473434Y-77619882D01*
X62573731Y-77466369D01*
X62673587Y-77238717D01*
X62734612Y-76997738D01*
X62734614Y-76997729D01*
X62755141Y-76750005D01*
X62755141Y-76749994D01*
X62734614Y-76502270D01*
X62734612Y-76502261D01*
X62673587Y-76261282D01*
X62573731Y-76033630D01*
X62473434Y-75880116D01*
X61775929Y-76577622D01*
X61773116Y-76564085D01*
X61703558Y-76429844D01*
X61600362Y-76319348D01*
X61471181Y-76240791D01*
X61419997Y-76226450D01*
X62120057Y-75526390D01*
X62120056Y-75526389D01*
X62073229Y-75489943D01*
X61854614Y-75371635D01*
X61854603Y-75371630D01*
X61619493Y-75290916D01*
X61374293Y-75250000D01*
X61125707Y-75250000D01*
X60880506Y-75290916D01*
X60645396Y-75371630D01*
X60645390Y-75371632D01*
X60426761Y-75489949D01*
X60379942Y-75526388D01*
X60379942Y-75526390D01*
X61078431Y-76224878D01*
X60961542Y-76275651D01*
X60844261Y-76371066D01*
X60757072Y-76494585D01*
X60726645Y-76580197D01*
X60026564Y-75880116D01*
X59926267Y-76033632D01*
X59826412Y-76261282D01*
X59765387Y-76502261D01*
X59765385Y-76502270D01*
X59744859Y-76749994D01*
X59744859Y-76750005D01*
X56255141Y-76750005D01*
X56255141Y-76749994D01*
X56234614Y-76502270D01*
X56234612Y-76502261D01*
X56173587Y-76261282D01*
X56073731Y-76033630D01*
X55973434Y-75880116D01*
X55275929Y-76577622D01*
X55273116Y-76564085D01*
X55203558Y-76429844D01*
X55100362Y-76319348D01*
X54971181Y-76240791D01*
X54919997Y-76226450D01*
X55620057Y-75526390D01*
X55620056Y-75526389D01*
X55573229Y-75489943D01*
X55354614Y-75371635D01*
X55354603Y-75371630D01*
X55119493Y-75290916D01*
X54874293Y-75250000D01*
X54625707Y-75250000D01*
X54380506Y-75290916D01*
X54145396Y-75371630D01*
X54145390Y-75371632D01*
X53926761Y-75489949D01*
X53879942Y-75526388D01*
X53879942Y-75526390D01*
X54578431Y-76224878D01*
X54461542Y-76275651D01*
X54344261Y-76371066D01*
X54257072Y-76494585D01*
X54226645Y-76580197D01*
X53526564Y-75880116D01*
X53426267Y-76033632D01*
X53326412Y-76261282D01*
X53265387Y-76502261D01*
X53265385Y-76502270D01*
X53244859Y-76749994D01*
X53244859Y-76750005D01*
X51000000Y-76750005D01*
X51000000Y-65250005D01*
X53244357Y-65250005D01*
X53264890Y-65497812D01*
X53264892Y-65497824D01*
X53325936Y-65738881D01*
X53425826Y-65966606D01*
X53561833Y-66174782D01*
X53561836Y-66174785D01*
X53730256Y-66357738D01*
X53926491Y-66510474D01*
X54145190Y-66628828D01*
X54380386Y-66709571D01*
X54625665Y-66750500D01*
X54874335Y-66750500D01*
X55119614Y-66709571D01*
X55354810Y-66628828D01*
X55573509Y-66510474D01*
X55769744Y-66357738D01*
X55938164Y-66174785D01*
X56074173Y-65966607D01*
X56174063Y-65738881D01*
X56235108Y-65497821D01*
X56237687Y-65466697D01*
X56255643Y-65250005D01*
X59744357Y-65250005D01*
X59764890Y-65497812D01*
X59764892Y-65497824D01*
X59825936Y-65738881D01*
X59925826Y-65966606D01*
X60061833Y-66174782D01*
X60061836Y-66174785D01*
X60230256Y-66357738D01*
X60426491Y-66510474D01*
X60645190Y-66628828D01*
X60880386Y-66709571D01*
X61125665Y-66750500D01*
X61374335Y-66750500D01*
X61619614Y-66709571D01*
X61854810Y-66628828D01*
X62073509Y-66510474D01*
X62269744Y-66357738D01*
X62438164Y-66174785D01*
X62574173Y-65966607D01*
X62674063Y-65738881D01*
X62735108Y-65497821D01*
X62737687Y-65466697D01*
X62755643Y-65250005D01*
X62755643Y-65249994D01*
X62735109Y-65002187D01*
X62735107Y-65002175D01*
X62674063Y-64761118D01*
X62574173Y-64533393D01*
X62438166Y-64325217D01*
X62365861Y-64246673D01*
X62269744Y-64142262D01*
X62073509Y-63989526D01*
X62073507Y-63989525D01*
X62073506Y-63989524D01*
X61854811Y-63871172D01*
X61854802Y-63871169D01*
X61619616Y-63790429D01*
X61374335Y-63749500D01*
X61125665Y-63749500D01*
X60880383Y-63790429D01*
X60645197Y-63871169D01*
X60645188Y-63871172D01*
X60426493Y-63989524D01*
X60230257Y-64142261D01*
X60061833Y-64325217D01*
X59925826Y-64533393D01*
X59825936Y-64761118D01*
X59764892Y-65002175D01*
X59764890Y-65002187D01*
X59744357Y-65249994D01*
X59744357Y-65250005D01*
X56255643Y-65250005D01*
X56255643Y-65249994D01*
X56235109Y-65002187D01*
X56235107Y-65002175D01*
X56174063Y-64761118D01*
X56074173Y-64533393D01*
X55938166Y-64325217D01*
X55865861Y-64246673D01*
X55769744Y-64142262D01*
X55573509Y-63989526D01*
X55573507Y-63989525D01*
X55573506Y-63989524D01*
X55354811Y-63871172D01*
X55354802Y-63871169D01*
X55119616Y-63790429D01*
X54874335Y-63749500D01*
X54625665Y-63749500D01*
X54380383Y-63790429D01*
X54145197Y-63871169D01*
X54145188Y-63871172D01*
X53926493Y-63989524D01*
X53730257Y-64142261D01*
X53561833Y-64325217D01*
X53425826Y-64533393D01*
X53325936Y-64761118D01*
X53264892Y-65002175D01*
X53264890Y-65002187D01*
X53244357Y-65249994D01*
X53244357Y-65250005D01*
X51000000Y-65250005D01*
X51000000Y-60750005D01*
X53244859Y-60750005D01*
X53265385Y-60997729D01*
X53265387Y-60997738D01*
X53326412Y-61238717D01*
X53426266Y-61466364D01*
X53526564Y-61619882D01*
X54224070Y-60922376D01*
X54226884Y-60935915D01*
X54296442Y-61070156D01*
X54399638Y-61180652D01*
X54528819Y-61259209D01*
X54580002Y-61273549D01*
X53879942Y-61973609D01*
X53926768Y-62010055D01*
X53926770Y-62010056D01*
X54145385Y-62128364D01*
X54145396Y-62128369D01*
X54380506Y-62209083D01*
X54625707Y-62250000D01*
X54874293Y-62250000D01*
X55119493Y-62209083D01*
X55354603Y-62128369D01*
X55354614Y-62128364D01*
X55573228Y-62010057D01*
X55573231Y-62010055D01*
X55620056Y-61973609D01*
X54921568Y-61275121D01*
X55038458Y-61224349D01*
X55155739Y-61128934D01*
X55242928Y-61005415D01*
X55273354Y-60919802D01*
X55973434Y-61619882D01*
X56073731Y-61466369D01*
X56173587Y-61238717D01*
X56234612Y-60997738D01*
X56234614Y-60997729D01*
X56255141Y-60750005D01*
X59744859Y-60750005D01*
X59765385Y-60997729D01*
X59765387Y-60997738D01*
X59826412Y-61238717D01*
X59926266Y-61466364D01*
X60026564Y-61619882D01*
X60724070Y-60922376D01*
X60726884Y-60935915D01*
X60796442Y-61070156D01*
X60899638Y-61180652D01*
X61028819Y-61259209D01*
X61080002Y-61273549D01*
X60379942Y-61973609D01*
X60426768Y-62010055D01*
X60426770Y-62010056D01*
X60645385Y-62128364D01*
X60645396Y-62128369D01*
X60880506Y-62209083D01*
X61125707Y-62250000D01*
X61374293Y-62250000D01*
X61619493Y-62209083D01*
X61854603Y-62128369D01*
X61854614Y-62128364D01*
X62073228Y-62010057D01*
X62073231Y-62010055D01*
X62120056Y-61973609D01*
X61421568Y-61275121D01*
X61538458Y-61224349D01*
X61655739Y-61128934D01*
X61742928Y-61005415D01*
X61773354Y-60919802D01*
X62473434Y-61619882D01*
X62573731Y-61466369D01*
X62673587Y-61238717D01*
X62734612Y-60997738D01*
X62734614Y-60997729D01*
X62755141Y-60750005D01*
X62755141Y-60749994D01*
X62734614Y-60502270D01*
X62734612Y-60502261D01*
X62673587Y-60261282D01*
X62573731Y-60033630D01*
X62473434Y-59880116D01*
X61775929Y-60577622D01*
X61773116Y-60564085D01*
X61703558Y-60429844D01*
X61600362Y-60319348D01*
X61471181Y-60240791D01*
X61419997Y-60226450D01*
X62120057Y-59526390D01*
X62120056Y-59526389D01*
X62073229Y-59489943D01*
X61854614Y-59371635D01*
X61854603Y-59371630D01*
X61619493Y-59290916D01*
X61374293Y-59250000D01*
X61125707Y-59250000D01*
X60880506Y-59290916D01*
X60645396Y-59371630D01*
X60645390Y-59371632D01*
X60426761Y-59489949D01*
X60379942Y-59526388D01*
X60379942Y-59526390D01*
X61078431Y-60224878D01*
X60961542Y-60275651D01*
X60844261Y-60371066D01*
X60757072Y-60494585D01*
X60726645Y-60580197D01*
X60026564Y-59880116D01*
X59926267Y-60033632D01*
X59826412Y-60261282D01*
X59765387Y-60502261D01*
X59765385Y-60502270D01*
X59744859Y-60749994D01*
X59744859Y-60750005D01*
X56255141Y-60750005D01*
X56255141Y-60749994D01*
X56234614Y-60502270D01*
X56234612Y-60502261D01*
X56173587Y-60261282D01*
X56073731Y-60033630D01*
X55973434Y-59880116D01*
X55275929Y-60577622D01*
X55273116Y-60564085D01*
X55203558Y-60429844D01*
X55100362Y-60319348D01*
X54971181Y-60240791D01*
X54919997Y-60226450D01*
X55620057Y-59526390D01*
X55620056Y-59526389D01*
X55573229Y-59489943D01*
X55354614Y-59371635D01*
X55354603Y-59371630D01*
X55119493Y-59290916D01*
X54874293Y-59250000D01*
X54625707Y-59250000D01*
X54380506Y-59290916D01*
X54145396Y-59371630D01*
X54145390Y-59371632D01*
X53926761Y-59489949D01*
X53879942Y-59526388D01*
X53879942Y-59526390D01*
X54578431Y-60224878D01*
X54461542Y-60275651D01*
X54344261Y-60371066D01*
X54257072Y-60494585D01*
X54226645Y-60580197D01*
X53526564Y-59880116D01*
X53426267Y-60033632D01*
X53326412Y-60261282D01*
X53265387Y-60502261D01*
X53265385Y-60502270D01*
X53244859Y-60749994D01*
X53244859Y-60750005D01*
X51000000Y-60750005D01*
X51000000Y-53877763D01*
X51955787Y-53877763D01*
X51985413Y-54147013D01*
X51985415Y-54147024D01*
X52053926Y-54409082D01*
X52053928Y-54409088D01*
X52159870Y-54658390D01*
X52262539Y-54826619D01*
X52300979Y-54889605D01*
X52300986Y-54889615D01*
X52474253Y-55097819D01*
X52474259Y-55097824D01*
X52520239Y-55139022D01*
X52675998Y-55278582D01*
X52901910Y-55428044D01*
X53147176Y-55543020D01*
X53147183Y-55543022D01*
X53147185Y-55543023D01*
X53406557Y-55621057D01*
X53406564Y-55621058D01*
X53406569Y-55621060D01*
X53674561Y-55660500D01*
X53674566Y-55660500D01*
X53877629Y-55660500D01*
X53877631Y-55660500D01*
X53877636Y-55660499D01*
X53877648Y-55660499D01*
X53915191Y-55657750D01*
X54080156Y-55645677D01*
X54207109Y-55617397D01*
X54344546Y-55586782D01*
X54344548Y-55586781D01*
X54344553Y-55586780D01*
X54597558Y-55490014D01*
X54833777Y-55357441D01*
X55048177Y-55191888D01*
X55236186Y-54996881D01*
X55393799Y-54776579D01*
X55467787Y-54632669D01*
X55517649Y-54535690D01*
X55517651Y-54535684D01*
X55517656Y-54535675D01*
X55605118Y-54279305D01*
X55654319Y-54012933D01*
X55664212Y-53742235D01*
X55634586Y-53472982D01*
X55566072Y-53210912D01*
X55460130Y-52961610D01*
X55319018Y-52730390D01*
X55317845Y-52728981D01*
X55145746Y-52522180D01*
X55145740Y-52522175D01*
X54944002Y-52341418D01*
X54718092Y-52191957D01*
X54718090Y-52191956D01*
X54472824Y-52076980D01*
X54472819Y-52076978D01*
X54472814Y-52076976D01*
X54213442Y-51998942D01*
X54213428Y-51998939D01*
X54097791Y-51981921D01*
X53945439Y-51959500D01*
X53742369Y-51959500D01*
X53742351Y-51959500D01*
X53539844Y-51974323D01*
X53539831Y-51974325D01*
X53275453Y-52033217D01*
X53275446Y-52033220D01*
X53022439Y-52129987D01*
X52786226Y-52262557D01*
X52571822Y-52428112D01*
X52383822Y-52623109D01*
X52383816Y-52623116D01*
X52226202Y-52843419D01*
X52226199Y-52843424D01*
X52102350Y-53084309D01*
X52102343Y-53084327D01*
X52014884Y-53340685D01*
X52014881Y-53340699D01*
X51999921Y-53421693D01*
X51970959Y-53578495D01*
X51965681Y-53607068D01*
X51965680Y-53607075D01*
X51955787Y-53877763D01*
X51000000Y-53877763D01*
X51000000Y-51124000D01*
X51019685Y-51056961D01*
X51072489Y-51011206D01*
X51124000Y-51000000D01*
X68637551Y-51000000D01*
X68704590Y-51019685D01*
G37*
%TD.AperFunction*%
%TD*%
M02*
