%TF.GenerationSoftware,KiCad,Pcbnew,7.0.10*%
%TF.CreationDate,2024-01-07T12:32:19+09:00*%
%TF.ProjectId,main,6d61696e-2e6b-4696-9361-645f70636258,rev?*%
%TF.SameCoordinates,Original*%
%TF.FileFunction,Legend,Top*%
%TF.FilePolarity,Positive*%
%FSLAX46Y46*%
G04 Gerber Fmt 4.6, Leading zero omitted, Abs format (unit mm)*
G04 Created by KiCad (PCBNEW 7.0.10) date 2024-01-07 12:32:19*
%MOMM*%
%LPD*%
G01*
G04 APERTURE LIST*
%ADD10C,0.200000*%
%ADD11C,0.150000*%
%ADD12C,0.120000*%
%ADD13C,3.200000*%
%ADD14R,1.600000X1.600000*%
%ADD15C,1.600000*%
%ADD16C,2.000000*%
%ADD17R,1.700000X1.700000*%
%ADD18O,1.700000X1.700000*%
%ADD19O,1.800000X1.800000*%
%ADD20O,1.500000X1.500000*%
%ADD21R,3.500000X1.700000*%
%ADD22R,1.700000X3.500000*%
%ADD23R,1.500000X1.500000*%
%ADD24C,1.500000*%
G04 APERTURE END LIST*
D10*
X59116816Y-111097219D02*
X59450149Y-112097219D01*
X59450149Y-112097219D02*
X59783482Y-111097219D01*
X60688244Y-112001980D02*
X60640625Y-112049600D01*
X60640625Y-112049600D02*
X60497768Y-112097219D01*
X60497768Y-112097219D02*
X60402530Y-112097219D01*
X60402530Y-112097219D02*
X60259673Y-112049600D01*
X60259673Y-112049600D02*
X60164435Y-111954361D01*
X60164435Y-111954361D02*
X60116816Y-111859123D01*
X60116816Y-111859123D02*
X60069197Y-111668647D01*
X60069197Y-111668647D02*
X60069197Y-111525790D01*
X60069197Y-111525790D02*
X60116816Y-111335314D01*
X60116816Y-111335314D02*
X60164435Y-111240076D01*
X60164435Y-111240076D02*
X60259673Y-111144838D01*
X60259673Y-111144838D02*
X60402530Y-111097219D01*
X60402530Y-111097219D02*
X60497768Y-111097219D01*
X60497768Y-111097219D02*
X60640625Y-111144838D01*
X60640625Y-111144838D02*
X60688244Y-111192457D01*
X61688244Y-112001980D02*
X61640625Y-112049600D01*
X61640625Y-112049600D02*
X61497768Y-112097219D01*
X61497768Y-112097219D02*
X61402530Y-112097219D01*
X61402530Y-112097219D02*
X61259673Y-112049600D01*
X61259673Y-112049600D02*
X61164435Y-111954361D01*
X61164435Y-111954361D02*
X61116816Y-111859123D01*
X61116816Y-111859123D02*
X61069197Y-111668647D01*
X61069197Y-111668647D02*
X61069197Y-111525790D01*
X61069197Y-111525790D02*
X61116816Y-111335314D01*
X61116816Y-111335314D02*
X61164435Y-111240076D01*
X61164435Y-111240076D02*
X61259673Y-111144838D01*
X61259673Y-111144838D02*
X61402530Y-111097219D01*
X61402530Y-111097219D02*
X61497768Y-111097219D01*
X61497768Y-111097219D02*
X61640625Y-111144838D01*
X61640625Y-111144838D02*
X61688244Y-111192457D01*
X95946816Y-111097219D02*
X96280149Y-112097219D01*
X96280149Y-112097219D02*
X96613482Y-111097219D01*
X97518244Y-112001980D02*
X97470625Y-112049600D01*
X97470625Y-112049600D02*
X97327768Y-112097219D01*
X97327768Y-112097219D02*
X97232530Y-112097219D01*
X97232530Y-112097219D02*
X97089673Y-112049600D01*
X97089673Y-112049600D02*
X96994435Y-111954361D01*
X96994435Y-111954361D02*
X96946816Y-111859123D01*
X96946816Y-111859123D02*
X96899197Y-111668647D01*
X96899197Y-111668647D02*
X96899197Y-111525790D01*
X96899197Y-111525790D02*
X96946816Y-111335314D01*
X96946816Y-111335314D02*
X96994435Y-111240076D01*
X96994435Y-111240076D02*
X97089673Y-111144838D01*
X97089673Y-111144838D02*
X97232530Y-111097219D01*
X97232530Y-111097219D02*
X97327768Y-111097219D01*
X97327768Y-111097219D02*
X97470625Y-111144838D01*
X97470625Y-111144838D02*
X97518244Y-111192457D01*
X98518244Y-112001980D02*
X98470625Y-112049600D01*
X98470625Y-112049600D02*
X98327768Y-112097219D01*
X98327768Y-112097219D02*
X98232530Y-112097219D01*
X98232530Y-112097219D02*
X98089673Y-112049600D01*
X98089673Y-112049600D02*
X97994435Y-111954361D01*
X97994435Y-111954361D02*
X97946816Y-111859123D01*
X97946816Y-111859123D02*
X97899197Y-111668647D01*
X97899197Y-111668647D02*
X97899197Y-111525790D01*
X97899197Y-111525790D02*
X97946816Y-111335314D01*
X97946816Y-111335314D02*
X97994435Y-111240076D01*
X97994435Y-111240076D02*
X98089673Y-111144838D01*
X98089673Y-111144838D02*
X98232530Y-111097219D01*
X98232530Y-111097219D02*
X98327768Y-111097219D01*
X98327768Y-111097219D02*
X98470625Y-111144838D01*
X98470625Y-111144838D02*
X98518244Y-111192457D01*
X59783482Y-107334838D02*
X59688244Y-107287219D01*
X59688244Y-107287219D02*
X59545387Y-107287219D01*
X59545387Y-107287219D02*
X59402530Y-107334838D01*
X59402530Y-107334838D02*
X59307292Y-107430076D01*
X59307292Y-107430076D02*
X59259673Y-107525314D01*
X59259673Y-107525314D02*
X59212054Y-107715790D01*
X59212054Y-107715790D02*
X59212054Y-107858647D01*
X59212054Y-107858647D02*
X59259673Y-108049123D01*
X59259673Y-108049123D02*
X59307292Y-108144361D01*
X59307292Y-108144361D02*
X59402530Y-108239600D01*
X59402530Y-108239600D02*
X59545387Y-108287219D01*
X59545387Y-108287219D02*
X59640625Y-108287219D01*
X59640625Y-108287219D02*
X59783482Y-108239600D01*
X59783482Y-108239600D02*
X59831101Y-108191980D01*
X59831101Y-108191980D02*
X59831101Y-107858647D01*
X59831101Y-107858647D02*
X59640625Y-107858647D01*
X60259673Y-108287219D02*
X60259673Y-107287219D01*
X60259673Y-107287219D02*
X60831101Y-108287219D01*
X60831101Y-108287219D02*
X60831101Y-107287219D01*
X61307292Y-108287219D02*
X61307292Y-107287219D01*
X61307292Y-107287219D02*
X61545387Y-107287219D01*
X61545387Y-107287219D02*
X61688244Y-107334838D01*
X61688244Y-107334838D02*
X61783482Y-107430076D01*
X61783482Y-107430076D02*
X61831101Y-107525314D01*
X61831101Y-107525314D02*
X61878720Y-107715790D01*
X61878720Y-107715790D02*
X61878720Y-107858647D01*
X61878720Y-107858647D02*
X61831101Y-108049123D01*
X61831101Y-108049123D02*
X61783482Y-108144361D01*
X61783482Y-108144361D02*
X61688244Y-108239600D01*
X61688244Y-108239600D02*
X61545387Y-108287219D01*
X61545387Y-108287219D02*
X61307292Y-108287219D01*
X59259673Y-114637219D02*
X59259673Y-113637219D01*
X59259673Y-113637219D02*
X59640625Y-113637219D01*
X59640625Y-113637219D02*
X59735863Y-113684838D01*
X59735863Y-113684838D02*
X59783482Y-113732457D01*
X59783482Y-113732457D02*
X59831101Y-113827695D01*
X59831101Y-113827695D02*
X59831101Y-113970552D01*
X59831101Y-113970552D02*
X59783482Y-114065790D01*
X59783482Y-114065790D02*
X59735863Y-114113409D01*
X59735863Y-114113409D02*
X59640625Y-114161028D01*
X59640625Y-114161028D02*
X59259673Y-114161028D01*
X60164435Y-113637219D02*
X60402530Y-114637219D01*
X60402530Y-114637219D02*
X60593006Y-113922933D01*
X60593006Y-113922933D02*
X60783482Y-114637219D01*
X60783482Y-114637219D02*
X61021578Y-113637219D01*
X61402530Y-114637219D02*
X61402530Y-113637219D01*
X61402530Y-113637219D02*
X61735863Y-114351504D01*
X61735863Y-114351504D02*
X62069196Y-113637219D01*
X62069196Y-113637219D02*
X62069196Y-114637219D01*
X96613482Y-107334838D02*
X96518244Y-107287219D01*
X96518244Y-107287219D02*
X96375387Y-107287219D01*
X96375387Y-107287219D02*
X96232530Y-107334838D01*
X96232530Y-107334838D02*
X96137292Y-107430076D01*
X96137292Y-107430076D02*
X96089673Y-107525314D01*
X96089673Y-107525314D02*
X96042054Y-107715790D01*
X96042054Y-107715790D02*
X96042054Y-107858647D01*
X96042054Y-107858647D02*
X96089673Y-108049123D01*
X96089673Y-108049123D02*
X96137292Y-108144361D01*
X96137292Y-108144361D02*
X96232530Y-108239600D01*
X96232530Y-108239600D02*
X96375387Y-108287219D01*
X96375387Y-108287219D02*
X96470625Y-108287219D01*
X96470625Y-108287219D02*
X96613482Y-108239600D01*
X96613482Y-108239600D02*
X96661101Y-108191980D01*
X96661101Y-108191980D02*
X96661101Y-107858647D01*
X96661101Y-107858647D02*
X96470625Y-107858647D01*
X97089673Y-108287219D02*
X97089673Y-107287219D01*
X97089673Y-107287219D02*
X97661101Y-108287219D01*
X97661101Y-108287219D02*
X97661101Y-107287219D01*
X98137292Y-108287219D02*
X98137292Y-107287219D01*
X98137292Y-107287219D02*
X98375387Y-107287219D01*
X98375387Y-107287219D02*
X98518244Y-107334838D01*
X98518244Y-107334838D02*
X98613482Y-107430076D01*
X98613482Y-107430076D02*
X98661101Y-107525314D01*
X98661101Y-107525314D02*
X98708720Y-107715790D01*
X98708720Y-107715790D02*
X98708720Y-107858647D01*
X98708720Y-107858647D02*
X98661101Y-108049123D01*
X98661101Y-108049123D02*
X98613482Y-108144361D01*
X98613482Y-108144361D02*
X98518244Y-108239600D01*
X98518244Y-108239600D02*
X98375387Y-108287219D01*
X98375387Y-108287219D02*
X98137292Y-108287219D01*
X100423482Y-81934838D02*
X100328244Y-81887219D01*
X100328244Y-81887219D02*
X100185387Y-81887219D01*
X100185387Y-81887219D02*
X100042530Y-81934838D01*
X100042530Y-81934838D02*
X99947292Y-82030076D01*
X99947292Y-82030076D02*
X99899673Y-82125314D01*
X99899673Y-82125314D02*
X99852054Y-82315790D01*
X99852054Y-82315790D02*
X99852054Y-82458647D01*
X99852054Y-82458647D02*
X99899673Y-82649123D01*
X99899673Y-82649123D02*
X99947292Y-82744361D01*
X99947292Y-82744361D02*
X100042530Y-82839600D01*
X100042530Y-82839600D02*
X100185387Y-82887219D01*
X100185387Y-82887219D02*
X100280625Y-82887219D01*
X100280625Y-82887219D02*
X100423482Y-82839600D01*
X100423482Y-82839600D02*
X100471101Y-82791980D01*
X100471101Y-82791980D02*
X100471101Y-82458647D01*
X100471101Y-82458647D02*
X100280625Y-82458647D01*
X100899673Y-82887219D02*
X100899673Y-81887219D01*
X100899673Y-81887219D02*
X101471101Y-82887219D01*
X101471101Y-82887219D02*
X101471101Y-81887219D01*
X101947292Y-82887219D02*
X101947292Y-81887219D01*
X101947292Y-81887219D02*
X102185387Y-81887219D01*
X102185387Y-81887219D02*
X102328244Y-81934838D01*
X102328244Y-81934838D02*
X102423482Y-82030076D01*
X102423482Y-82030076D02*
X102471101Y-82125314D01*
X102471101Y-82125314D02*
X102518720Y-82315790D01*
X102518720Y-82315790D02*
X102518720Y-82458647D01*
X102518720Y-82458647D02*
X102471101Y-82649123D01*
X102471101Y-82649123D02*
X102423482Y-82744361D01*
X102423482Y-82744361D02*
X102328244Y-82839600D01*
X102328244Y-82839600D02*
X102185387Y-82887219D01*
X102185387Y-82887219D02*
X101947292Y-82887219D01*
X96089673Y-114637219D02*
X96089673Y-113637219D01*
X96089673Y-113637219D02*
X96470625Y-113637219D01*
X96470625Y-113637219D02*
X96565863Y-113684838D01*
X96565863Y-113684838D02*
X96613482Y-113732457D01*
X96613482Y-113732457D02*
X96661101Y-113827695D01*
X96661101Y-113827695D02*
X96661101Y-113970552D01*
X96661101Y-113970552D02*
X96613482Y-114065790D01*
X96613482Y-114065790D02*
X96565863Y-114113409D01*
X96565863Y-114113409D02*
X96470625Y-114161028D01*
X96470625Y-114161028D02*
X96089673Y-114161028D01*
X96994435Y-113637219D02*
X97232530Y-114637219D01*
X97232530Y-114637219D02*
X97423006Y-113922933D01*
X97423006Y-113922933D02*
X97613482Y-114637219D01*
X97613482Y-114637219D02*
X97851578Y-113637219D01*
X98232530Y-114637219D02*
X98232530Y-113637219D01*
X98232530Y-113637219D02*
X98565863Y-114351504D01*
X98565863Y-114351504D02*
X98899196Y-113637219D01*
X98899196Y-113637219D02*
X98899196Y-114637219D01*
X99804435Y-85697219D02*
X100423482Y-85697219D01*
X100423482Y-85697219D02*
X100090149Y-86078171D01*
X100090149Y-86078171D02*
X100233006Y-86078171D01*
X100233006Y-86078171D02*
X100328244Y-86125790D01*
X100328244Y-86125790D02*
X100375863Y-86173409D01*
X100375863Y-86173409D02*
X100423482Y-86268647D01*
X100423482Y-86268647D02*
X100423482Y-86506742D01*
X100423482Y-86506742D02*
X100375863Y-86601980D01*
X100375863Y-86601980D02*
X100328244Y-86649600D01*
X100328244Y-86649600D02*
X100233006Y-86697219D01*
X100233006Y-86697219D02*
X99947292Y-86697219D01*
X99947292Y-86697219D02*
X99852054Y-86649600D01*
X99852054Y-86649600D02*
X99804435Y-86601980D01*
X100709197Y-85697219D02*
X101042530Y-86697219D01*
X101042530Y-86697219D02*
X101375863Y-85697219D01*
X101613959Y-85697219D02*
X102233006Y-85697219D01*
X102233006Y-85697219D02*
X101899673Y-86078171D01*
X101899673Y-86078171D02*
X102042530Y-86078171D01*
X102042530Y-86078171D02*
X102137768Y-86125790D01*
X102137768Y-86125790D02*
X102185387Y-86173409D01*
X102185387Y-86173409D02*
X102233006Y-86268647D01*
X102233006Y-86268647D02*
X102233006Y-86506742D01*
X102233006Y-86506742D02*
X102185387Y-86601980D01*
X102185387Y-86601980D02*
X102137768Y-86649600D01*
X102137768Y-86649600D02*
X102042530Y-86697219D01*
X102042530Y-86697219D02*
X101756816Y-86697219D01*
X101756816Y-86697219D02*
X101661578Y-86649600D01*
X101661578Y-86649600D02*
X101613959Y-86601980D01*
X98689673Y-89297219D02*
X98689673Y-88297219D01*
X98689673Y-88297219D02*
X99070625Y-88297219D01*
X99070625Y-88297219D02*
X99165863Y-88344838D01*
X99165863Y-88344838D02*
X99213482Y-88392457D01*
X99213482Y-88392457D02*
X99261101Y-88487695D01*
X99261101Y-88487695D02*
X99261101Y-88630552D01*
X99261101Y-88630552D02*
X99213482Y-88725790D01*
X99213482Y-88725790D02*
X99165863Y-88773409D01*
X99165863Y-88773409D02*
X99070625Y-88821028D01*
X99070625Y-88821028D02*
X98689673Y-88821028D01*
X99832530Y-89297219D02*
X99737292Y-89249600D01*
X99737292Y-89249600D02*
X99689673Y-89201980D01*
X99689673Y-89201980D02*
X99642054Y-89106742D01*
X99642054Y-89106742D02*
X99642054Y-88821028D01*
X99642054Y-88821028D02*
X99689673Y-88725790D01*
X99689673Y-88725790D02*
X99737292Y-88678171D01*
X99737292Y-88678171D02*
X99832530Y-88630552D01*
X99832530Y-88630552D02*
X99975387Y-88630552D01*
X99975387Y-88630552D02*
X100070625Y-88678171D01*
X100070625Y-88678171D02*
X100118244Y-88725790D01*
X100118244Y-88725790D02*
X100165863Y-88821028D01*
X100165863Y-88821028D02*
X100165863Y-89106742D01*
X100165863Y-89106742D02*
X100118244Y-89201980D01*
X100118244Y-89201980D02*
X100070625Y-89249600D01*
X100070625Y-89249600D02*
X99975387Y-89297219D01*
X99975387Y-89297219D02*
X99832530Y-89297219D01*
X100451578Y-88630552D02*
X100832530Y-88630552D01*
X100594435Y-88297219D02*
X100594435Y-89154361D01*
X100594435Y-89154361D02*
X100642054Y-89249600D01*
X100642054Y-89249600D02*
X100737292Y-89297219D01*
X100737292Y-89297219D02*
X100832530Y-89297219D01*
X101546816Y-89249600D02*
X101451578Y-89297219D01*
X101451578Y-89297219D02*
X101261102Y-89297219D01*
X101261102Y-89297219D02*
X101165864Y-89249600D01*
X101165864Y-89249600D02*
X101118245Y-89154361D01*
X101118245Y-89154361D02*
X101118245Y-88773409D01*
X101118245Y-88773409D02*
X101165864Y-88678171D01*
X101165864Y-88678171D02*
X101261102Y-88630552D01*
X101261102Y-88630552D02*
X101451578Y-88630552D01*
X101451578Y-88630552D02*
X101546816Y-88678171D01*
X101546816Y-88678171D02*
X101594435Y-88773409D01*
X101594435Y-88773409D02*
X101594435Y-88868647D01*
X101594435Y-88868647D02*
X101118245Y-88963885D01*
X102023007Y-88630552D02*
X102023007Y-89297219D01*
X102023007Y-88725790D02*
X102070626Y-88678171D01*
X102070626Y-88678171D02*
X102165864Y-88630552D01*
X102165864Y-88630552D02*
X102308721Y-88630552D01*
X102308721Y-88630552D02*
X102403959Y-88678171D01*
X102403959Y-88678171D02*
X102451578Y-88773409D01*
X102451578Y-88773409D02*
X102451578Y-89297219D01*
X102784912Y-88630552D02*
X103165864Y-88630552D01*
X102927769Y-88297219D02*
X102927769Y-89154361D01*
X102927769Y-89154361D02*
X102975388Y-89249600D01*
X102975388Y-89249600D02*
X103070626Y-89297219D01*
X103070626Y-89297219D02*
X103165864Y-89297219D01*
X103499198Y-89297219D02*
X103499198Y-88630552D01*
X103499198Y-88297219D02*
X103451579Y-88344838D01*
X103451579Y-88344838D02*
X103499198Y-88392457D01*
X103499198Y-88392457D02*
X103546817Y-88344838D01*
X103546817Y-88344838D02*
X103499198Y-88297219D01*
X103499198Y-88297219D02*
X103499198Y-88392457D01*
X104118245Y-89297219D02*
X104023007Y-89249600D01*
X104023007Y-89249600D02*
X103975388Y-89201980D01*
X103975388Y-89201980D02*
X103927769Y-89106742D01*
X103927769Y-89106742D02*
X103927769Y-88821028D01*
X103927769Y-88821028D02*
X103975388Y-88725790D01*
X103975388Y-88725790D02*
X104023007Y-88678171D01*
X104023007Y-88678171D02*
X104118245Y-88630552D01*
X104118245Y-88630552D02*
X104261102Y-88630552D01*
X104261102Y-88630552D02*
X104356340Y-88678171D01*
X104356340Y-88678171D02*
X104403959Y-88725790D01*
X104403959Y-88725790D02*
X104451578Y-88821028D01*
X104451578Y-88821028D02*
X104451578Y-89106742D01*
X104451578Y-89106742D02*
X104403959Y-89201980D01*
X104403959Y-89201980D02*
X104356340Y-89249600D01*
X104356340Y-89249600D02*
X104261102Y-89297219D01*
X104261102Y-89297219D02*
X104118245Y-89297219D01*
X104880150Y-88630552D02*
X104880150Y-89297219D01*
X104880150Y-88725790D02*
X104927769Y-88678171D01*
X104927769Y-88678171D02*
X105023007Y-88630552D01*
X105023007Y-88630552D02*
X105165864Y-88630552D01*
X105165864Y-88630552D02*
X105261102Y-88678171D01*
X105261102Y-88678171D02*
X105308721Y-88773409D01*
X105308721Y-88773409D02*
X105308721Y-89297219D01*
D11*
X105238095Y-112254819D02*
X105238095Y-111254819D01*
X105238095Y-111731009D02*
X105809523Y-111731009D01*
X105809523Y-112254819D02*
X105809523Y-111254819D01*
X106809523Y-112254819D02*
X106238095Y-112254819D01*
X106523809Y-112254819D02*
X106523809Y-111254819D01*
X106523809Y-111254819D02*
X106428571Y-111397676D01*
X106428571Y-111397676D02*
X106333333Y-111492914D01*
X106333333Y-111492914D02*
X106238095Y-111540533D01*
X95573333Y-69469580D02*
X95525714Y-69517200D01*
X95525714Y-69517200D02*
X95382857Y-69564819D01*
X95382857Y-69564819D02*
X95287619Y-69564819D01*
X95287619Y-69564819D02*
X95144762Y-69517200D01*
X95144762Y-69517200D02*
X95049524Y-69421961D01*
X95049524Y-69421961D02*
X95001905Y-69326723D01*
X95001905Y-69326723D02*
X94954286Y-69136247D01*
X94954286Y-69136247D02*
X94954286Y-68993390D01*
X94954286Y-68993390D02*
X95001905Y-68802914D01*
X95001905Y-68802914D02*
X95049524Y-68707676D01*
X95049524Y-68707676D02*
X95144762Y-68612438D01*
X95144762Y-68612438D02*
X95287619Y-68564819D01*
X95287619Y-68564819D02*
X95382857Y-68564819D01*
X95382857Y-68564819D02*
X95525714Y-68612438D01*
X95525714Y-68612438D02*
X95573333Y-68660057D01*
X96525714Y-69564819D02*
X95954286Y-69564819D01*
X96240000Y-69564819D02*
X96240000Y-68564819D01*
X96240000Y-68564819D02*
X96144762Y-68707676D01*
X96144762Y-68707676D02*
X96049524Y-68802914D01*
X96049524Y-68802914D02*
X95954286Y-68850533D01*
X56666667Y-93157200D02*
X56809524Y-93204819D01*
X56809524Y-93204819D02*
X57047619Y-93204819D01*
X57047619Y-93204819D02*
X57142857Y-93157200D01*
X57142857Y-93157200D02*
X57190476Y-93109580D01*
X57190476Y-93109580D02*
X57238095Y-93014342D01*
X57238095Y-93014342D02*
X57238095Y-92919104D01*
X57238095Y-92919104D02*
X57190476Y-92823866D01*
X57190476Y-92823866D02*
X57142857Y-92776247D01*
X57142857Y-92776247D02*
X57047619Y-92728628D01*
X57047619Y-92728628D02*
X56857143Y-92681009D01*
X56857143Y-92681009D02*
X56761905Y-92633390D01*
X56761905Y-92633390D02*
X56714286Y-92585771D01*
X56714286Y-92585771D02*
X56666667Y-92490533D01*
X56666667Y-92490533D02*
X56666667Y-92395295D01*
X56666667Y-92395295D02*
X56714286Y-92300057D01*
X56714286Y-92300057D02*
X56761905Y-92252438D01*
X56761905Y-92252438D02*
X56857143Y-92204819D01*
X56857143Y-92204819D02*
X57095238Y-92204819D01*
X57095238Y-92204819D02*
X57238095Y-92252438D01*
X57571429Y-92204819D02*
X57809524Y-93204819D01*
X57809524Y-93204819D02*
X58000000Y-92490533D01*
X58000000Y-92490533D02*
X58190476Y-93204819D01*
X58190476Y-93204819D02*
X58428572Y-92204819D01*
X58714286Y-92204819D02*
X59333333Y-92204819D01*
X59333333Y-92204819D02*
X59000000Y-92585771D01*
X59000000Y-92585771D02*
X59142857Y-92585771D01*
X59142857Y-92585771D02*
X59238095Y-92633390D01*
X59238095Y-92633390D02*
X59285714Y-92681009D01*
X59285714Y-92681009D02*
X59333333Y-92776247D01*
X59333333Y-92776247D02*
X59333333Y-93014342D01*
X59333333Y-93014342D02*
X59285714Y-93109580D01*
X59285714Y-93109580D02*
X59238095Y-93157200D01*
X59238095Y-93157200D02*
X59142857Y-93204819D01*
X59142857Y-93204819D02*
X58857143Y-93204819D01*
X58857143Y-93204819D02*
X58761905Y-93157200D01*
X58761905Y-93157200D02*
X58714286Y-93109580D01*
X56666667Y-75157200D02*
X56809524Y-75204819D01*
X56809524Y-75204819D02*
X57047619Y-75204819D01*
X57047619Y-75204819D02*
X57142857Y-75157200D01*
X57142857Y-75157200D02*
X57190476Y-75109580D01*
X57190476Y-75109580D02*
X57238095Y-75014342D01*
X57238095Y-75014342D02*
X57238095Y-74919104D01*
X57238095Y-74919104D02*
X57190476Y-74823866D01*
X57190476Y-74823866D02*
X57142857Y-74776247D01*
X57142857Y-74776247D02*
X57047619Y-74728628D01*
X57047619Y-74728628D02*
X56857143Y-74681009D01*
X56857143Y-74681009D02*
X56761905Y-74633390D01*
X56761905Y-74633390D02*
X56714286Y-74585771D01*
X56714286Y-74585771D02*
X56666667Y-74490533D01*
X56666667Y-74490533D02*
X56666667Y-74395295D01*
X56666667Y-74395295D02*
X56714286Y-74300057D01*
X56714286Y-74300057D02*
X56761905Y-74252438D01*
X56761905Y-74252438D02*
X56857143Y-74204819D01*
X56857143Y-74204819D02*
X57095238Y-74204819D01*
X57095238Y-74204819D02*
X57238095Y-74252438D01*
X57571429Y-74204819D02*
X57809524Y-75204819D01*
X57809524Y-75204819D02*
X58000000Y-74490533D01*
X58000000Y-74490533D02*
X58190476Y-75204819D01*
X58190476Y-75204819D02*
X58428572Y-74204819D01*
X58761905Y-74300057D02*
X58809524Y-74252438D01*
X58809524Y-74252438D02*
X58904762Y-74204819D01*
X58904762Y-74204819D02*
X59142857Y-74204819D01*
X59142857Y-74204819D02*
X59238095Y-74252438D01*
X59238095Y-74252438D02*
X59285714Y-74300057D01*
X59285714Y-74300057D02*
X59333333Y-74395295D01*
X59333333Y-74395295D02*
X59333333Y-74490533D01*
X59333333Y-74490533D02*
X59285714Y-74633390D01*
X59285714Y-74633390D02*
X58714286Y-75204819D01*
X58714286Y-75204819D02*
X59333333Y-75204819D01*
X101428095Y-52994819D02*
X101428095Y-51994819D01*
X101428095Y-52471009D02*
X101999523Y-52471009D01*
X101999523Y-52994819D02*
X101999523Y-51994819D01*
X102904285Y-52328152D02*
X102904285Y-52994819D01*
X102666190Y-51947200D02*
X102428095Y-52661485D01*
X102428095Y-52661485D02*
X103047142Y-52661485D01*
X56666667Y-59157200D02*
X56809524Y-59204819D01*
X56809524Y-59204819D02*
X57047619Y-59204819D01*
X57047619Y-59204819D02*
X57142857Y-59157200D01*
X57142857Y-59157200D02*
X57190476Y-59109580D01*
X57190476Y-59109580D02*
X57238095Y-59014342D01*
X57238095Y-59014342D02*
X57238095Y-58919104D01*
X57238095Y-58919104D02*
X57190476Y-58823866D01*
X57190476Y-58823866D02*
X57142857Y-58776247D01*
X57142857Y-58776247D02*
X57047619Y-58728628D01*
X57047619Y-58728628D02*
X56857143Y-58681009D01*
X56857143Y-58681009D02*
X56761905Y-58633390D01*
X56761905Y-58633390D02*
X56714286Y-58585771D01*
X56714286Y-58585771D02*
X56666667Y-58490533D01*
X56666667Y-58490533D02*
X56666667Y-58395295D01*
X56666667Y-58395295D02*
X56714286Y-58300057D01*
X56714286Y-58300057D02*
X56761905Y-58252438D01*
X56761905Y-58252438D02*
X56857143Y-58204819D01*
X56857143Y-58204819D02*
X57095238Y-58204819D01*
X57095238Y-58204819D02*
X57238095Y-58252438D01*
X57571429Y-58204819D02*
X57809524Y-59204819D01*
X57809524Y-59204819D02*
X58000000Y-58490533D01*
X58000000Y-58490533D02*
X58190476Y-59204819D01*
X58190476Y-59204819D02*
X58428572Y-58204819D01*
X59333333Y-59204819D02*
X58761905Y-59204819D01*
X59047619Y-59204819D02*
X59047619Y-58204819D01*
X59047619Y-58204819D02*
X58952381Y-58347676D01*
X58952381Y-58347676D02*
X58857143Y-58442914D01*
X58857143Y-58442914D02*
X58761905Y-58490533D01*
X95573333Y-63349580D02*
X95525714Y-63397200D01*
X95525714Y-63397200D02*
X95382857Y-63444819D01*
X95382857Y-63444819D02*
X95287619Y-63444819D01*
X95287619Y-63444819D02*
X95144762Y-63397200D01*
X95144762Y-63397200D02*
X95049524Y-63301961D01*
X95049524Y-63301961D02*
X95001905Y-63206723D01*
X95001905Y-63206723D02*
X94954286Y-63016247D01*
X94954286Y-63016247D02*
X94954286Y-62873390D01*
X94954286Y-62873390D02*
X95001905Y-62682914D01*
X95001905Y-62682914D02*
X95049524Y-62587676D01*
X95049524Y-62587676D02*
X95144762Y-62492438D01*
X95144762Y-62492438D02*
X95287619Y-62444819D01*
X95287619Y-62444819D02*
X95382857Y-62444819D01*
X95382857Y-62444819D02*
X95525714Y-62492438D01*
X95525714Y-62492438D02*
X95573333Y-62540057D01*
X95954286Y-62540057D02*
X96001905Y-62492438D01*
X96001905Y-62492438D02*
X96097143Y-62444819D01*
X96097143Y-62444819D02*
X96335238Y-62444819D01*
X96335238Y-62444819D02*
X96430476Y-62492438D01*
X96430476Y-62492438D02*
X96478095Y-62540057D01*
X96478095Y-62540057D02*
X96525714Y-62635295D01*
X96525714Y-62635295D02*
X96525714Y-62730533D01*
X96525714Y-62730533D02*
X96478095Y-62873390D01*
X96478095Y-62873390D02*
X95906667Y-63444819D01*
X95906667Y-63444819D02*
X96525714Y-63444819D01*
X96656666Y-79704819D02*
X96656666Y-80419104D01*
X96656666Y-80419104D02*
X96609047Y-80561961D01*
X96609047Y-80561961D02*
X96513809Y-80657200D01*
X96513809Y-80657200D02*
X96370952Y-80704819D01*
X96370952Y-80704819D02*
X96275714Y-80704819D01*
X97656666Y-80704819D02*
X97085238Y-80704819D01*
X97370952Y-80704819D02*
X97370952Y-79704819D01*
X97370952Y-79704819D02*
X97275714Y-79847676D01*
X97275714Y-79847676D02*
X97180476Y-79942914D01*
X97180476Y-79942914D02*
X97085238Y-79990533D01*
X101736666Y-59384819D02*
X101736666Y-60099104D01*
X101736666Y-60099104D02*
X101689047Y-60241961D01*
X101689047Y-60241961D02*
X101593809Y-60337200D01*
X101593809Y-60337200D02*
X101450952Y-60384819D01*
X101450952Y-60384819D02*
X101355714Y-60384819D01*
X102641428Y-59718152D02*
X102641428Y-60384819D01*
X102403333Y-59337200D02*
X102165238Y-60051485D01*
X102165238Y-60051485D02*
X102784285Y-60051485D01*
X92871666Y-105119819D02*
X92871666Y-105834104D01*
X92871666Y-105834104D02*
X92824047Y-105976961D01*
X92824047Y-105976961D02*
X92728809Y-106072200D01*
X92728809Y-106072200D02*
X92585952Y-106119819D01*
X92585952Y-106119819D02*
X92490714Y-106119819D01*
X93300238Y-105215057D02*
X93347857Y-105167438D01*
X93347857Y-105167438D02*
X93443095Y-105119819D01*
X93443095Y-105119819D02*
X93681190Y-105119819D01*
X93681190Y-105119819D02*
X93776428Y-105167438D01*
X93776428Y-105167438D02*
X93824047Y-105215057D01*
X93824047Y-105215057D02*
X93871666Y-105310295D01*
X93871666Y-105310295D02*
X93871666Y-105405533D01*
X93871666Y-105405533D02*
X93824047Y-105548390D01*
X93824047Y-105548390D02*
X93252619Y-106119819D01*
X93252619Y-106119819D02*
X93871666Y-106119819D01*
X101736666Y-68274819D02*
X101736666Y-68989104D01*
X101736666Y-68989104D02*
X101689047Y-69131961D01*
X101689047Y-69131961D02*
X101593809Y-69227200D01*
X101593809Y-69227200D02*
X101450952Y-69274819D01*
X101450952Y-69274819D02*
X101355714Y-69274819D01*
X102689047Y-68274819D02*
X102212857Y-68274819D01*
X102212857Y-68274819D02*
X102165238Y-68751009D01*
X102165238Y-68751009D02*
X102212857Y-68703390D01*
X102212857Y-68703390D02*
X102308095Y-68655771D01*
X102308095Y-68655771D02*
X102546190Y-68655771D01*
X102546190Y-68655771D02*
X102641428Y-68703390D01*
X102641428Y-68703390D02*
X102689047Y-68751009D01*
X102689047Y-68751009D02*
X102736666Y-68846247D01*
X102736666Y-68846247D02*
X102736666Y-69084342D01*
X102736666Y-69084342D02*
X102689047Y-69179580D01*
X102689047Y-69179580D02*
X102641428Y-69227200D01*
X102641428Y-69227200D02*
X102546190Y-69274819D01*
X102546190Y-69274819D02*
X102308095Y-69274819D01*
X102308095Y-69274819D02*
X102212857Y-69227200D01*
X102212857Y-69227200D02*
X102165238Y-69179580D01*
X63661666Y-105119819D02*
X63661666Y-105834104D01*
X63661666Y-105834104D02*
X63614047Y-105976961D01*
X63614047Y-105976961D02*
X63518809Y-106072200D01*
X63518809Y-106072200D02*
X63375952Y-106119819D01*
X63375952Y-106119819D02*
X63280714Y-106119819D01*
X64042619Y-105119819D02*
X64661666Y-105119819D01*
X64661666Y-105119819D02*
X64328333Y-105500771D01*
X64328333Y-105500771D02*
X64471190Y-105500771D01*
X64471190Y-105500771D02*
X64566428Y-105548390D01*
X64566428Y-105548390D02*
X64614047Y-105596009D01*
X64614047Y-105596009D02*
X64661666Y-105691247D01*
X64661666Y-105691247D02*
X64661666Y-105929342D01*
X64661666Y-105929342D02*
X64614047Y-106024580D01*
X64614047Y-106024580D02*
X64566428Y-106072200D01*
X64566428Y-106072200D02*
X64471190Y-106119819D01*
X64471190Y-106119819D02*
X64185476Y-106119819D01*
X64185476Y-106119819D02*
X64090238Y-106072200D01*
X64090238Y-106072200D02*
X64042619Y-106024580D01*
X77178095Y-76124819D02*
X77178095Y-76934342D01*
X77178095Y-76934342D02*
X77225714Y-77029580D01*
X77225714Y-77029580D02*
X77273333Y-77077200D01*
X77273333Y-77077200D02*
X77368571Y-77124819D01*
X77368571Y-77124819D02*
X77559047Y-77124819D01*
X77559047Y-77124819D02*
X77654285Y-77077200D01*
X77654285Y-77077200D02*
X77701904Y-77029580D01*
X77701904Y-77029580D02*
X77749523Y-76934342D01*
X77749523Y-76934342D02*
X77749523Y-76124819D01*
X78749523Y-77124819D02*
X78178095Y-77124819D01*
X78463809Y-77124819D02*
X78463809Y-76124819D01*
X78463809Y-76124819D02*
X78368571Y-76267676D01*
X78368571Y-76267676D02*
X78273333Y-76362914D01*
X78273333Y-76362914D02*
X78178095Y-76410533D01*
X64353372Y-60281494D02*
X64272560Y-60308431D01*
X64272560Y-60308431D02*
X64191748Y-60389243D01*
X64191748Y-60389243D02*
X64137873Y-60496993D01*
X64137873Y-60496993D02*
X64137873Y-60604742D01*
X64137873Y-60604742D02*
X64164810Y-60685555D01*
X64164810Y-60685555D02*
X64245623Y-60820242D01*
X64245623Y-60820242D02*
X64326435Y-60901054D01*
X64326435Y-60901054D02*
X64461122Y-60981866D01*
X64461122Y-60981866D02*
X64541934Y-61008803D01*
X64541934Y-61008803D02*
X64649684Y-61008803D01*
X64649684Y-61008803D02*
X64757433Y-60954929D01*
X64757433Y-60954929D02*
X64811308Y-60901054D01*
X64811308Y-60901054D02*
X64865183Y-60793304D01*
X64865183Y-60793304D02*
X64865183Y-60739429D01*
X64865183Y-60739429D02*
X64676621Y-60550868D01*
X64676621Y-60550868D02*
X64568871Y-60658617D01*
X65161494Y-60550868D02*
X64595809Y-59985182D01*
X64595809Y-59985182D02*
X64811308Y-59769683D01*
X64811308Y-59769683D02*
X64892120Y-59742746D01*
X64892120Y-59742746D02*
X64945995Y-59742746D01*
X64945995Y-59742746D02*
X65026807Y-59769683D01*
X65026807Y-59769683D02*
X65107619Y-59850495D01*
X65107619Y-59850495D02*
X65134557Y-59931307D01*
X65134557Y-59931307D02*
X65134557Y-59985182D01*
X65134557Y-59985182D02*
X65107619Y-60065994D01*
X65107619Y-60065994D02*
X64892120Y-60281494D01*
X65188432Y-59500309D02*
X65188432Y-59446434D01*
X65188432Y-59446434D02*
X65215369Y-59365622D01*
X65215369Y-59365622D02*
X65350056Y-59230935D01*
X65350056Y-59230935D02*
X65430868Y-59203998D01*
X65430868Y-59203998D02*
X65484743Y-59203998D01*
X65484743Y-59203998D02*
X65565555Y-59230935D01*
X65565555Y-59230935D02*
X65619430Y-59284810D01*
X65619430Y-59284810D02*
X65673305Y-59392559D01*
X65673305Y-59392559D02*
X65673305Y-60039057D01*
X65673305Y-60039057D02*
X66023491Y-59688871D01*
X64426435Y-83168431D02*
X64345623Y-83195368D01*
X64345623Y-83195368D02*
X64264811Y-83276180D01*
X64264811Y-83276180D02*
X64210936Y-83383930D01*
X64210936Y-83383930D02*
X64210936Y-83491680D01*
X64210936Y-83491680D02*
X64237873Y-83572492D01*
X64237873Y-83572492D02*
X64318685Y-83707179D01*
X64318685Y-83707179D02*
X64399498Y-83787991D01*
X64399498Y-83787991D02*
X64534185Y-83868803D01*
X64534185Y-83868803D02*
X64614997Y-83895741D01*
X64614997Y-83895741D02*
X64722746Y-83895741D01*
X64722746Y-83895741D02*
X64830496Y-83841866D01*
X64830496Y-83841866D02*
X64884371Y-83787991D01*
X64884371Y-83787991D02*
X64938246Y-83680241D01*
X64938246Y-83680241D02*
X64938246Y-83626367D01*
X64938246Y-83626367D02*
X64749684Y-83437805D01*
X64749684Y-83437805D02*
X64641934Y-83545554D01*
X65234557Y-83437805D02*
X64668872Y-82872119D01*
X64668872Y-82872119D02*
X65557806Y-83114556D01*
X65557806Y-83114556D02*
X64992120Y-82548871D01*
X65827180Y-82845182D02*
X65261494Y-82279497D01*
X65261494Y-82279497D02*
X65396181Y-82144810D01*
X65396181Y-82144810D02*
X65503931Y-82090935D01*
X65503931Y-82090935D02*
X65611680Y-82090935D01*
X65611680Y-82090935D02*
X65692493Y-82117872D01*
X65692493Y-82117872D02*
X65827180Y-82198685D01*
X65827180Y-82198685D02*
X65907992Y-82279497D01*
X65907992Y-82279497D02*
X65988804Y-82414184D01*
X65988804Y-82414184D02*
X66015741Y-82494996D01*
X66015741Y-82494996D02*
X66015741Y-82602746D01*
X66015741Y-82602746D02*
X65961867Y-82710495D01*
X65961867Y-82710495D02*
X65827180Y-82845182D01*
X64453372Y-78061494D02*
X64372560Y-78088431D01*
X64372560Y-78088431D02*
X64291748Y-78169243D01*
X64291748Y-78169243D02*
X64237873Y-78276993D01*
X64237873Y-78276993D02*
X64237873Y-78384742D01*
X64237873Y-78384742D02*
X64264810Y-78465555D01*
X64264810Y-78465555D02*
X64345623Y-78600242D01*
X64345623Y-78600242D02*
X64426435Y-78681054D01*
X64426435Y-78681054D02*
X64561122Y-78761866D01*
X64561122Y-78761866D02*
X64641934Y-78788803D01*
X64641934Y-78788803D02*
X64749684Y-78788803D01*
X64749684Y-78788803D02*
X64857433Y-78734929D01*
X64857433Y-78734929D02*
X64911308Y-78681054D01*
X64911308Y-78681054D02*
X64965183Y-78573304D01*
X64965183Y-78573304D02*
X64965183Y-78519429D01*
X64965183Y-78519429D02*
X64776621Y-78330868D01*
X64776621Y-78330868D02*
X64668871Y-78438617D01*
X65261494Y-78330868D02*
X64695809Y-77765182D01*
X64695809Y-77765182D02*
X64911308Y-77549683D01*
X64911308Y-77549683D02*
X64992120Y-77522746D01*
X64992120Y-77522746D02*
X65045995Y-77522746D01*
X65045995Y-77522746D02*
X65126807Y-77549683D01*
X65126807Y-77549683D02*
X65207619Y-77630495D01*
X65207619Y-77630495D02*
X65234557Y-77711307D01*
X65234557Y-77711307D02*
X65234557Y-77765182D01*
X65234557Y-77765182D02*
X65207619Y-77845994D01*
X65207619Y-77845994D02*
X64992120Y-78061494D01*
X65584743Y-77361121D02*
X65503931Y-77388059D01*
X65503931Y-77388059D02*
X65450056Y-77388059D01*
X65450056Y-77388059D02*
X65369244Y-77361121D01*
X65369244Y-77361121D02*
X65342306Y-77334184D01*
X65342306Y-77334184D02*
X65315369Y-77253372D01*
X65315369Y-77253372D02*
X65315369Y-77199497D01*
X65315369Y-77199497D02*
X65342306Y-77118685D01*
X65342306Y-77118685D02*
X65450056Y-77010935D01*
X65450056Y-77010935D02*
X65530868Y-76983998D01*
X65530868Y-76983998D02*
X65584743Y-76983998D01*
X65584743Y-76983998D02*
X65665555Y-77010935D01*
X65665555Y-77010935D02*
X65692493Y-77037872D01*
X65692493Y-77037872D02*
X65719430Y-77118685D01*
X65719430Y-77118685D02*
X65719430Y-77172559D01*
X65719430Y-77172559D02*
X65692493Y-77253372D01*
X65692493Y-77253372D02*
X65584743Y-77361121D01*
X65584743Y-77361121D02*
X65557806Y-77441933D01*
X65557806Y-77441933D02*
X65557806Y-77495808D01*
X65557806Y-77495808D02*
X65584743Y-77576620D01*
X65584743Y-77576620D02*
X65692493Y-77684370D01*
X65692493Y-77684370D02*
X65773305Y-77711307D01*
X65773305Y-77711307D02*
X65827180Y-77711307D01*
X65827180Y-77711307D02*
X65907992Y-77684370D01*
X65907992Y-77684370D02*
X66015741Y-77576620D01*
X66015741Y-77576620D02*
X66042679Y-77495808D01*
X66042679Y-77495808D02*
X66042679Y-77441933D01*
X66042679Y-77441933D02*
X66015741Y-77361121D01*
X66015741Y-77361121D02*
X65907992Y-77253372D01*
X65907992Y-77253372D02*
X65827180Y-77226434D01*
X65827180Y-77226434D02*
X65773305Y-77226434D01*
X65773305Y-77226434D02*
X65692493Y-77253372D01*
X89860749Y-55740242D02*
X90614996Y-56117366D01*
X90614996Y-56117366D02*
X90237873Y-55363118D01*
X90938245Y-55740242D02*
X91045995Y-55686367D01*
X91045995Y-55686367D02*
X91180682Y-55551680D01*
X91180682Y-55551680D02*
X91207619Y-55470868D01*
X91207619Y-55470868D02*
X91207619Y-55416993D01*
X91207619Y-55416993D02*
X91180682Y-55336181D01*
X91180682Y-55336181D02*
X91126807Y-55282306D01*
X91126807Y-55282306D02*
X91045995Y-55255369D01*
X91045995Y-55255369D02*
X90992120Y-55255369D01*
X90992120Y-55255369D02*
X90911308Y-55282306D01*
X90911308Y-55282306D02*
X90776621Y-55363118D01*
X90776621Y-55363118D02*
X90695808Y-55390056D01*
X90695808Y-55390056D02*
X90641934Y-55390056D01*
X90641934Y-55390056D02*
X90561121Y-55363118D01*
X90561121Y-55363118D02*
X90507247Y-55309244D01*
X90507247Y-55309244D02*
X90480309Y-55228431D01*
X90480309Y-55228431D02*
X90480309Y-55174557D01*
X90480309Y-55174557D02*
X90507247Y-55093744D01*
X90507247Y-55093744D02*
X90641934Y-54959057D01*
X90641934Y-54959057D02*
X90749683Y-54905183D01*
X91369244Y-54824370D02*
X91638618Y-55093744D01*
X90884370Y-54716621D02*
X91369244Y-54824370D01*
X91369244Y-54824370D02*
X91261494Y-54339497D01*
X91961866Y-54716621D02*
X92069616Y-54662746D01*
X92069616Y-54662746D02*
X92204303Y-54528059D01*
X92204303Y-54528059D02*
X92231240Y-54447247D01*
X92231240Y-54447247D02*
X92231240Y-54393372D01*
X92231240Y-54393372D02*
X92204303Y-54312560D01*
X92204303Y-54312560D02*
X92150428Y-54258685D01*
X92150428Y-54258685D02*
X92069616Y-54231748D01*
X92069616Y-54231748D02*
X92015741Y-54231748D01*
X92015741Y-54231748D02*
X91934929Y-54258685D01*
X91934929Y-54258685D02*
X91800242Y-54339497D01*
X91800242Y-54339497D02*
X91719430Y-54366435D01*
X91719430Y-54366435D02*
X91665555Y-54366435D01*
X91665555Y-54366435D02*
X91584743Y-54339497D01*
X91584743Y-54339497D02*
X91530868Y-54285622D01*
X91530868Y-54285622D02*
X91503930Y-54204810D01*
X91503930Y-54204810D02*
X91503930Y-54150935D01*
X91503930Y-54150935D02*
X91530868Y-54070123D01*
X91530868Y-54070123D02*
X91665555Y-53935436D01*
X91665555Y-53935436D02*
X91773304Y-53881561D01*
X63783998Y-91030868D02*
X63703185Y-91057805D01*
X63703185Y-91057805D02*
X63622373Y-91138618D01*
X63622373Y-91138618D02*
X63568498Y-91246367D01*
X63568498Y-91246367D02*
X63568498Y-91354117D01*
X63568498Y-91354117D02*
X63595436Y-91434929D01*
X63595436Y-91434929D02*
X63676248Y-91569616D01*
X63676248Y-91569616D02*
X63757060Y-91650428D01*
X63757060Y-91650428D02*
X63891747Y-91731241D01*
X63891747Y-91731241D02*
X63972560Y-91758178D01*
X63972560Y-91758178D02*
X64080309Y-91758178D01*
X64080309Y-91758178D02*
X64188059Y-91704303D01*
X64188059Y-91704303D02*
X64241934Y-91650428D01*
X64241934Y-91650428D02*
X64295808Y-91542679D01*
X64295808Y-91542679D02*
X64295808Y-91488804D01*
X64295808Y-91488804D02*
X64107247Y-91300242D01*
X64107247Y-91300242D02*
X63999497Y-91407992D01*
X64592120Y-91300242D02*
X64026434Y-90734557D01*
X64026434Y-90734557D02*
X64241934Y-90519057D01*
X64241934Y-90519057D02*
X64322746Y-90492120D01*
X64322746Y-90492120D02*
X64376621Y-90492120D01*
X64376621Y-90492120D02*
X64457433Y-90519057D01*
X64457433Y-90519057D02*
X64538245Y-90599870D01*
X64538245Y-90599870D02*
X64565182Y-90680682D01*
X64565182Y-90680682D02*
X64565182Y-90734557D01*
X64565182Y-90734557D02*
X64538245Y-90815369D01*
X64538245Y-90815369D02*
X64322746Y-91030868D01*
X65454117Y-90438245D02*
X65130868Y-90761494D01*
X65292492Y-90599870D02*
X64726807Y-90034184D01*
X64726807Y-90034184D02*
X64753744Y-90168871D01*
X64753744Y-90168871D02*
X64753744Y-90276621D01*
X64753744Y-90276621D02*
X64726807Y-90357433D01*
X65157805Y-89710935D02*
X65157805Y-89657060D01*
X65157805Y-89657060D02*
X65184743Y-89576248D01*
X65184743Y-89576248D02*
X65319430Y-89441561D01*
X65319430Y-89441561D02*
X65400242Y-89414624D01*
X65400242Y-89414624D02*
X65454117Y-89414624D01*
X65454117Y-89414624D02*
X65534929Y-89441561D01*
X65534929Y-89441561D02*
X65588804Y-89495436D01*
X65588804Y-89495436D02*
X65642679Y-89603186D01*
X65642679Y-89603186D02*
X65642679Y-90249683D01*
X65642679Y-90249683D02*
X65992865Y-89899497D01*
X90026435Y-57768431D02*
X89945623Y-57795368D01*
X89945623Y-57795368D02*
X89864811Y-57876180D01*
X89864811Y-57876180D02*
X89810936Y-57983930D01*
X89810936Y-57983930D02*
X89810936Y-58091680D01*
X89810936Y-58091680D02*
X89837873Y-58172492D01*
X89837873Y-58172492D02*
X89918685Y-58307179D01*
X89918685Y-58307179D02*
X89999498Y-58387991D01*
X89999498Y-58387991D02*
X90134185Y-58468803D01*
X90134185Y-58468803D02*
X90214997Y-58495741D01*
X90214997Y-58495741D02*
X90322746Y-58495741D01*
X90322746Y-58495741D02*
X90430496Y-58441866D01*
X90430496Y-58441866D02*
X90484371Y-58387991D01*
X90484371Y-58387991D02*
X90538246Y-58280241D01*
X90538246Y-58280241D02*
X90538246Y-58226367D01*
X90538246Y-58226367D02*
X90349684Y-58037805D01*
X90349684Y-58037805D02*
X90241934Y-58145554D01*
X90834557Y-58037805D02*
X90268872Y-57472119D01*
X90268872Y-57472119D02*
X91157806Y-57714556D01*
X91157806Y-57714556D02*
X90592120Y-57148871D01*
X91427180Y-57445182D02*
X90861494Y-56879497D01*
X90861494Y-56879497D02*
X90996181Y-56744810D01*
X90996181Y-56744810D02*
X91103931Y-56690935D01*
X91103931Y-56690935D02*
X91211680Y-56690935D01*
X91211680Y-56690935D02*
X91292493Y-56717872D01*
X91292493Y-56717872D02*
X91427180Y-56798685D01*
X91427180Y-56798685D02*
X91507992Y-56879497D01*
X91507992Y-56879497D02*
X91588804Y-57014184D01*
X91588804Y-57014184D02*
X91615741Y-57094996D01*
X91615741Y-57094996D02*
X91615741Y-57202746D01*
X91615741Y-57202746D02*
X91561867Y-57310495D01*
X91561867Y-57310495D02*
X91427180Y-57445182D01*
X90037998Y-98650868D02*
X89957185Y-98677805D01*
X89957185Y-98677805D02*
X89876373Y-98758618D01*
X89876373Y-98758618D02*
X89822498Y-98866367D01*
X89822498Y-98866367D02*
X89822498Y-98974117D01*
X89822498Y-98974117D02*
X89849436Y-99054929D01*
X89849436Y-99054929D02*
X89930248Y-99189616D01*
X89930248Y-99189616D02*
X90011060Y-99270428D01*
X90011060Y-99270428D02*
X90145747Y-99351241D01*
X90145747Y-99351241D02*
X90226560Y-99378178D01*
X90226560Y-99378178D02*
X90334309Y-99378178D01*
X90334309Y-99378178D02*
X90442059Y-99324303D01*
X90442059Y-99324303D02*
X90495934Y-99270428D01*
X90495934Y-99270428D02*
X90549808Y-99162679D01*
X90549808Y-99162679D02*
X90549808Y-99108804D01*
X90549808Y-99108804D02*
X90361247Y-98920242D01*
X90361247Y-98920242D02*
X90253497Y-99027992D01*
X90846120Y-98920242D02*
X90280434Y-98354557D01*
X90280434Y-98354557D02*
X90495934Y-98139057D01*
X90495934Y-98139057D02*
X90576746Y-98112120D01*
X90576746Y-98112120D02*
X90630621Y-98112120D01*
X90630621Y-98112120D02*
X90711433Y-98139057D01*
X90711433Y-98139057D02*
X90792245Y-98219870D01*
X90792245Y-98219870D02*
X90819182Y-98300682D01*
X90819182Y-98300682D02*
X90819182Y-98354557D01*
X90819182Y-98354557D02*
X90792245Y-98435369D01*
X90792245Y-98435369D02*
X90576746Y-98650868D01*
X91708117Y-98058245D02*
X91384868Y-98381494D01*
X91546492Y-98219870D02*
X90980807Y-97654184D01*
X90980807Y-97654184D02*
X91007744Y-97788871D01*
X91007744Y-97788871D02*
X91007744Y-97896621D01*
X91007744Y-97896621D02*
X90980807Y-97977433D01*
X91330993Y-97303998D02*
X91708117Y-96926874D01*
X91708117Y-96926874D02*
X92031366Y-97734996D01*
X64453372Y-65361494D02*
X64372560Y-65388431D01*
X64372560Y-65388431D02*
X64291748Y-65469243D01*
X64291748Y-65469243D02*
X64237873Y-65576993D01*
X64237873Y-65576993D02*
X64237873Y-65684742D01*
X64237873Y-65684742D02*
X64264810Y-65765555D01*
X64264810Y-65765555D02*
X64345623Y-65900242D01*
X64345623Y-65900242D02*
X64426435Y-65981054D01*
X64426435Y-65981054D02*
X64561122Y-66061866D01*
X64561122Y-66061866D02*
X64641934Y-66088803D01*
X64641934Y-66088803D02*
X64749684Y-66088803D01*
X64749684Y-66088803D02*
X64857433Y-66034929D01*
X64857433Y-66034929D02*
X64911308Y-65981054D01*
X64911308Y-65981054D02*
X64965183Y-65873304D01*
X64965183Y-65873304D02*
X64965183Y-65819429D01*
X64965183Y-65819429D02*
X64776621Y-65630868D01*
X64776621Y-65630868D02*
X64668871Y-65738617D01*
X65261494Y-65630868D02*
X64695809Y-65065182D01*
X64695809Y-65065182D02*
X64911308Y-64849683D01*
X64911308Y-64849683D02*
X64992120Y-64822746D01*
X64992120Y-64822746D02*
X65045995Y-64822746D01*
X65045995Y-64822746D02*
X65126807Y-64849683D01*
X65126807Y-64849683D02*
X65207619Y-64930495D01*
X65207619Y-64930495D02*
X65234557Y-65011307D01*
X65234557Y-65011307D02*
X65234557Y-65065182D01*
X65234557Y-65065182D02*
X65207619Y-65145994D01*
X65207619Y-65145994D02*
X64992120Y-65361494D01*
X65692493Y-64445622D02*
X66069616Y-64822746D01*
X65342306Y-64364810D02*
X65611680Y-64903558D01*
X65611680Y-64903558D02*
X65961867Y-64553372D01*
X64453372Y-72981494D02*
X64372560Y-73008431D01*
X64372560Y-73008431D02*
X64291748Y-73089243D01*
X64291748Y-73089243D02*
X64237873Y-73196993D01*
X64237873Y-73196993D02*
X64237873Y-73304742D01*
X64237873Y-73304742D02*
X64264810Y-73385555D01*
X64264810Y-73385555D02*
X64345623Y-73520242D01*
X64345623Y-73520242D02*
X64426435Y-73601054D01*
X64426435Y-73601054D02*
X64561122Y-73681866D01*
X64561122Y-73681866D02*
X64641934Y-73708803D01*
X64641934Y-73708803D02*
X64749684Y-73708803D01*
X64749684Y-73708803D02*
X64857433Y-73654929D01*
X64857433Y-73654929D02*
X64911308Y-73601054D01*
X64911308Y-73601054D02*
X64965183Y-73493304D01*
X64965183Y-73493304D02*
X64965183Y-73439429D01*
X64965183Y-73439429D02*
X64776621Y-73250868D01*
X64776621Y-73250868D02*
X64668871Y-73358617D01*
X65261494Y-73250868D02*
X64695809Y-72685182D01*
X64695809Y-72685182D02*
X64911308Y-72469683D01*
X64911308Y-72469683D02*
X64992120Y-72442746D01*
X64992120Y-72442746D02*
X65045995Y-72442746D01*
X65045995Y-72442746D02*
X65126807Y-72469683D01*
X65126807Y-72469683D02*
X65207619Y-72550495D01*
X65207619Y-72550495D02*
X65234557Y-72631307D01*
X65234557Y-72631307D02*
X65234557Y-72685182D01*
X65234557Y-72685182D02*
X65207619Y-72765994D01*
X65207619Y-72765994D02*
X64992120Y-72981494D01*
X65503931Y-71877060D02*
X65396181Y-71984810D01*
X65396181Y-71984810D02*
X65369244Y-72065622D01*
X65369244Y-72065622D02*
X65369244Y-72119497D01*
X65369244Y-72119497D02*
X65396181Y-72254184D01*
X65396181Y-72254184D02*
X65476993Y-72388871D01*
X65476993Y-72388871D02*
X65692493Y-72604370D01*
X65692493Y-72604370D02*
X65773305Y-72631307D01*
X65773305Y-72631307D02*
X65827180Y-72631307D01*
X65827180Y-72631307D02*
X65907992Y-72604370D01*
X65907992Y-72604370D02*
X66015741Y-72496620D01*
X66015741Y-72496620D02*
X66042679Y-72415808D01*
X66042679Y-72415808D02*
X66042679Y-72361933D01*
X66042679Y-72361933D02*
X66015741Y-72281121D01*
X66015741Y-72281121D02*
X65881054Y-72146434D01*
X65881054Y-72146434D02*
X65800242Y-72119497D01*
X65800242Y-72119497D02*
X65746367Y-72119497D01*
X65746367Y-72119497D02*
X65665555Y-72146434D01*
X65665555Y-72146434D02*
X65557806Y-72254184D01*
X65557806Y-72254184D02*
X65530868Y-72334996D01*
X65530868Y-72334996D02*
X65530868Y-72388871D01*
X65530868Y-72388871D02*
X65557806Y-72469683D01*
X64453372Y-62821494D02*
X64372560Y-62848431D01*
X64372560Y-62848431D02*
X64291748Y-62929243D01*
X64291748Y-62929243D02*
X64237873Y-63036993D01*
X64237873Y-63036993D02*
X64237873Y-63144742D01*
X64237873Y-63144742D02*
X64264810Y-63225555D01*
X64264810Y-63225555D02*
X64345623Y-63360242D01*
X64345623Y-63360242D02*
X64426435Y-63441054D01*
X64426435Y-63441054D02*
X64561122Y-63521866D01*
X64561122Y-63521866D02*
X64641934Y-63548803D01*
X64641934Y-63548803D02*
X64749684Y-63548803D01*
X64749684Y-63548803D02*
X64857433Y-63494929D01*
X64857433Y-63494929D02*
X64911308Y-63441054D01*
X64911308Y-63441054D02*
X64965183Y-63333304D01*
X64965183Y-63333304D02*
X64965183Y-63279429D01*
X64965183Y-63279429D02*
X64776621Y-63090868D01*
X64776621Y-63090868D02*
X64668871Y-63198617D01*
X65261494Y-63090868D02*
X64695809Y-62525182D01*
X64695809Y-62525182D02*
X64911308Y-62309683D01*
X64911308Y-62309683D02*
X64992120Y-62282746D01*
X64992120Y-62282746D02*
X65045995Y-62282746D01*
X65045995Y-62282746D02*
X65126807Y-62309683D01*
X65126807Y-62309683D02*
X65207619Y-62390495D01*
X65207619Y-62390495D02*
X65234557Y-62471307D01*
X65234557Y-62471307D02*
X65234557Y-62525182D01*
X65234557Y-62525182D02*
X65207619Y-62605994D01*
X65207619Y-62605994D02*
X64992120Y-62821494D01*
X65207619Y-62013372D02*
X65557806Y-61663185D01*
X65557806Y-61663185D02*
X65584743Y-62067246D01*
X65584743Y-62067246D02*
X65665555Y-61986434D01*
X65665555Y-61986434D02*
X65746367Y-61959497D01*
X65746367Y-61959497D02*
X65800242Y-61959497D01*
X65800242Y-61959497D02*
X65881054Y-61986434D01*
X65881054Y-61986434D02*
X66015741Y-62121121D01*
X66015741Y-62121121D02*
X66042679Y-62201933D01*
X66042679Y-62201933D02*
X66042679Y-62255808D01*
X66042679Y-62255808D02*
X66015741Y-62336620D01*
X66015741Y-62336620D02*
X65854117Y-62498245D01*
X65854117Y-62498245D02*
X65773305Y-62525182D01*
X65773305Y-62525182D02*
X65719430Y-62525182D01*
X64426435Y-95868431D02*
X64345623Y-95895368D01*
X64345623Y-95895368D02*
X64264811Y-95976180D01*
X64264811Y-95976180D02*
X64210936Y-96083930D01*
X64210936Y-96083930D02*
X64210936Y-96191680D01*
X64210936Y-96191680D02*
X64237873Y-96272492D01*
X64237873Y-96272492D02*
X64318685Y-96407179D01*
X64318685Y-96407179D02*
X64399498Y-96487991D01*
X64399498Y-96487991D02*
X64534185Y-96568803D01*
X64534185Y-96568803D02*
X64614997Y-96595741D01*
X64614997Y-96595741D02*
X64722746Y-96595741D01*
X64722746Y-96595741D02*
X64830496Y-96541866D01*
X64830496Y-96541866D02*
X64884371Y-96487991D01*
X64884371Y-96487991D02*
X64938246Y-96380241D01*
X64938246Y-96380241D02*
X64938246Y-96326367D01*
X64938246Y-96326367D02*
X64749684Y-96137805D01*
X64749684Y-96137805D02*
X64641934Y-96245554D01*
X65234557Y-96137805D02*
X64668872Y-95572119D01*
X64668872Y-95572119D02*
X65557806Y-95814556D01*
X65557806Y-95814556D02*
X64992120Y-95248871D01*
X65827180Y-95545182D02*
X65261494Y-94979497D01*
X65261494Y-94979497D02*
X65396181Y-94844810D01*
X65396181Y-94844810D02*
X65503931Y-94790935D01*
X65503931Y-94790935D02*
X65611680Y-94790935D01*
X65611680Y-94790935D02*
X65692493Y-94817872D01*
X65692493Y-94817872D02*
X65827180Y-94898685D01*
X65827180Y-94898685D02*
X65907992Y-94979497D01*
X65907992Y-94979497D02*
X65988804Y-95114184D01*
X65988804Y-95114184D02*
X66015741Y-95194996D01*
X66015741Y-95194996D02*
X66015741Y-95302746D01*
X66015741Y-95302746D02*
X65961867Y-95410495D01*
X65961867Y-95410495D02*
X65827180Y-95545182D01*
X90091873Y-71411240D02*
X90361247Y-71141866D01*
X90199623Y-71626739D02*
X89822499Y-70872492D01*
X89822499Y-70872492D02*
X90576746Y-71249615D01*
X90522871Y-70225994D02*
X90442059Y-70252932D01*
X90442059Y-70252932D02*
X90361247Y-70333744D01*
X90361247Y-70333744D02*
X90307372Y-70441494D01*
X90307372Y-70441494D02*
X90307372Y-70549243D01*
X90307372Y-70549243D02*
X90334310Y-70630055D01*
X90334310Y-70630055D02*
X90415122Y-70764742D01*
X90415122Y-70764742D02*
X90495934Y-70845555D01*
X90495934Y-70845555D02*
X90630621Y-70926367D01*
X90630621Y-70926367D02*
X90711433Y-70953304D01*
X90711433Y-70953304D02*
X90819183Y-70953304D01*
X90819183Y-70953304D02*
X90926932Y-70899429D01*
X90926932Y-70899429D02*
X90980807Y-70845555D01*
X90980807Y-70845555D02*
X91034682Y-70737805D01*
X91034682Y-70737805D02*
X91034682Y-70683930D01*
X91034682Y-70683930D02*
X90846120Y-70495368D01*
X90846120Y-70495368D02*
X90738371Y-70603118D01*
X91330993Y-70495368D02*
X90765308Y-69929683D01*
X90765308Y-69929683D02*
X91654242Y-70172120D01*
X91654242Y-70172120D02*
X91088557Y-69606434D01*
X91923616Y-69902746D02*
X91357931Y-69337060D01*
X91357931Y-69337060D02*
X91492618Y-69202373D01*
X91492618Y-69202373D02*
X91600367Y-69148498D01*
X91600367Y-69148498D02*
X91708117Y-69148498D01*
X91708117Y-69148498D02*
X91788929Y-69175436D01*
X91788929Y-69175436D02*
X91923616Y-69256248D01*
X91923616Y-69256248D02*
X92004428Y-69337060D01*
X92004428Y-69337060D02*
X92085241Y-69471747D01*
X92085241Y-69471747D02*
X92112178Y-69552560D01*
X92112178Y-69552560D02*
X92112178Y-69660309D01*
X92112178Y-69660309D02*
X92058303Y-69768059D01*
X92058303Y-69768059D02*
X91923616Y-69902746D01*
X89830123Y-63160868D02*
X90180309Y-62810682D01*
X90180309Y-62810682D02*
X90207247Y-63214743D01*
X90207247Y-63214743D02*
X90288059Y-63133931D01*
X90288059Y-63133931D02*
X90368871Y-63106993D01*
X90368871Y-63106993D02*
X90422746Y-63106993D01*
X90422746Y-63106993D02*
X90503558Y-63133931D01*
X90503558Y-63133931D02*
X90638245Y-63268618D01*
X90638245Y-63268618D02*
X90665182Y-63349430D01*
X90665182Y-63349430D02*
X90665182Y-63403305D01*
X90665182Y-63403305D02*
X90638245Y-63484117D01*
X90638245Y-63484117D02*
X90476621Y-63645741D01*
X90476621Y-63645741D02*
X90395808Y-63672679D01*
X90395808Y-63672679D02*
X90341934Y-63672679D01*
X90341934Y-62649057D02*
X91096181Y-63026181D01*
X91096181Y-63026181D02*
X90719057Y-62271934D01*
X90853744Y-62137247D02*
X91203930Y-61787061D01*
X91203930Y-61787061D02*
X91230868Y-62191122D01*
X91230868Y-62191122D02*
X91311680Y-62110309D01*
X91311680Y-62110309D02*
X91392492Y-62083372D01*
X91392492Y-62083372D02*
X91446367Y-62083372D01*
X91446367Y-62083372D02*
X91527179Y-62110309D01*
X91527179Y-62110309D02*
X91661866Y-62244996D01*
X91661866Y-62244996D02*
X91688804Y-62325809D01*
X91688804Y-62325809D02*
X91688804Y-62379683D01*
X91688804Y-62379683D02*
X91661866Y-62460496D01*
X91661866Y-62460496D02*
X91500242Y-62622120D01*
X91500242Y-62622120D02*
X91419430Y-62649057D01*
X91419430Y-62649057D02*
X91365555Y-62649057D01*
X64453372Y-52661494D02*
X64372560Y-52688431D01*
X64372560Y-52688431D02*
X64291748Y-52769243D01*
X64291748Y-52769243D02*
X64237873Y-52876993D01*
X64237873Y-52876993D02*
X64237873Y-52984742D01*
X64237873Y-52984742D02*
X64264810Y-53065555D01*
X64264810Y-53065555D02*
X64345623Y-53200242D01*
X64345623Y-53200242D02*
X64426435Y-53281054D01*
X64426435Y-53281054D02*
X64561122Y-53361866D01*
X64561122Y-53361866D02*
X64641934Y-53388803D01*
X64641934Y-53388803D02*
X64749684Y-53388803D01*
X64749684Y-53388803D02*
X64857433Y-53334929D01*
X64857433Y-53334929D02*
X64911308Y-53281054D01*
X64911308Y-53281054D02*
X64965183Y-53173304D01*
X64965183Y-53173304D02*
X64965183Y-53119429D01*
X64965183Y-53119429D02*
X64776621Y-52930868D01*
X64776621Y-52930868D02*
X64668871Y-53038617D01*
X65261494Y-52930868D02*
X64695809Y-52365182D01*
X64695809Y-52365182D02*
X64911308Y-52149683D01*
X64911308Y-52149683D02*
X64992120Y-52122746D01*
X64992120Y-52122746D02*
X65045995Y-52122746D01*
X65045995Y-52122746D02*
X65126807Y-52149683D01*
X65126807Y-52149683D02*
X65207619Y-52230495D01*
X65207619Y-52230495D02*
X65234557Y-52311307D01*
X65234557Y-52311307D02*
X65234557Y-52365182D01*
X65234557Y-52365182D02*
X65207619Y-52445994D01*
X65207619Y-52445994D02*
X64992120Y-52661494D01*
X65369244Y-51691747D02*
X65423119Y-51637872D01*
X65423119Y-51637872D02*
X65503931Y-51610935D01*
X65503931Y-51610935D02*
X65557806Y-51610935D01*
X65557806Y-51610935D02*
X65638618Y-51637872D01*
X65638618Y-51637872D02*
X65773305Y-51718685D01*
X65773305Y-51718685D02*
X65907992Y-51853372D01*
X65907992Y-51853372D02*
X65988804Y-51988059D01*
X65988804Y-51988059D02*
X66015741Y-52068871D01*
X66015741Y-52068871D02*
X66015741Y-52122746D01*
X66015741Y-52122746D02*
X65988804Y-52203558D01*
X65988804Y-52203558D02*
X65934929Y-52257433D01*
X65934929Y-52257433D02*
X65854117Y-52284370D01*
X65854117Y-52284370D02*
X65800242Y-52284370D01*
X65800242Y-52284370D02*
X65719430Y-52257433D01*
X65719430Y-52257433D02*
X65584743Y-52176620D01*
X65584743Y-52176620D02*
X65450056Y-52041933D01*
X65450056Y-52041933D02*
X65369244Y-51907246D01*
X65369244Y-51907246D02*
X65342306Y-51826434D01*
X65342306Y-51826434D02*
X65342306Y-51772559D01*
X65342306Y-51772559D02*
X65369244Y-51691747D01*
X63929998Y-93570868D02*
X63849185Y-93597805D01*
X63849185Y-93597805D02*
X63768373Y-93678618D01*
X63768373Y-93678618D02*
X63714498Y-93786367D01*
X63714498Y-93786367D02*
X63714498Y-93894117D01*
X63714498Y-93894117D02*
X63741436Y-93974929D01*
X63741436Y-93974929D02*
X63822248Y-94109616D01*
X63822248Y-94109616D02*
X63903060Y-94190428D01*
X63903060Y-94190428D02*
X64037747Y-94271241D01*
X64037747Y-94271241D02*
X64118560Y-94298178D01*
X64118560Y-94298178D02*
X64226309Y-94298178D01*
X64226309Y-94298178D02*
X64334059Y-94244303D01*
X64334059Y-94244303D02*
X64387934Y-94190428D01*
X64387934Y-94190428D02*
X64441808Y-94082679D01*
X64441808Y-94082679D02*
X64441808Y-94028804D01*
X64441808Y-94028804D02*
X64253247Y-93840242D01*
X64253247Y-93840242D02*
X64145497Y-93947992D01*
X64738120Y-93840242D02*
X64172434Y-93274557D01*
X64172434Y-93274557D02*
X64387934Y-93059057D01*
X64387934Y-93059057D02*
X64468746Y-93032120D01*
X64468746Y-93032120D02*
X64522621Y-93032120D01*
X64522621Y-93032120D02*
X64603433Y-93059057D01*
X64603433Y-93059057D02*
X64684245Y-93139870D01*
X64684245Y-93139870D02*
X64711182Y-93220682D01*
X64711182Y-93220682D02*
X64711182Y-93274557D01*
X64711182Y-93274557D02*
X64684245Y-93355369D01*
X64684245Y-93355369D02*
X64468746Y-93570868D01*
X65600117Y-92978245D02*
X65276868Y-93301494D01*
X65438492Y-93139870D02*
X64872807Y-92574184D01*
X64872807Y-92574184D02*
X64899744Y-92708871D01*
X64899744Y-92708871D02*
X64899744Y-92816621D01*
X64899744Y-92816621D02*
X64872807Y-92897433D01*
X65222993Y-92223998D02*
X65573179Y-91873812D01*
X65573179Y-91873812D02*
X65600117Y-92277873D01*
X65600117Y-92277873D02*
X65680929Y-92197060D01*
X65680929Y-92197060D02*
X65761741Y-92170123D01*
X65761741Y-92170123D02*
X65815616Y-92170123D01*
X65815616Y-92170123D02*
X65896428Y-92197060D01*
X65896428Y-92197060D02*
X66031115Y-92331747D01*
X66031115Y-92331747D02*
X66058053Y-92412560D01*
X66058053Y-92412560D02*
X66058053Y-92466434D01*
X66058053Y-92466434D02*
X66031115Y-92547247D01*
X66031115Y-92547247D02*
X65869491Y-92708871D01*
X65869491Y-92708871D02*
X65788679Y-92735808D01*
X65788679Y-92735808D02*
X65734804Y-92735808D01*
X90037998Y-75790868D02*
X89957185Y-75817805D01*
X89957185Y-75817805D02*
X89876373Y-75898618D01*
X89876373Y-75898618D02*
X89822498Y-76006367D01*
X89822498Y-76006367D02*
X89822498Y-76114117D01*
X89822498Y-76114117D02*
X89849436Y-76194929D01*
X89849436Y-76194929D02*
X89930248Y-76329616D01*
X89930248Y-76329616D02*
X90011060Y-76410428D01*
X90011060Y-76410428D02*
X90145747Y-76491241D01*
X90145747Y-76491241D02*
X90226560Y-76518178D01*
X90226560Y-76518178D02*
X90334309Y-76518178D01*
X90334309Y-76518178D02*
X90442059Y-76464303D01*
X90442059Y-76464303D02*
X90495934Y-76410428D01*
X90495934Y-76410428D02*
X90549808Y-76302679D01*
X90549808Y-76302679D02*
X90549808Y-76248804D01*
X90549808Y-76248804D02*
X90361247Y-76060242D01*
X90361247Y-76060242D02*
X90253497Y-76167992D01*
X90846120Y-76060242D02*
X90280434Y-75494557D01*
X90280434Y-75494557D02*
X90495934Y-75279057D01*
X90495934Y-75279057D02*
X90576746Y-75252120D01*
X90576746Y-75252120D02*
X90630621Y-75252120D01*
X90630621Y-75252120D02*
X90711433Y-75279057D01*
X90711433Y-75279057D02*
X90792245Y-75359870D01*
X90792245Y-75359870D02*
X90819182Y-75440682D01*
X90819182Y-75440682D02*
X90819182Y-75494557D01*
X90819182Y-75494557D02*
X90792245Y-75575369D01*
X90792245Y-75575369D02*
X90576746Y-75790868D01*
X90873057Y-75009683D02*
X90873057Y-74955809D01*
X90873057Y-74955809D02*
X90899995Y-74874996D01*
X90899995Y-74874996D02*
X91034682Y-74740309D01*
X91034682Y-74740309D02*
X91115494Y-74713372D01*
X91115494Y-74713372D02*
X91169369Y-74713372D01*
X91169369Y-74713372D02*
X91250181Y-74740309D01*
X91250181Y-74740309D02*
X91304056Y-74794184D01*
X91304056Y-74794184D02*
X91357930Y-74901934D01*
X91357930Y-74901934D02*
X91357930Y-75548431D01*
X91357930Y-75548431D02*
X91708117Y-75198245D01*
X91627305Y-74147686D02*
X91519555Y-74255436D01*
X91519555Y-74255436D02*
X91492618Y-74336248D01*
X91492618Y-74336248D02*
X91492618Y-74390123D01*
X91492618Y-74390123D02*
X91519555Y-74524810D01*
X91519555Y-74524810D02*
X91600367Y-74659497D01*
X91600367Y-74659497D02*
X91815866Y-74874996D01*
X91815866Y-74874996D02*
X91896679Y-74901934D01*
X91896679Y-74901934D02*
X91950553Y-74901934D01*
X91950553Y-74901934D02*
X92031366Y-74874996D01*
X92031366Y-74874996D02*
X92139115Y-74767247D01*
X92139115Y-74767247D02*
X92166053Y-74686434D01*
X92166053Y-74686434D02*
X92166053Y-74632560D01*
X92166053Y-74632560D02*
X92139115Y-74551747D01*
X92139115Y-74551747D02*
X92004428Y-74417060D01*
X92004428Y-74417060D02*
X91923616Y-74390123D01*
X91923616Y-74390123D02*
X91869741Y-74390123D01*
X91869741Y-74390123D02*
X91788929Y-74417060D01*
X91788929Y-74417060D02*
X91681179Y-74524810D01*
X91681179Y-74524810D02*
X91654242Y-74605622D01*
X91654242Y-74605622D02*
X91654242Y-74659497D01*
X91654242Y-74659497D02*
X91681179Y-74740309D01*
X90026435Y-95868431D02*
X89945623Y-95895368D01*
X89945623Y-95895368D02*
X89864811Y-95976180D01*
X89864811Y-95976180D02*
X89810936Y-96083930D01*
X89810936Y-96083930D02*
X89810936Y-96191680D01*
X89810936Y-96191680D02*
X89837873Y-96272492D01*
X89837873Y-96272492D02*
X89918685Y-96407179D01*
X89918685Y-96407179D02*
X89999498Y-96487991D01*
X89999498Y-96487991D02*
X90134185Y-96568803D01*
X90134185Y-96568803D02*
X90214997Y-96595741D01*
X90214997Y-96595741D02*
X90322746Y-96595741D01*
X90322746Y-96595741D02*
X90430496Y-96541866D01*
X90430496Y-96541866D02*
X90484371Y-96487991D01*
X90484371Y-96487991D02*
X90538246Y-96380241D01*
X90538246Y-96380241D02*
X90538246Y-96326367D01*
X90538246Y-96326367D02*
X90349684Y-96137805D01*
X90349684Y-96137805D02*
X90241934Y-96245554D01*
X90834557Y-96137805D02*
X90268872Y-95572119D01*
X90268872Y-95572119D02*
X91157806Y-95814556D01*
X91157806Y-95814556D02*
X90592120Y-95248871D01*
X91427180Y-95545182D02*
X90861494Y-94979497D01*
X90861494Y-94979497D02*
X90996181Y-94844810D01*
X90996181Y-94844810D02*
X91103931Y-94790935D01*
X91103931Y-94790935D02*
X91211680Y-94790935D01*
X91211680Y-94790935D02*
X91292493Y-94817872D01*
X91292493Y-94817872D02*
X91427180Y-94898685D01*
X91427180Y-94898685D02*
X91507992Y-94979497D01*
X91507992Y-94979497D02*
X91588804Y-95114184D01*
X91588804Y-95114184D02*
X91615741Y-95194996D01*
X91615741Y-95194996D02*
X91615741Y-95302746D01*
X91615741Y-95302746D02*
X91561867Y-95410495D01*
X91561867Y-95410495D02*
X91427180Y-95545182D01*
X90037998Y-91030868D02*
X89957185Y-91057805D01*
X89957185Y-91057805D02*
X89876373Y-91138618D01*
X89876373Y-91138618D02*
X89822498Y-91246367D01*
X89822498Y-91246367D02*
X89822498Y-91354117D01*
X89822498Y-91354117D02*
X89849436Y-91434929D01*
X89849436Y-91434929D02*
X89930248Y-91569616D01*
X89930248Y-91569616D02*
X90011060Y-91650428D01*
X90011060Y-91650428D02*
X90145747Y-91731241D01*
X90145747Y-91731241D02*
X90226560Y-91758178D01*
X90226560Y-91758178D02*
X90334309Y-91758178D01*
X90334309Y-91758178D02*
X90442059Y-91704303D01*
X90442059Y-91704303D02*
X90495934Y-91650428D01*
X90495934Y-91650428D02*
X90549808Y-91542679D01*
X90549808Y-91542679D02*
X90549808Y-91488804D01*
X90549808Y-91488804D02*
X90361247Y-91300242D01*
X90361247Y-91300242D02*
X90253497Y-91407992D01*
X90846120Y-91300242D02*
X90280434Y-90734557D01*
X90280434Y-90734557D02*
X90495934Y-90519057D01*
X90495934Y-90519057D02*
X90576746Y-90492120D01*
X90576746Y-90492120D02*
X90630621Y-90492120D01*
X90630621Y-90492120D02*
X90711433Y-90519057D01*
X90711433Y-90519057D02*
X90792245Y-90599870D01*
X90792245Y-90599870D02*
X90819182Y-90680682D01*
X90819182Y-90680682D02*
X90819182Y-90734557D01*
X90819182Y-90734557D02*
X90792245Y-90815369D01*
X90792245Y-90815369D02*
X90576746Y-91030868D01*
X91708117Y-90438245D02*
X91384868Y-90761494D01*
X91546492Y-90599870D02*
X90980807Y-90034184D01*
X90980807Y-90034184D02*
X91007744Y-90168871D01*
X91007744Y-90168871D02*
X91007744Y-90276621D01*
X91007744Y-90276621D02*
X90980807Y-90357433D01*
X91977491Y-90168871D02*
X92085240Y-90061121D01*
X92085240Y-90061121D02*
X92112178Y-89980309D01*
X92112178Y-89980309D02*
X92112178Y-89926434D01*
X92112178Y-89926434D02*
X92085240Y-89791747D01*
X92085240Y-89791747D02*
X92004428Y-89657060D01*
X92004428Y-89657060D02*
X91788929Y-89441561D01*
X91788929Y-89441561D02*
X91708117Y-89414624D01*
X91708117Y-89414624D02*
X91654242Y-89414624D01*
X91654242Y-89414624D02*
X91573430Y-89441561D01*
X91573430Y-89441561D02*
X91465680Y-89549311D01*
X91465680Y-89549311D02*
X91438743Y-89630123D01*
X91438743Y-89630123D02*
X91438743Y-89683998D01*
X91438743Y-89683998D02*
X91465680Y-89764810D01*
X91465680Y-89764810D02*
X91600367Y-89899497D01*
X91600367Y-89899497D02*
X91681179Y-89926434D01*
X91681179Y-89926434D02*
X91735054Y-89926434D01*
X91735054Y-89926434D02*
X91815866Y-89899497D01*
X91815866Y-89899497D02*
X91923616Y-89791747D01*
X91923616Y-89791747D02*
X91950553Y-89710935D01*
X91950553Y-89710935D02*
X91950553Y-89657060D01*
X91950553Y-89657060D02*
X91923616Y-89576248D01*
X90037998Y-80870868D02*
X89957185Y-80897805D01*
X89957185Y-80897805D02*
X89876373Y-80978618D01*
X89876373Y-80978618D02*
X89822498Y-81086367D01*
X89822498Y-81086367D02*
X89822498Y-81194117D01*
X89822498Y-81194117D02*
X89849436Y-81274929D01*
X89849436Y-81274929D02*
X89930248Y-81409616D01*
X89930248Y-81409616D02*
X90011060Y-81490428D01*
X90011060Y-81490428D02*
X90145747Y-81571241D01*
X90145747Y-81571241D02*
X90226560Y-81598178D01*
X90226560Y-81598178D02*
X90334309Y-81598178D01*
X90334309Y-81598178D02*
X90442059Y-81544303D01*
X90442059Y-81544303D02*
X90495934Y-81490428D01*
X90495934Y-81490428D02*
X90549808Y-81382679D01*
X90549808Y-81382679D02*
X90549808Y-81328804D01*
X90549808Y-81328804D02*
X90361247Y-81140242D01*
X90361247Y-81140242D02*
X90253497Y-81247992D01*
X90846120Y-81140242D02*
X90280434Y-80574557D01*
X90280434Y-80574557D02*
X90495934Y-80359057D01*
X90495934Y-80359057D02*
X90576746Y-80332120D01*
X90576746Y-80332120D02*
X90630621Y-80332120D01*
X90630621Y-80332120D02*
X90711433Y-80359057D01*
X90711433Y-80359057D02*
X90792245Y-80439870D01*
X90792245Y-80439870D02*
X90819182Y-80520682D01*
X90819182Y-80520682D02*
X90819182Y-80574557D01*
X90819182Y-80574557D02*
X90792245Y-80655369D01*
X90792245Y-80655369D02*
X90576746Y-80870868D01*
X90873057Y-80089683D02*
X90873057Y-80035809D01*
X90873057Y-80035809D02*
X90899995Y-79954996D01*
X90899995Y-79954996D02*
X91034682Y-79820309D01*
X91034682Y-79820309D02*
X91115494Y-79793372D01*
X91115494Y-79793372D02*
X91169369Y-79793372D01*
X91169369Y-79793372D02*
X91250181Y-79820309D01*
X91250181Y-79820309D02*
X91304056Y-79874184D01*
X91304056Y-79874184D02*
X91357930Y-79981934D01*
X91357930Y-79981934D02*
X91357930Y-80628431D01*
X91357930Y-80628431D02*
X91708117Y-80278245D01*
X91411805Y-79550935D02*
X91411805Y-79497060D01*
X91411805Y-79497060D02*
X91438743Y-79416248D01*
X91438743Y-79416248D02*
X91573430Y-79281561D01*
X91573430Y-79281561D02*
X91654242Y-79254624D01*
X91654242Y-79254624D02*
X91708117Y-79254624D01*
X91708117Y-79254624D02*
X91788929Y-79281561D01*
X91788929Y-79281561D02*
X91842804Y-79335436D01*
X91842804Y-79335436D02*
X91896679Y-79443186D01*
X91896679Y-79443186D02*
X91896679Y-80089683D01*
X91896679Y-80089683D02*
X92246865Y-79739497D01*
X64453372Y-67901494D02*
X64372560Y-67928431D01*
X64372560Y-67928431D02*
X64291748Y-68009243D01*
X64291748Y-68009243D02*
X64237873Y-68116993D01*
X64237873Y-68116993D02*
X64237873Y-68224742D01*
X64237873Y-68224742D02*
X64264810Y-68305555D01*
X64264810Y-68305555D02*
X64345623Y-68440242D01*
X64345623Y-68440242D02*
X64426435Y-68521054D01*
X64426435Y-68521054D02*
X64561122Y-68601866D01*
X64561122Y-68601866D02*
X64641934Y-68628803D01*
X64641934Y-68628803D02*
X64749684Y-68628803D01*
X64749684Y-68628803D02*
X64857433Y-68574929D01*
X64857433Y-68574929D02*
X64911308Y-68521054D01*
X64911308Y-68521054D02*
X64965183Y-68413304D01*
X64965183Y-68413304D02*
X64965183Y-68359429D01*
X64965183Y-68359429D02*
X64776621Y-68170868D01*
X64776621Y-68170868D02*
X64668871Y-68278617D01*
X65261494Y-68170868D02*
X64695809Y-67605182D01*
X64695809Y-67605182D02*
X64911308Y-67389683D01*
X64911308Y-67389683D02*
X64992120Y-67362746D01*
X64992120Y-67362746D02*
X65045995Y-67362746D01*
X65045995Y-67362746D02*
X65126807Y-67389683D01*
X65126807Y-67389683D02*
X65207619Y-67470495D01*
X65207619Y-67470495D02*
X65234557Y-67551307D01*
X65234557Y-67551307D02*
X65234557Y-67605182D01*
X65234557Y-67605182D02*
X65207619Y-67685994D01*
X65207619Y-67685994D02*
X64992120Y-67901494D01*
X65530868Y-66770123D02*
X65261494Y-67039497D01*
X65261494Y-67039497D02*
X65503931Y-67335808D01*
X65503931Y-67335808D02*
X65503931Y-67281933D01*
X65503931Y-67281933D02*
X65530868Y-67201121D01*
X65530868Y-67201121D02*
X65665555Y-67066434D01*
X65665555Y-67066434D02*
X65746367Y-67039497D01*
X65746367Y-67039497D02*
X65800242Y-67039497D01*
X65800242Y-67039497D02*
X65881054Y-67066434D01*
X65881054Y-67066434D02*
X66015741Y-67201121D01*
X66015741Y-67201121D02*
X66042679Y-67281933D01*
X66042679Y-67281933D02*
X66042679Y-67335808D01*
X66042679Y-67335808D02*
X66015741Y-67416620D01*
X66015741Y-67416620D02*
X65881054Y-67551307D01*
X65881054Y-67551307D02*
X65800242Y-67578245D01*
X65800242Y-67578245D02*
X65746367Y-67578245D01*
X63929998Y-85950868D02*
X63849185Y-85977805D01*
X63849185Y-85977805D02*
X63768373Y-86058618D01*
X63768373Y-86058618D02*
X63714498Y-86166367D01*
X63714498Y-86166367D02*
X63714498Y-86274117D01*
X63714498Y-86274117D02*
X63741436Y-86354929D01*
X63741436Y-86354929D02*
X63822248Y-86489616D01*
X63822248Y-86489616D02*
X63903060Y-86570428D01*
X63903060Y-86570428D02*
X64037747Y-86651241D01*
X64037747Y-86651241D02*
X64118560Y-86678178D01*
X64118560Y-86678178D02*
X64226309Y-86678178D01*
X64226309Y-86678178D02*
X64334059Y-86624303D01*
X64334059Y-86624303D02*
X64387934Y-86570428D01*
X64387934Y-86570428D02*
X64441808Y-86462679D01*
X64441808Y-86462679D02*
X64441808Y-86408804D01*
X64441808Y-86408804D02*
X64253247Y-86220242D01*
X64253247Y-86220242D02*
X64145497Y-86327992D01*
X64738120Y-86220242D02*
X64172434Y-85654557D01*
X64172434Y-85654557D02*
X64387934Y-85439057D01*
X64387934Y-85439057D02*
X64468746Y-85412120D01*
X64468746Y-85412120D02*
X64522621Y-85412120D01*
X64522621Y-85412120D02*
X64603433Y-85439057D01*
X64603433Y-85439057D02*
X64684245Y-85519870D01*
X64684245Y-85519870D02*
X64711182Y-85600682D01*
X64711182Y-85600682D02*
X64711182Y-85654557D01*
X64711182Y-85654557D02*
X64684245Y-85735369D01*
X64684245Y-85735369D02*
X64468746Y-85950868D01*
X65600117Y-85358245D02*
X65276868Y-85681494D01*
X65438492Y-85519870D02*
X64872807Y-84954184D01*
X64872807Y-84954184D02*
X64899744Y-85088871D01*
X64899744Y-85088871D02*
X64899744Y-85196621D01*
X64899744Y-85196621D02*
X64872807Y-85277433D01*
X65384618Y-84442373D02*
X65438492Y-84388499D01*
X65438492Y-84388499D02*
X65519305Y-84361561D01*
X65519305Y-84361561D02*
X65573179Y-84361561D01*
X65573179Y-84361561D02*
X65653992Y-84388499D01*
X65653992Y-84388499D02*
X65788679Y-84469311D01*
X65788679Y-84469311D02*
X65923366Y-84603998D01*
X65923366Y-84603998D02*
X66004178Y-84738685D01*
X66004178Y-84738685D02*
X66031115Y-84819497D01*
X66031115Y-84819497D02*
X66031115Y-84873372D01*
X66031115Y-84873372D02*
X66004178Y-84954184D01*
X66004178Y-84954184D02*
X65950303Y-85008059D01*
X65950303Y-85008059D02*
X65869491Y-85034996D01*
X65869491Y-85034996D02*
X65815616Y-85034996D01*
X65815616Y-85034996D02*
X65734804Y-85008059D01*
X65734804Y-85008059D02*
X65600117Y-84927247D01*
X65600117Y-84927247D02*
X65465430Y-84792560D01*
X65465430Y-84792560D02*
X65384618Y-84657873D01*
X65384618Y-84657873D02*
X65357680Y-84577060D01*
X65357680Y-84577060D02*
X65357680Y-84523186D01*
X65357680Y-84523186D02*
X65384618Y-84442373D01*
X64426435Y-57768431D02*
X64345623Y-57795368D01*
X64345623Y-57795368D02*
X64264811Y-57876180D01*
X64264811Y-57876180D02*
X64210936Y-57983930D01*
X64210936Y-57983930D02*
X64210936Y-58091680D01*
X64210936Y-58091680D02*
X64237873Y-58172492D01*
X64237873Y-58172492D02*
X64318685Y-58307179D01*
X64318685Y-58307179D02*
X64399498Y-58387991D01*
X64399498Y-58387991D02*
X64534185Y-58468803D01*
X64534185Y-58468803D02*
X64614997Y-58495741D01*
X64614997Y-58495741D02*
X64722746Y-58495741D01*
X64722746Y-58495741D02*
X64830496Y-58441866D01*
X64830496Y-58441866D02*
X64884371Y-58387991D01*
X64884371Y-58387991D02*
X64938246Y-58280241D01*
X64938246Y-58280241D02*
X64938246Y-58226367D01*
X64938246Y-58226367D02*
X64749684Y-58037805D01*
X64749684Y-58037805D02*
X64641934Y-58145554D01*
X65234557Y-58037805D02*
X64668872Y-57472119D01*
X64668872Y-57472119D02*
X65557806Y-57714556D01*
X65557806Y-57714556D02*
X64992120Y-57148871D01*
X65827180Y-57445182D02*
X65261494Y-56879497D01*
X65261494Y-56879497D02*
X65396181Y-56744810D01*
X65396181Y-56744810D02*
X65503931Y-56690935D01*
X65503931Y-56690935D02*
X65611680Y-56690935D01*
X65611680Y-56690935D02*
X65692493Y-56717872D01*
X65692493Y-56717872D02*
X65827180Y-56798685D01*
X65827180Y-56798685D02*
X65907992Y-56879497D01*
X65907992Y-56879497D02*
X65988804Y-57014184D01*
X65988804Y-57014184D02*
X66015741Y-57094996D01*
X66015741Y-57094996D02*
X66015741Y-57202746D01*
X66015741Y-57202746D02*
X65961867Y-57310495D01*
X65961867Y-57310495D02*
X65827180Y-57445182D01*
X90037998Y-88490868D02*
X89957185Y-88517805D01*
X89957185Y-88517805D02*
X89876373Y-88598618D01*
X89876373Y-88598618D02*
X89822498Y-88706367D01*
X89822498Y-88706367D02*
X89822498Y-88814117D01*
X89822498Y-88814117D02*
X89849436Y-88894929D01*
X89849436Y-88894929D02*
X89930248Y-89029616D01*
X89930248Y-89029616D02*
X90011060Y-89110428D01*
X90011060Y-89110428D02*
X90145747Y-89191241D01*
X90145747Y-89191241D02*
X90226560Y-89218178D01*
X90226560Y-89218178D02*
X90334309Y-89218178D01*
X90334309Y-89218178D02*
X90442059Y-89164303D01*
X90442059Y-89164303D02*
X90495934Y-89110428D01*
X90495934Y-89110428D02*
X90549808Y-89002679D01*
X90549808Y-89002679D02*
X90549808Y-88948804D01*
X90549808Y-88948804D02*
X90361247Y-88760242D01*
X90361247Y-88760242D02*
X90253497Y-88867992D01*
X90846120Y-88760242D02*
X90280434Y-88194557D01*
X90280434Y-88194557D02*
X90495934Y-87979057D01*
X90495934Y-87979057D02*
X90576746Y-87952120D01*
X90576746Y-87952120D02*
X90630621Y-87952120D01*
X90630621Y-87952120D02*
X90711433Y-87979057D01*
X90711433Y-87979057D02*
X90792245Y-88059870D01*
X90792245Y-88059870D02*
X90819182Y-88140682D01*
X90819182Y-88140682D02*
X90819182Y-88194557D01*
X90819182Y-88194557D02*
X90792245Y-88275369D01*
X90792245Y-88275369D02*
X90576746Y-88490868D01*
X90873057Y-87709683D02*
X90873057Y-87655809D01*
X90873057Y-87655809D02*
X90899995Y-87574996D01*
X90899995Y-87574996D02*
X91034682Y-87440309D01*
X91034682Y-87440309D02*
X91115494Y-87413372D01*
X91115494Y-87413372D02*
X91169369Y-87413372D01*
X91169369Y-87413372D02*
X91250181Y-87440309D01*
X91250181Y-87440309D02*
X91304056Y-87494184D01*
X91304056Y-87494184D02*
X91357930Y-87601934D01*
X91357930Y-87601934D02*
X91357930Y-88248431D01*
X91357930Y-88248431D02*
X91708117Y-87898245D01*
X91492618Y-86982373D02*
X91546492Y-86928499D01*
X91546492Y-86928499D02*
X91627305Y-86901561D01*
X91627305Y-86901561D02*
X91681179Y-86901561D01*
X91681179Y-86901561D02*
X91761992Y-86928499D01*
X91761992Y-86928499D02*
X91896679Y-87009311D01*
X91896679Y-87009311D02*
X92031366Y-87143998D01*
X92031366Y-87143998D02*
X92112178Y-87278685D01*
X92112178Y-87278685D02*
X92139115Y-87359497D01*
X92139115Y-87359497D02*
X92139115Y-87413372D01*
X92139115Y-87413372D02*
X92112178Y-87494184D01*
X92112178Y-87494184D02*
X92058303Y-87548059D01*
X92058303Y-87548059D02*
X91977491Y-87574996D01*
X91977491Y-87574996D02*
X91923616Y-87574996D01*
X91923616Y-87574996D02*
X91842804Y-87548059D01*
X91842804Y-87548059D02*
X91708117Y-87467247D01*
X91708117Y-87467247D02*
X91573430Y-87332560D01*
X91573430Y-87332560D02*
X91492618Y-87197873D01*
X91492618Y-87197873D02*
X91465680Y-87117060D01*
X91465680Y-87117060D02*
X91465680Y-87063186D01*
X91465680Y-87063186D02*
X91492618Y-86982373D01*
X89893406Y-53197585D02*
X90647653Y-53574709D01*
X90647653Y-53574709D02*
X90270529Y-52820462D01*
X90917027Y-52712712D02*
X91024776Y-52658838D01*
X91024776Y-52658838D02*
X91078651Y-52658838D01*
X91078651Y-52658838D02*
X91159463Y-52685775D01*
X91159463Y-52685775D02*
X91240276Y-52766587D01*
X91240276Y-52766587D02*
X91267213Y-52847399D01*
X91267213Y-52847399D02*
X91267213Y-52901274D01*
X91267213Y-52901274D02*
X91240276Y-52982086D01*
X91240276Y-52982086D02*
X91024776Y-53197586D01*
X91024776Y-53197586D02*
X90459091Y-52631900D01*
X90459091Y-52631900D02*
X90647653Y-52443338D01*
X90647653Y-52443338D02*
X90728465Y-52416401D01*
X90728465Y-52416401D02*
X90782340Y-52416401D01*
X90782340Y-52416401D02*
X90863152Y-52443338D01*
X90863152Y-52443338D02*
X90917027Y-52497213D01*
X90917027Y-52497213D02*
X90943964Y-52578025D01*
X90943964Y-52578025D02*
X90943964Y-52631900D01*
X90943964Y-52631900D02*
X90917027Y-52712712D01*
X90917027Y-52712712D02*
X90728465Y-52901274D01*
X91024776Y-52066215D02*
X91482712Y-52524151D01*
X91482712Y-52524151D02*
X91563524Y-52551088D01*
X91563524Y-52551088D02*
X91617399Y-52551088D01*
X91617399Y-52551088D02*
X91698211Y-52524151D01*
X91698211Y-52524151D02*
X91805961Y-52416401D01*
X91805961Y-52416401D02*
X91832898Y-52335589D01*
X91832898Y-52335589D02*
X91832898Y-52281714D01*
X91832898Y-52281714D02*
X91805961Y-52200902D01*
X91805961Y-52200902D02*
X91348025Y-51742966D01*
X92129210Y-52039277D02*
X92236959Y-51985403D01*
X92236959Y-51985403D02*
X92371646Y-51850716D01*
X92371646Y-51850716D02*
X92398584Y-51769903D01*
X92398584Y-51769903D02*
X92398584Y-51716029D01*
X92398584Y-51716029D02*
X92371646Y-51635216D01*
X92371646Y-51635216D02*
X92317771Y-51581342D01*
X92317771Y-51581342D02*
X92236959Y-51554404D01*
X92236959Y-51554404D02*
X92183084Y-51554404D01*
X92183084Y-51554404D02*
X92102272Y-51581342D01*
X92102272Y-51581342D02*
X91967585Y-51662154D01*
X91967585Y-51662154D02*
X91886773Y-51689091D01*
X91886773Y-51689091D02*
X91832898Y-51689091D01*
X91832898Y-51689091D02*
X91752086Y-51662154D01*
X91752086Y-51662154D02*
X91698211Y-51608279D01*
X91698211Y-51608279D02*
X91671274Y-51527467D01*
X91671274Y-51527467D02*
X91671274Y-51473592D01*
X91671274Y-51473592D02*
X91698211Y-51392780D01*
X91698211Y-51392780D02*
X91832898Y-51258093D01*
X91832898Y-51258093D02*
X91940648Y-51204218D01*
X63883998Y-98650868D02*
X63803185Y-98677805D01*
X63803185Y-98677805D02*
X63722373Y-98758618D01*
X63722373Y-98758618D02*
X63668498Y-98866367D01*
X63668498Y-98866367D02*
X63668498Y-98974117D01*
X63668498Y-98974117D02*
X63695436Y-99054929D01*
X63695436Y-99054929D02*
X63776248Y-99189616D01*
X63776248Y-99189616D02*
X63857060Y-99270428D01*
X63857060Y-99270428D02*
X63991747Y-99351241D01*
X63991747Y-99351241D02*
X64072560Y-99378178D01*
X64072560Y-99378178D02*
X64180309Y-99378178D01*
X64180309Y-99378178D02*
X64288059Y-99324303D01*
X64288059Y-99324303D02*
X64341934Y-99270428D01*
X64341934Y-99270428D02*
X64395808Y-99162679D01*
X64395808Y-99162679D02*
X64395808Y-99108804D01*
X64395808Y-99108804D02*
X64207247Y-98920242D01*
X64207247Y-98920242D02*
X64099497Y-99027992D01*
X64692120Y-98920242D02*
X64126434Y-98354557D01*
X64126434Y-98354557D02*
X64341934Y-98139057D01*
X64341934Y-98139057D02*
X64422746Y-98112120D01*
X64422746Y-98112120D02*
X64476621Y-98112120D01*
X64476621Y-98112120D02*
X64557433Y-98139057D01*
X64557433Y-98139057D02*
X64638245Y-98219870D01*
X64638245Y-98219870D02*
X64665182Y-98300682D01*
X64665182Y-98300682D02*
X64665182Y-98354557D01*
X64665182Y-98354557D02*
X64638245Y-98435369D01*
X64638245Y-98435369D02*
X64422746Y-98650868D01*
X65554117Y-98058245D02*
X65230868Y-98381494D01*
X65392492Y-98219870D02*
X64826807Y-97654184D01*
X64826807Y-97654184D02*
X64853744Y-97788871D01*
X64853744Y-97788871D02*
X64853744Y-97896621D01*
X64853744Y-97896621D02*
X64826807Y-97977433D01*
X65661866Y-97196248D02*
X66038990Y-97573372D01*
X65311680Y-97115436D02*
X65581054Y-97654184D01*
X65581054Y-97654184D02*
X65931240Y-97303998D01*
X89862407Y-60628584D02*
X90212593Y-60278398D01*
X90212593Y-60278398D02*
X90239531Y-60682459D01*
X90239531Y-60682459D02*
X90320343Y-60601646D01*
X90320343Y-60601646D02*
X90401155Y-60574709D01*
X90401155Y-60574709D02*
X90455030Y-60574709D01*
X90455030Y-60574709D02*
X90535842Y-60601646D01*
X90535842Y-60601646D02*
X90670529Y-60736333D01*
X90670529Y-60736333D02*
X90697467Y-60817146D01*
X90697467Y-60817146D02*
X90697467Y-60871020D01*
X90697467Y-60871020D02*
X90670529Y-60951833D01*
X90670529Y-60951833D02*
X90508905Y-61113457D01*
X90508905Y-61113457D02*
X90428093Y-61140394D01*
X90428093Y-61140394D02*
X90374218Y-61140394D01*
X90374218Y-60116773D02*
X91128465Y-60493897D01*
X91128465Y-60493897D02*
X90751342Y-59739649D01*
X90886028Y-59604963D02*
X91236215Y-59254776D01*
X91236215Y-59254776D02*
X91263152Y-59658837D01*
X91263152Y-59658837D02*
X91343964Y-59578025D01*
X91343964Y-59578025D02*
X91424776Y-59551088D01*
X91424776Y-59551088D02*
X91478651Y-59551088D01*
X91478651Y-59551088D02*
X91559464Y-59578025D01*
X91559464Y-59578025D02*
X91694151Y-59712712D01*
X91694151Y-59712712D02*
X91721088Y-59793524D01*
X91721088Y-59793524D02*
X91721088Y-59847399D01*
X91721088Y-59847399D02*
X91694151Y-59928211D01*
X91694151Y-59928211D02*
X91532526Y-60089836D01*
X91532526Y-60089836D02*
X91451714Y-60116773D01*
X91451714Y-60116773D02*
X91397839Y-60116773D01*
X91963525Y-59766587D02*
X92394523Y-59335588D01*
X92179024Y-58850715D02*
X92367586Y-58662153D01*
X92744709Y-58877652D02*
X92475335Y-59147026D01*
X92475335Y-59147026D02*
X91909650Y-58581341D01*
X91909650Y-58581341D02*
X92179024Y-58311967D01*
X92987146Y-58635215D02*
X92421461Y-58069530D01*
X92421461Y-58069530D02*
X93310395Y-58311967D01*
X93310395Y-58311967D02*
X92744710Y-57746281D01*
X90037998Y-93570868D02*
X89957185Y-93597805D01*
X89957185Y-93597805D02*
X89876373Y-93678618D01*
X89876373Y-93678618D02*
X89822498Y-93786367D01*
X89822498Y-93786367D02*
X89822498Y-93894117D01*
X89822498Y-93894117D02*
X89849436Y-93974929D01*
X89849436Y-93974929D02*
X89930248Y-94109616D01*
X89930248Y-94109616D02*
X90011060Y-94190428D01*
X90011060Y-94190428D02*
X90145747Y-94271241D01*
X90145747Y-94271241D02*
X90226560Y-94298178D01*
X90226560Y-94298178D02*
X90334309Y-94298178D01*
X90334309Y-94298178D02*
X90442059Y-94244303D01*
X90442059Y-94244303D02*
X90495934Y-94190428D01*
X90495934Y-94190428D02*
X90549808Y-94082679D01*
X90549808Y-94082679D02*
X90549808Y-94028804D01*
X90549808Y-94028804D02*
X90361247Y-93840242D01*
X90361247Y-93840242D02*
X90253497Y-93947992D01*
X90846120Y-93840242D02*
X90280434Y-93274557D01*
X90280434Y-93274557D02*
X90495934Y-93059057D01*
X90495934Y-93059057D02*
X90576746Y-93032120D01*
X90576746Y-93032120D02*
X90630621Y-93032120D01*
X90630621Y-93032120D02*
X90711433Y-93059057D01*
X90711433Y-93059057D02*
X90792245Y-93139870D01*
X90792245Y-93139870D02*
X90819182Y-93220682D01*
X90819182Y-93220682D02*
X90819182Y-93274557D01*
X90819182Y-93274557D02*
X90792245Y-93355369D01*
X90792245Y-93355369D02*
X90576746Y-93570868D01*
X91708117Y-92978245D02*
X91384868Y-93301494D01*
X91546492Y-93139870D02*
X90980807Y-92574184D01*
X90980807Y-92574184D02*
X91007744Y-92708871D01*
X91007744Y-92708871D02*
X91007744Y-92816621D01*
X91007744Y-92816621D02*
X90980807Y-92897433D01*
X91708117Y-92331747D02*
X91627305Y-92358685D01*
X91627305Y-92358685D02*
X91573430Y-92358685D01*
X91573430Y-92358685D02*
X91492618Y-92331747D01*
X91492618Y-92331747D02*
X91465680Y-92304810D01*
X91465680Y-92304810D02*
X91438743Y-92223998D01*
X91438743Y-92223998D02*
X91438743Y-92170123D01*
X91438743Y-92170123D02*
X91465680Y-92089311D01*
X91465680Y-92089311D02*
X91573430Y-91981561D01*
X91573430Y-91981561D02*
X91654242Y-91954624D01*
X91654242Y-91954624D02*
X91708117Y-91954624D01*
X91708117Y-91954624D02*
X91788929Y-91981561D01*
X91788929Y-91981561D02*
X91815866Y-92008499D01*
X91815866Y-92008499D02*
X91842804Y-92089311D01*
X91842804Y-92089311D02*
X91842804Y-92143186D01*
X91842804Y-92143186D02*
X91815866Y-92223998D01*
X91815866Y-92223998D02*
X91708117Y-92331747D01*
X91708117Y-92331747D02*
X91681179Y-92412560D01*
X91681179Y-92412560D02*
X91681179Y-92466434D01*
X91681179Y-92466434D02*
X91708117Y-92547247D01*
X91708117Y-92547247D02*
X91815866Y-92654996D01*
X91815866Y-92654996D02*
X91896679Y-92681934D01*
X91896679Y-92681934D02*
X91950553Y-92681934D01*
X91950553Y-92681934D02*
X92031366Y-92654996D01*
X92031366Y-92654996D02*
X92139115Y-92547247D01*
X92139115Y-92547247D02*
X92166053Y-92466434D01*
X92166053Y-92466434D02*
X92166053Y-92412560D01*
X92166053Y-92412560D02*
X92139115Y-92331747D01*
X92139115Y-92331747D02*
X92031366Y-92223998D01*
X92031366Y-92223998D02*
X91950553Y-92197060D01*
X91950553Y-92197060D02*
X91896679Y-92197060D01*
X91896679Y-92197060D02*
X91815866Y-92223998D01*
X64426435Y-70468431D02*
X64345623Y-70495368D01*
X64345623Y-70495368D02*
X64264811Y-70576180D01*
X64264811Y-70576180D02*
X64210936Y-70683930D01*
X64210936Y-70683930D02*
X64210936Y-70791680D01*
X64210936Y-70791680D02*
X64237873Y-70872492D01*
X64237873Y-70872492D02*
X64318685Y-71007179D01*
X64318685Y-71007179D02*
X64399498Y-71087991D01*
X64399498Y-71087991D02*
X64534185Y-71168803D01*
X64534185Y-71168803D02*
X64614997Y-71195741D01*
X64614997Y-71195741D02*
X64722746Y-71195741D01*
X64722746Y-71195741D02*
X64830496Y-71141866D01*
X64830496Y-71141866D02*
X64884371Y-71087991D01*
X64884371Y-71087991D02*
X64938246Y-70980241D01*
X64938246Y-70980241D02*
X64938246Y-70926367D01*
X64938246Y-70926367D02*
X64749684Y-70737805D01*
X64749684Y-70737805D02*
X64641934Y-70845554D01*
X65234557Y-70737805D02*
X64668872Y-70172119D01*
X64668872Y-70172119D02*
X65557806Y-70414556D01*
X65557806Y-70414556D02*
X64992120Y-69848871D01*
X65827180Y-70145182D02*
X65261494Y-69579497D01*
X65261494Y-69579497D02*
X65396181Y-69444810D01*
X65396181Y-69444810D02*
X65503931Y-69390935D01*
X65503931Y-69390935D02*
X65611680Y-69390935D01*
X65611680Y-69390935D02*
X65692493Y-69417872D01*
X65692493Y-69417872D02*
X65827180Y-69498685D01*
X65827180Y-69498685D02*
X65907992Y-69579497D01*
X65907992Y-69579497D02*
X65988804Y-69714184D01*
X65988804Y-69714184D02*
X66015741Y-69794996D01*
X66015741Y-69794996D02*
X66015741Y-69902746D01*
X66015741Y-69902746D02*
X65961867Y-70010495D01*
X65961867Y-70010495D02*
X65827180Y-70145182D01*
X64353372Y-55191494D02*
X64272560Y-55218431D01*
X64272560Y-55218431D02*
X64191748Y-55299243D01*
X64191748Y-55299243D02*
X64137873Y-55406993D01*
X64137873Y-55406993D02*
X64137873Y-55514742D01*
X64137873Y-55514742D02*
X64164810Y-55595555D01*
X64164810Y-55595555D02*
X64245623Y-55730242D01*
X64245623Y-55730242D02*
X64326435Y-55811054D01*
X64326435Y-55811054D02*
X64461122Y-55891866D01*
X64461122Y-55891866D02*
X64541934Y-55918803D01*
X64541934Y-55918803D02*
X64649684Y-55918803D01*
X64649684Y-55918803D02*
X64757433Y-55864929D01*
X64757433Y-55864929D02*
X64811308Y-55811054D01*
X64811308Y-55811054D02*
X64865183Y-55703304D01*
X64865183Y-55703304D02*
X64865183Y-55649429D01*
X64865183Y-55649429D02*
X64676621Y-55460868D01*
X64676621Y-55460868D02*
X64568871Y-55568617D01*
X65161494Y-55460868D02*
X64595809Y-54895182D01*
X64595809Y-54895182D02*
X64811308Y-54679683D01*
X64811308Y-54679683D02*
X64892120Y-54652746D01*
X64892120Y-54652746D02*
X64945995Y-54652746D01*
X64945995Y-54652746D02*
X65026807Y-54679683D01*
X65026807Y-54679683D02*
X65107619Y-54760495D01*
X65107619Y-54760495D02*
X65134557Y-54841307D01*
X65134557Y-54841307D02*
X65134557Y-54895182D01*
X65134557Y-54895182D02*
X65107619Y-54975994D01*
X65107619Y-54975994D02*
X64892120Y-55191494D01*
X66023491Y-54598871D02*
X65700242Y-54922120D01*
X65861867Y-54760495D02*
X65296181Y-54194810D01*
X65296181Y-54194810D02*
X65323119Y-54329497D01*
X65323119Y-54329497D02*
X65323119Y-54437246D01*
X65323119Y-54437246D02*
X65296181Y-54518059D01*
X81844761Y-103194200D02*
X81959047Y-103232295D01*
X81959047Y-103232295D02*
X82149523Y-103232295D01*
X82149523Y-103232295D02*
X82225714Y-103194200D01*
X82225714Y-103194200D02*
X82263809Y-103156104D01*
X82263809Y-103156104D02*
X82301904Y-103079914D01*
X82301904Y-103079914D02*
X82301904Y-103003723D01*
X82301904Y-103003723D02*
X82263809Y-102927533D01*
X82263809Y-102927533D02*
X82225714Y-102889438D01*
X82225714Y-102889438D02*
X82149523Y-102851342D01*
X82149523Y-102851342D02*
X81997142Y-102813247D01*
X81997142Y-102813247D02*
X81920952Y-102775152D01*
X81920952Y-102775152D02*
X81882857Y-102737057D01*
X81882857Y-102737057D02*
X81844761Y-102660866D01*
X81844761Y-102660866D02*
X81844761Y-102584676D01*
X81844761Y-102584676D02*
X81882857Y-102508485D01*
X81882857Y-102508485D02*
X81920952Y-102470390D01*
X81920952Y-102470390D02*
X81997142Y-102432295D01*
X81997142Y-102432295D02*
X82187619Y-102432295D01*
X82187619Y-102432295D02*
X82301904Y-102470390D01*
X82568571Y-102432295D02*
X82759047Y-103232295D01*
X82759047Y-103232295D02*
X82911428Y-102660866D01*
X82911428Y-102660866D02*
X83063809Y-103232295D01*
X83063809Y-103232295D02*
X83254286Y-102432295D01*
X83559048Y-103232295D02*
X83559048Y-102432295D01*
X83559048Y-102432295D02*
X83749524Y-102432295D01*
X83749524Y-102432295D02*
X83863810Y-102470390D01*
X83863810Y-102470390D02*
X83940000Y-102546580D01*
X83940000Y-102546580D02*
X83978095Y-102622771D01*
X83978095Y-102622771D02*
X84016191Y-102775152D01*
X84016191Y-102775152D02*
X84016191Y-102889438D01*
X84016191Y-102889438D02*
X83978095Y-103041819D01*
X83978095Y-103041819D02*
X83940000Y-103118009D01*
X83940000Y-103118009D02*
X83863810Y-103194200D01*
X83863810Y-103194200D02*
X83749524Y-103232295D01*
X83749524Y-103232295D02*
X83559048Y-103232295D01*
X84359048Y-103232295D02*
X84359048Y-102432295D01*
X84892381Y-102432295D02*
X85044762Y-102432295D01*
X85044762Y-102432295D02*
X85120952Y-102470390D01*
X85120952Y-102470390D02*
X85197143Y-102546580D01*
X85197143Y-102546580D02*
X85235238Y-102698961D01*
X85235238Y-102698961D02*
X85235238Y-102965628D01*
X85235238Y-102965628D02*
X85197143Y-103118009D01*
X85197143Y-103118009D02*
X85120952Y-103194200D01*
X85120952Y-103194200D02*
X85044762Y-103232295D01*
X85044762Y-103232295D02*
X84892381Y-103232295D01*
X84892381Y-103232295D02*
X84816190Y-103194200D01*
X84816190Y-103194200D02*
X84740000Y-103118009D01*
X84740000Y-103118009D02*
X84701904Y-102965628D01*
X84701904Y-102965628D02*
X84701904Y-102698961D01*
X84701904Y-102698961D02*
X84740000Y-102546580D01*
X84740000Y-102546580D02*
X84816190Y-102470390D01*
X84816190Y-102470390D02*
X84892381Y-102432295D01*
X63783998Y-88490868D02*
X63703185Y-88517805D01*
X63703185Y-88517805D02*
X63622373Y-88598618D01*
X63622373Y-88598618D02*
X63568498Y-88706367D01*
X63568498Y-88706367D02*
X63568498Y-88814117D01*
X63568498Y-88814117D02*
X63595436Y-88894929D01*
X63595436Y-88894929D02*
X63676248Y-89029616D01*
X63676248Y-89029616D02*
X63757060Y-89110428D01*
X63757060Y-89110428D02*
X63891747Y-89191241D01*
X63891747Y-89191241D02*
X63972560Y-89218178D01*
X63972560Y-89218178D02*
X64080309Y-89218178D01*
X64080309Y-89218178D02*
X64188059Y-89164303D01*
X64188059Y-89164303D02*
X64241934Y-89110428D01*
X64241934Y-89110428D02*
X64295808Y-89002679D01*
X64295808Y-89002679D02*
X64295808Y-88948804D01*
X64295808Y-88948804D02*
X64107247Y-88760242D01*
X64107247Y-88760242D02*
X63999497Y-88867992D01*
X64592120Y-88760242D02*
X64026434Y-88194557D01*
X64026434Y-88194557D02*
X64241934Y-87979057D01*
X64241934Y-87979057D02*
X64322746Y-87952120D01*
X64322746Y-87952120D02*
X64376621Y-87952120D01*
X64376621Y-87952120D02*
X64457433Y-87979057D01*
X64457433Y-87979057D02*
X64538245Y-88059870D01*
X64538245Y-88059870D02*
X64565182Y-88140682D01*
X64565182Y-88140682D02*
X64565182Y-88194557D01*
X64565182Y-88194557D02*
X64538245Y-88275369D01*
X64538245Y-88275369D02*
X64322746Y-88490868D01*
X65454117Y-87898245D02*
X65130868Y-88221494D01*
X65292492Y-88059870D02*
X64726807Y-87494184D01*
X64726807Y-87494184D02*
X64753744Y-87628871D01*
X64753744Y-87628871D02*
X64753744Y-87736621D01*
X64753744Y-87736621D02*
X64726807Y-87817433D01*
X65992865Y-87359497D02*
X65669616Y-87682746D01*
X65831240Y-87521121D02*
X65265555Y-86955436D01*
X65265555Y-86955436D02*
X65292492Y-87090123D01*
X65292492Y-87090123D02*
X65292492Y-87197873D01*
X65292492Y-87197873D02*
X65265555Y-87278685D01*
X90026435Y-83168431D02*
X89945623Y-83195368D01*
X89945623Y-83195368D02*
X89864811Y-83276180D01*
X89864811Y-83276180D02*
X89810936Y-83383930D01*
X89810936Y-83383930D02*
X89810936Y-83491680D01*
X89810936Y-83491680D02*
X89837873Y-83572492D01*
X89837873Y-83572492D02*
X89918685Y-83707179D01*
X89918685Y-83707179D02*
X89999498Y-83787991D01*
X89999498Y-83787991D02*
X90134185Y-83868803D01*
X90134185Y-83868803D02*
X90214997Y-83895741D01*
X90214997Y-83895741D02*
X90322746Y-83895741D01*
X90322746Y-83895741D02*
X90430496Y-83841866D01*
X90430496Y-83841866D02*
X90484371Y-83787991D01*
X90484371Y-83787991D02*
X90538246Y-83680241D01*
X90538246Y-83680241D02*
X90538246Y-83626367D01*
X90538246Y-83626367D02*
X90349684Y-83437805D01*
X90349684Y-83437805D02*
X90241934Y-83545554D01*
X90834557Y-83437805D02*
X90268872Y-82872119D01*
X90268872Y-82872119D02*
X91157806Y-83114556D01*
X91157806Y-83114556D02*
X90592120Y-82548871D01*
X91427180Y-82845182D02*
X90861494Y-82279497D01*
X90861494Y-82279497D02*
X90996181Y-82144810D01*
X90996181Y-82144810D02*
X91103931Y-82090935D01*
X91103931Y-82090935D02*
X91211680Y-82090935D01*
X91211680Y-82090935D02*
X91292493Y-82117872D01*
X91292493Y-82117872D02*
X91427180Y-82198685D01*
X91427180Y-82198685D02*
X91507992Y-82279497D01*
X91507992Y-82279497D02*
X91588804Y-82414184D01*
X91588804Y-82414184D02*
X91615741Y-82494996D01*
X91615741Y-82494996D02*
X91615741Y-82602746D01*
X91615741Y-82602746D02*
X91561867Y-82710495D01*
X91561867Y-82710495D02*
X91427180Y-82845182D01*
X90037998Y-85960868D02*
X89957185Y-85987805D01*
X89957185Y-85987805D02*
X89876373Y-86068618D01*
X89876373Y-86068618D02*
X89822498Y-86176367D01*
X89822498Y-86176367D02*
X89822498Y-86284117D01*
X89822498Y-86284117D02*
X89849436Y-86364929D01*
X89849436Y-86364929D02*
X89930248Y-86499616D01*
X89930248Y-86499616D02*
X90011060Y-86580428D01*
X90011060Y-86580428D02*
X90145747Y-86661241D01*
X90145747Y-86661241D02*
X90226560Y-86688178D01*
X90226560Y-86688178D02*
X90334309Y-86688178D01*
X90334309Y-86688178D02*
X90442059Y-86634303D01*
X90442059Y-86634303D02*
X90495934Y-86580428D01*
X90495934Y-86580428D02*
X90549808Y-86472679D01*
X90549808Y-86472679D02*
X90549808Y-86418804D01*
X90549808Y-86418804D02*
X90361247Y-86230242D01*
X90361247Y-86230242D02*
X90253497Y-86337992D01*
X90846120Y-86230242D02*
X90280434Y-85664557D01*
X90280434Y-85664557D02*
X90495934Y-85449057D01*
X90495934Y-85449057D02*
X90576746Y-85422120D01*
X90576746Y-85422120D02*
X90630621Y-85422120D01*
X90630621Y-85422120D02*
X90711433Y-85449057D01*
X90711433Y-85449057D02*
X90792245Y-85529870D01*
X90792245Y-85529870D02*
X90819182Y-85610682D01*
X90819182Y-85610682D02*
X90819182Y-85664557D01*
X90819182Y-85664557D02*
X90792245Y-85745369D01*
X90792245Y-85745369D02*
X90576746Y-85960868D01*
X90873057Y-85179683D02*
X90873057Y-85125809D01*
X90873057Y-85125809D02*
X90899995Y-85044996D01*
X90899995Y-85044996D02*
X91034682Y-84910309D01*
X91034682Y-84910309D02*
X91115494Y-84883372D01*
X91115494Y-84883372D02*
X91169369Y-84883372D01*
X91169369Y-84883372D02*
X91250181Y-84910309D01*
X91250181Y-84910309D02*
X91304056Y-84964184D01*
X91304056Y-84964184D02*
X91357930Y-85071934D01*
X91357930Y-85071934D02*
X91357930Y-85718431D01*
X91357930Y-85718431D02*
X91708117Y-85368245D01*
X92246865Y-84829497D02*
X91923616Y-85152746D01*
X92085240Y-84991121D02*
X91519555Y-84425436D01*
X91519555Y-84425436D02*
X91546492Y-84560123D01*
X91546492Y-84560123D02*
X91546492Y-84667873D01*
X91546492Y-84667873D02*
X91519555Y-84748685D01*
X90037998Y-67916868D02*
X89957185Y-67943805D01*
X89957185Y-67943805D02*
X89876373Y-68024618D01*
X89876373Y-68024618D02*
X89822498Y-68132367D01*
X89822498Y-68132367D02*
X89822498Y-68240117D01*
X89822498Y-68240117D02*
X89849436Y-68320929D01*
X89849436Y-68320929D02*
X89930248Y-68455616D01*
X89930248Y-68455616D02*
X90011060Y-68536428D01*
X90011060Y-68536428D02*
X90145747Y-68617241D01*
X90145747Y-68617241D02*
X90226560Y-68644178D01*
X90226560Y-68644178D02*
X90334309Y-68644178D01*
X90334309Y-68644178D02*
X90442059Y-68590303D01*
X90442059Y-68590303D02*
X90495934Y-68536428D01*
X90495934Y-68536428D02*
X90549808Y-68428679D01*
X90549808Y-68428679D02*
X90549808Y-68374804D01*
X90549808Y-68374804D02*
X90361247Y-68186242D01*
X90361247Y-68186242D02*
X90253497Y-68293992D01*
X90846120Y-68186242D02*
X90280434Y-67620557D01*
X90280434Y-67620557D02*
X90495934Y-67405057D01*
X90495934Y-67405057D02*
X90576746Y-67378120D01*
X90576746Y-67378120D02*
X90630621Y-67378120D01*
X90630621Y-67378120D02*
X90711433Y-67405057D01*
X90711433Y-67405057D02*
X90792245Y-67485870D01*
X90792245Y-67485870D02*
X90819182Y-67566682D01*
X90819182Y-67566682D02*
X90819182Y-67620557D01*
X90819182Y-67620557D02*
X90792245Y-67701369D01*
X90792245Y-67701369D02*
X90576746Y-67916868D01*
X90873057Y-67135683D02*
X90873057Y-67081809D01*
X90873057Y-67081809D02*
X90899995Y-67000996D01*
X90899995Y-67000996D02*
X91034682Y-66866309D01*
X91034682Y-66866309D02*
X91115494Y-66839372D01*
X91115494Y-66839372D02*
X91169369Y-66839372D01*
X91169369Y-66839372D02*
X91250181Y-66866309D01*
X91250181Y-66866309D02*
X91304056Y-66920184D01*
X91304056Y-66920184D02*
X91357930Y-67027934D01*
X91357930Y-67027934D02*
X91357930Y-67674431D01*
X91357930Y-67674431D02*
X91708117Y-67324245D01*
X91708117Y-66677747D02*
X91627305Y-66704685D01*
X91627305Y-66704685D02*
X91573430Y-66704685D01*
X91573430Y-66704685D02*
X91492618Y-66677747D01*
X91492618Y-66677747D02*
X91465680Y-66650810D01*
X91465680Y-66650810D02*
X91438743Y-66569998D01*
X91438743Y-66569998D02*
X91438743Y-66516123D01*
X91438743Y-66516123D02*
X91465680Y-66435311D01*
X91465680Y-66435311D02*
X91573430Y-66327561D01*
X91573430Y-66327561D02*
X91654242Y-66300624D01*
X91654242Y-66300624D02*
X91708117Y-66300624D01*
X91708117Y-66300624D02*
X91788929Y-66327561D01*
X91788929Y-66327561D02*
X91815866Y-66354499D01*
X91815866Y-66354499D02*
X91842804Y-66435311D01*
X91842804Y-66435311D02*
X91842804Y-66489186D01*
X91842804Y-66489186D02*
X91815866Y-66569998D01*
X91815866Y-66569998D02*
X91708117Y-66677747D01*
X91708117Y-66677747D02*
X91681179Y-66758560D01*
X91681179Y-66758560D02*
X91681179Y-66812434D01*
X91681179Y-66812434D02*
X91708117Y-66893247D01*
X91708117Y-66893247D02*
X91815866Y-67000996D01*
X91815866Y-67000996D02*
X91896679Y-67027934D01*
X91896679Y-67027934D02*
X91950553Y-67027934D01*
X91950553Y-67027934D02*
X92031366Y-67000996D01*
X92031366Y-67000996D02*
X92139115Y-66893247D01*
X92139115Y-66893247D02*
X92166053Y-66812434D01*
X92166053Y-66812434D02*
X92166053Y-66758560D01*
X92166053Y-66758560D02*
X92139115Y-66677747D01*
X92139115Y-66677747D02*
X92031366Y-66569998D01*
X92031366Y-66569998D02*
X91950553Y-66543060D01*
X91950553Y-66543060D02*
X91896679Y-66543060D01*
X91896679Y-66543060D02*
X91815866Y-66569998D01*
X70430475Y-103194200D02*
X70544761Y-103232295D01*
X70544761Y-103232295D02*
X70735237Y-103232295D01*
X70735237Y-103232295D02*
X70811428Y-103194200D01*
X70811428Y-103194200D02*
X70849523Y-103156104D01*
X70849523Y-103156104D02*
X70887618Y-103079914D01*
X70887618Y-103079914D02*
X70887618Y-103003723D01*
X70887618Y-103003723D02*
X70849523Y-102927533D01*
X70849523Y-102927533D02*
X70811428Y-102889438D01*
X70811428Y-102889438D02*
X70735237Y-102851342D01*
X70735237Y-102851342D02*
X70582856Y-102813247D01*
X70582856Y-102813247D02*
X70506666Y-102775152D01*
X70506666Y-102775152D02*
X70468571Y-102737057D01*
X70468571Y-102737057D02*
X70430475Y-102660866D01*
X70430475Y-102660866D02*
X70430475Y-102584676D01*
X70430475Y-102584676D02*
X70468571Y-102508485D01*
X70468571Y-102508485D02*
X70506666Y-102470390D01*
X70506666Y-102470390D02*
X70582856Y-102432295D01*
X70582856Y-102432295D02*
X70773333Y-102432295D01*
X70773333Y-102432295D02*
X70887618Y-102470390D01*
X71154285Y-102432295D02*
X71344761Y-103232295D01*
X71344761Y-103232295D02*
X71497142Y-102660866D01*
X71497142Y-102660866D02*
X71649523Y-103232295D01*
X71649523Y-103232295D02*
X71840000Y-102432295D01*
X72601905Y-103156104D02*
X72563809Y-103194200D01*
X72563809Y-103194200D02*
X72449524Y-103232295D01*
X72449524Y-103232295D02*
X72373333Y-103232295D01*
X72373333Y-103232295D02*
X72259047Y-103194200D01*
X72259047Y-103194200D02*
X72182857Y-103118009D01*
X72182857Y-103118009D02*
X72144762Y-103041819D01*
X72144762Y-103041819D02*
X72106666Y-102889438D01*
X72106666Y-102889438D02*
X72106666Y-102775152D01*
X72106666Y-102775152D02*
X72144762Y-102622771D01*
X72144762Y-102622771D02*
X72182857Y-102546580D01*
X72182857Y-102546580D02*
X72259047Y-102470390D01*
X72259047Y-102470390D02*
X72373333Y-102432295D01*
X72373333Y-102432295D02*
X72449524Y-102432295D01*
X72449524Y-102432295D02*
X72563809Y-102470390D01*
X72563809Y-102470390D02*
X72601905Y-102508485D01*
X73325714Y-103232295D02*
X72944762Y-103232295D01*
X72944762Y-103232295D02*
X72944762Y-102432295D01*
X73592381Y-103232295D02*
X73592381Y-102432295D01*
X74049524Y-103232295D02*
X73706666Y-102775152D01*
X74049524Y-102432295D02*
X73592381Y-102889438D01*
X90095064Y-66204049D02*
X90364438Y-65934675D01*
X90202813Y-66419549D02*
X89825690Y-65665301D01*
X89825690Y-65665301D02*
X90579937Y-66042425D01*
X90768499Y-65853863D02*
X90202813Y-65288178D01*
X90202813Y-65288178D02*
X90337500Y-65153491D01*
X90337500Y-65153491D02*
X90445250Y-65099616D01*
X90445250Y-65099616D02*
X90552999Y-65099616D01*
X90552999Y-65099616D02*
X90633812Y-65126553D01*
X90633812Y-65126553D02*
X90768499Y-65207366D01*
X90768499Y-65207366D02*
X90849311Y-65288178D01*
X90849311Y-65288178D02*
X90930123Y-65422865D01*
X90930123Y-65422865D02*
X90957060Y-65503677D01*
X90957060Y-65503677D02*
X90957060Y-65611427D01*
X90957060Y-65611427D02*
X90903186Y-65719176D01*
X90903186Y-65719176D02*
X90768499Y-65853863D01*
X91603558Y-64911054D02*
X91603558Y-64964929D01*
X91603558Y-64964929D02*
X91549683Y-65072679D01*
X91549683Y-65072679D02*
X91495808Y-65126553D01*
X91495808Y-65126553D02*
X91388059Y-65180428D01*
X91388059Y-65180428D02*
X91280309Y-65180428D01*
X91280309Y-65180428D02*
X91199497Y-65153491D01*
X91199497Y-65153491D02*
X91064810Y-65072679D01*
X91064810Y-65072679D02*
X90983998Y-64991866D01*
X90983998Y-64991866D02*
X90903186Y-64857179D01*
X90903186Y-64857179D02*
X90876248Y-64776367D01*
X90876248Y-64776367D02*
X90876248Y-64668618D01*
X90876248Y-64668618D02*
X90930123Y-64560868D01*
X90930123Y-64560868D02*
X90983998Y-64506993D01*
X90983998Y-64506993D02*
X91091747Y-64453118D01*
X91091747Y-64453118D02*
X91145622Y-64453118D01*
X91819057Y-64911054D02*
X92250056Y-64480056D01*
X91684370Y-63806621D02*
X92438618Y-64183744D01*
X92438618Y-64183744D02*
X92061494Y-63429497D01*
X93138990Y-63483372D02*
X92681054Y-63402560D01*
X92815741Y-63806621D02*
X92250056Y-63240935D01*
X92250056Y-63240935D02*
X92465555Y-63025436D01*
X92465555Y-63025436D02*
X92546367Y-62998499D01*
X92546367Y-62998499D02*
X92600242Y-62998499D01*
X92600242Y-62998499D02*
X92681054Y-63025436D01*
X92681054Y-63025436D02*
X92761866Y-63106248D01*
X92761866Y-63106248D02*
X92788804Y-63187061D01*
X92788804Y-63187061D02*
X92788804Y-63240935D01*
X92788804Y-63240935D02*
X92761866Y-63321748D01*
X92761866Y-63321748D02*
X92546367Y-63537247D01*
X93085115Y-62944624D02*
X93273677Y-62756062D01*
X93650800Y-62971561D02*
X93381426Y-63240935D01*
X93381426Y-63240935D02*
X92815741Y-62675250D01*
X92815741Y-62675250D02*
X93085115Y-62405876D01*
X93785488Y-62244251D02*
X93596926Y-62432813D01*
X93893237Y-62729125D02*
X93327552Y-62163439D01*
X93327552Y-62163439D02*
X93596926Y-61894065D01*
X90037998Y-101190868D02*
X89957185Y-101217805D01*
X89957185Y-101217805D02*
X89876373Y-101298618D01*
X89876373Y-101298618D02*
X89822498Y-101406367D01*
X89822498Y-101406367D02*
X89822498Y-101514117D01*
X89822498Y-101514117D02*
X89849436Y-101594929D01*
X89849436Y-101594929D02*
X89930248Y-101729616D01*
X89930248Y-101729616D02*
X90011060Y-101810428D01*
X90011060Y-101810428D02*
X90145747Y-101891241D01*
X90145747Y-101891241D02*
X90226560Y-101918178D01*
X90226560Y-101918178D02*
X90334309Y-101918178D01*
X90334309Y-101918178D02*
X90442059Y-101864303D01*
X90442059Y-101864303D02*
X90495934Y-101810428D01*
X90495934Y-101810428D02*
X90549808Y-101702679D01*
X90549808Y-101702679D02*
X90549808Y-101648804D01*
X90549808Y-101648804D02*
X90361247Y-101460242D01*
X90361247Y-101460242D02*
X90253497Y-101567992D01*
X90846120Y-101460242D02*
X90280434Y-100894557D01*
X90280434Y-100894557D02*
X90495934Y-100679057D01*
X90495934Y-100679057D02*
X90576746Y-100652120D01*
X90576746Y-100652120D02*
X90630621Y-100652120D01*
X90630621Y-100652120D02*
X90711433Y-100679057D01*
X90711433Y-100679057D02*
X90792245Y-100759870D01*
X90792245Y-100759870D02*
X90819182Y-100840682D01*
X90819182Y-100840682D02*
X90819182Y-100894557D01*
X90819182Y-100894557D02*
X90792245Y-100975369D01*
X90792245Y-100975369D02*
X90576746Y-101190868D01*
X91708117Y-100598245D02*
X91384868Y-100921494D01*
X91546492Y-100759870D02*
X90980807Y-100194184D01*
X90980807Y-100194184D02*
X91007744Y-100328871D01*
X91007744Y-100328871D02*
X91007744Y-100436621D01*
X91007744Y-100436621D02*
X90980807Y-100517433D01*
X91627305Y-99547686D02*
X91519555Y-99655436D01*
X91519555Y-99655436D02*
X91492618Y-99736248D01*
X91492618Y-99736248D02*
X91492618Y-99790123D01*
X91492618Y-99790123D02*
X91519555Y-99924810D01*
X91519555Y-99924810D02*
X91600367Y-100059497D01*
X91600367Y-100059497D02*
X91815866Y-100274996D01*
X91815866Y-100274996D02*
X91896679Y-100301934D01*
X91896679Y-100301934D02*
X91950553Y-100301934D01*
X91950553Y-100301934D02*
X92031366Y-100274996D01*
X92031366Y-100274996D02*
X92139115Y-100167247D01*
X92139115Y-100167247D02*
X92166053Y-100086434D01*
X92166053Y-100086434D02*
X92166053Y-100032560D01*
X92166053Y-100032560D02*
X92139115Y-99951747D01*
X92139115Y-99951747D02*
X92004428Y-99817060D01*
X92004428Y-99817060D02*
X91923616Y-99790123D01*
X91923616Y-99790123D02*
X91869741Y-99790123D01*
X91869741Y-99790123D02*
X91788929Y-99817060D01*
X91788929Y-99817060D02*
X91681179Y-99924810D01*
X91681179Y-99924810D02*
X91654242Y-100005622D01*
X91654242Y-100005622D02*
X91654242Y-100059497D01*
X91654242Y-100059497D02*
X91681179Y-100140309D01*
X90778651Y-78613710D02*
X90320716Y-78532898D01*
X90455403Y-78936959D02*
X89889717Y-78371274D01*
X89889717Y-78371274D02*
X90105216Y-78155775D01*
X90105216Y-78155775D02*
X90186029Y-78128837D01*
X90186029Y-78128837D02*
X90239903Y-78128837D01*
X90239903Y-78128837D02*
X90320716Y-78155775D01*
X90320716Y-78155775D02*
X90401528Y-78236587D01*
X90401528Y-78236587D02*
X90428465Y-78317399D01*
X90428465Y-78317399D02*
X90428465Y-78371274D01*
X90428465Y-78371274D02*
X90401528Y-78452086D01*
X90401528Y-78452086D02*
X90186029Y-78667585D01*
X90455403Y-77805588D02*
X90913338Y-78263524D01*
X90913338Y-78263524D02*
X90994151Y-78290462D01*
X90994151Y-78290462D02*
X91048025Y-78290462D01*
X91048025Y-78290462D02*
X91128838Y-78263524D01*
X91128838Y-78263524D02*
X91236587Y-78155775D01*
X91236587Y-78155775D02*
X91263525Y-78074962D01*
X91263525Y-78074962D02*
X91263525Y-78021088D01*
X91263525Y-78021088D02*
X91236587Y-77940275D01*
X91236587Y-77940275D02*
X90778651Y-77482340D01*
X91613711Y-77778651D02*
X91048025Y-77212966D01*
X91048025Y-77212966D02*
X91936959Y-77455402D01*
X91936959Y-77455402D02*
X91371274Y-76889717D01*
X64453372Y-80601494D02*
X64372560Y-80628431D01*
X64372560Y-80628431D02*
X64291748Y-80709243D01*
X64291748Y-80709243D02*
X64237873Y-80816993D01*
X64237873Y-80816993D02*
X64237873Y-80924742D01*
X64237873Y-80924742D02*
X64264810Y-81005555D01*
X64264810Y-81005555D02*
X64345623Y-81140242D01*
X64345623Y-81140242D02*
X64426435Y-81221054D01*
X64426435Y-81221054D02*
X64561122Y-81301866D01*
X64561122Y-81301866D02*
X64641934Y-81328803D01*
X64641934Y-81328803D02*
X64749684Y-81328803D01*
X64749684Y-81328803D02*
X64857433Y-81274929D01*
X64857433Y-81274929D02*
X64911308Y-81221054D01*
X64911308Y-81221054D02*
X64965183Y-81113304D01*
X64965183Y-81113304D02*
X64965183Y-81059429D01*
X64965183Y-81059429D02*
X64776621Y-80870868D01*
X64776621Y-80870868D02*
X64668871Y-80978617D01*
X65261494Y-80870868D02*
X64695809Y-80305182D01*
X64695809Y-80305182D02*
X64911308Y-80089683D01*
X64911308Y-80089683D02*
X64992120Y-80062746D01*
X64992120Y-80062746D02*
X65045995Y-80062746D01*
X65045995Y-80062746D02*
X65126807Y-80089683D01*
X65126807Y-80089683D02*
X65207619Y-80170495D01*
X65207619Y-80170495D02*
X65234557Y-80251307D01*
X65234557Y-80251307D02*
X65234557Y-80305182D01*
X65234557Y-80305182D02*
X65207619Y-80385994D01*
X65207619Y-80385994D02*
X64992120Y-80601494D01*
X65854117Y-80278245D02*
X65961867Y-80170495D01*
X65961867Y-80170495D02*
X65988804Y-80089683D01*
X65988804Y-80089683D02*
X65988804Y-80035808D01*
X65988804Y-80035808D02*
X65961867Y-79901121D01*
X65961867Y-79901121D02*
X65881054Y-79766434D01*
X65881054Y-79766434D02*
X65665555Y-79550935D01*
X65665555Y-79550935D02*
X65584743Y-79523998D01*
X65584743Y-79523998D02*
X65530868Y-79523998D01*
X65530868Y-79523998D02*
X65450056Y-79550935D01*
X65450056Y-79550935D02*
X65342306Y-79658685D01*
X65342306Y-79658685D02*
X65315369Y-79739497D01*
X65315369Y-79739497D02*
X65315369Y-79793372D01*
X65315369Y-79793372D02*
X65342306Y-79874184D01*
X65342306Y-79874184D02*
X65476993Y-80008871D01*
X65476993Y-80008871D02*
X65557806Y-80035808D01*
X65557806Y-80035808D02*
X65611680Y-80035808D01*
X65611680Y-80035808D02*
X65692493Y-80008871D01*
X65692493Y-80008871D02*
X65800242Y-79901121D01*
X65800242Y-79901121D02*
X65827180Y-79820309D01*
X65827180Y-79820309D02*
X65827180Y-79766434D01*
X65827180Y-79766434D02*
X65800242Y-79685622D01*
X90037998Y-73260868D02*
X89957185Y-73287805D01*
X89957185Y-73287805D02*
X89876373Y-73368618D01*
X89876373Y-73368618D02*
X89822498Y-73476367D01*
X89822498Y-73476367D02*
X89822498Y-73584117D01*
X89822498Y-73584117D02*
X89849436Y-73664929D01*
X89849436Y-73664929D02*
X89930248Y-73799616D01*
X89930248Y-73799616D02*
X90011060Y-73880428D01*
X90011060Y-73880428D02*
X90145747Y-73961241D01*
X90145747Y-73961241D02*
X90226560Y-73988178D01*
X90226560Y-73988178D02*
X90334309Y-73988178D01*
X90334309Y-73988178D02*
X90442059Y-73934303D01*
X90442059Y-73934303D02*
X90495934Y-73880428D01*
X90495934Y-73880428D02*
X90549808Y-73772679D01*
X90549808Y-73772679D02*
X90549808Y-73718804D01*
X90549808Y-73718804D02*
X90361247Y-73530242D01*
X90361247Y-73530242D02*
X90253497Y-73637992D01*
X90846120Y-73530242D02*
X90280434Y-72964557D01*
X90280434Y-72964557D02*
X90495934Y-72749057D01*
X90495934Y-72749057D02*
X90576746Y-72722120D01*
X90576746Y-72722120D02*
X90630621Y-72722120D01*
X90630621Y-72722120D02*
X90711433Y-72749057D01*
X90711433Y-72749057D02*
X90792245Y-72829870D01*
X90792245Y-72829870D02*
X90819182Y-72910682D01*
X90819182Y-72910682D02*
X90819182Y-72964557D01*
X90819182Y-72964557D02*
X90792245Y-73045369D01*
X90792245Y-73045369D02*
X90576746Y-73260868D01*
X90873057Y-72479683D02*
X90873057Y-72425809D01*
X90873057Y-72425809D02*
X90899995Y-72344996D01*
X90899995Y-72344996D02*
X91034682Y-72210309D01*
X91034682Y-72210309D02*
X91115494Y-72183372D01*
X91115494Y-72183372D02*
X91169369Y-72183372D01*
X91169369Y-72183372D02*
X91250181Y-72210309D01*
X91250181Y-72210309D02*
X91304056Y-72264184D01*
X91304056Y-72264184D02*
X91357930Y-72371934D01*
X91357930Y-72371934D02*
X91357930Y-73018431D01*
X91357930Y-73018431D02*
X91708117Y-72668245D01*
X91330993Y-71913998D02*
X91708117Y-71536874D01*
X91708117Y-71536874D02*
X92031366Y-72344996D01*
X64553372Y-75491494D02*
X64472560Y-75518431D01*
X64472560Y-75518431D02*
X64391748Y-75599243D01*
X64391748Y-75599243D02*
X64337873Y-75706993D01*
X64337873Y-75706993D02*
X64337873Y-75814742D01*
X64337873Y-75814742D02*
X64364810Y-75895555D01*
X64364810Y-75895555D02*
X64445623Y-76030242D01*
X64445623Y-76030242D02*
X64526435Y-76111054D01*
X64526435Y-76111054D02*
X64661122Y-76191866D01*
X64661122Y-76191866D02*
X64741934Y-76218803D01*
X64741934Y-76218803D02*
X64849684Y-76218803D01*
X64849684Y-76218803D02*
X64957433Y-76164929D01*
X64957433Y-76164929D02*
X65011308Y-76111054D01*
X65011308Y-76111054D02*
X65065183Y-76003304D01*
X65065183Y-76003304D02*
X65065183Y-75949429D01*
X65065183Y-75949429D02*
X64876621Y-75760868D01*
X64876621Y-75760868D02*
X64768871Y-75868617D01*
X65361494Y-75760868D02*
X64795809Y-75195182D01*
X64795809Y-75195182D02*
X65011308Y-74979683D01*
X65011308Y-74979683D02*
X65092120Y-74952746D01*
X65092120Y-74952746D02*
X65145995Y-74952746D01*
X65145995Y-74952746D02*
X65226807Y-74979683D01*
X65226807Y-74979683D02*
X65307619Y-75060495D01*
X65307619Y-75060495D02*
X65334557Y-75141307D01*
X65334557Y-75141307D02*
X65334557Y-75195182D01*
X65334557Y-75195182D02*
X65307619Y-75275994D01*
X65307619Y-75275994D02*
X65092120Y-75491494D01*
X65307619Y-74683372D02*
X65684743Y-74306248D01*
X65684743Y-74306248D02*
X66007992Y-75114370D01*
X63929998Y-101190868D02*
X63849185Y-101217805D01*
X63849185Y-101217805D02*
X63768373Y-101298618D01*
X63768373Y-101298618D02*
X63714498Y-101406367D01*
X63714498Y-101406367D02*
X63714498Y-101514117D01*
X63714498Y-101514117D02*
X63741436Y-101594929D01*
X63741436Y-101594929D02*
X63822248Y-101729616D01*
X63822248Y-101729616D02*
X63903060Y-101810428D01*
X63903060Y-101810428D02*
X64037747Y-101891241D01*
X64037747Y-101891241D02*
X64118560Y-101918178D01*
X64118560Y-101918178D02*
X64226309Y-101918178D01*
X64226309Y-101918178D02*
X64334059Y-101864303D01*
X64334059Y-101864303D02*
X64387934Y-101810428D01*
X64387934Y-101810428D02*
X64441808Y-101702679D01*
X64441808Y-101702679D02*
X64441808Y-101648804D01*
X64441808Y-101648804D02*
X64253247Y-101460242D01*
X64253247Y-101460242D02*
X64145497Y-101567992D01*
X64738120Y-101460242D02*
X64172434Y-100894557D01*
X64172434Y-100894557D02*
X64387934Y-100679057D01*
X64387934Y-100679057D02*
X64468746Y-100652120D01*
X64468746Y-100652120D02*
X64522621Y-100652120D01*
X64522621Y-100652120D02*
X64603433Y-100679057D01*
X64603433Y-100679057D02*
X64684245Y-100759870D01*
X64684245Y-100759870D02*
X64711182Y-100840682D01*
X64711182Y-100840682D02*
X64711182Y-100894557D01*
X64711182Y-100894557D02*
X64684245Y-100975369D01*
X64684245Y-100975369D02*
X64468746Y-101190868D01*
X65600117Y-100598245D02*
X65276868Y-100921494D01*
X65438492Y-100759870D02*
X64872807Y-100194184D01*
X64872807Y-100194184D02*
X64899744Y-100328871D01*
X64899744Y-100328871D02*
X64899744Y-100436621D01*
X64899744Y-100436621D02*
X64872807Y-100517433D01*
X65546242Y-99520749D02*
X65276868Y-99790123D01*
X65276868Y-99790123D02*
X65519305Y-100086434D01*
X65519305Y-100086434D02*
X65519305Y-100032560D01*
X65519305Y-100032560D02*
X65546242Y-99951747D01*
X65546242Y-99951747D02*
X65680929Y-99817060D01*
X65680929Y-99817060D02*
X65761741Y-99790123D01*
X65761741Y-99790123D02*
X65815616Y-99790123D01*
X65815616Y-99790123D02*
X65896428Y-99817060D01*
X65896428Y-99817060D02*
X66031115Y-99951747D01*
X66031115Y-99951747D02*
X66058053Y-100032560D01*
X66058053Y-100032560D02*
X66058053Y-100086434D01*
X66058053Y-100086434D02*
X66031115Y-100167247D01*
X66031115Y-100167247D02*
X65896428Y-100301934D01*
X65896428Y-100301934D02*
X65815616Y-100328871D01*
X65815616Y-100328871D02*
X65761741Y-100328871D01*
X56858095Y-52994819D02*
X56858095Y-51994819D01*
X56858095Y-52471009D02*
X57429523Y-52471009D01*
X57429523Y-52994819D02*
X57429523Y-51994819D01*
X57810476Y-51994819D02*
X58429523Y-51994819D01*
X58429523Y-51994819D02*
X58096190Y-52375771D01*
X58096190Y-52375771D02*
X58239047Y-52375771D01*
X58239047Y-52375771D02*
X58334285Y-52423390D01*
X58334285Y-52423390D02*
X58381904Y-52471009D01*
X58381904Y-52471009D02*
X58429523Y-52566247D01*
X58429523Y-52566247D02*
X58429523Y-52804342D01*
X58429523Y-52804342D02*
X58381904Y-52899580D01*
X58381904Y-52899580D02*
X58334285Y-52947200D01*
X58334285Y-52947200D02*
X58239047Y-52994819D01*
X58239047Y-52994819D02*
X57953333Y-52994819D01*
X57953333Y-52994819D02*
X57858095Y-52947200D01*
X57858095Y-52947200D02*
X57810476Y-52899580D01*
X99830057Y-57715238D02*
X99782438Y-57810476D01*
X99782438Y-57810476D02*
X99687200Y-57905714D01*
X99687200Y-57905714D02*
X99544342Y-58048571D01*
X99544342Y-58048571D02*
X99496723Y-58143809D01*
X99496723Y-58143809D02*
X99496723Y-58239047D01*
X99734819Y-58191428D02*
X99687200Y-58286666D01*
X99687200Y-58286666D02*
X99591961Y-58381904D01*
X99591961Y-58381904D02*
X99401485Y-58429523D01*
X99401485Y-58429523D02*
X99068152Y-58429523D01*
X99068152Y-58429523D02*
X98877676Y-58381904D01*
X98877676Y-58381904D02*
X98782438Y-58286666D01*
X98782438Y-58286666D02*
X98734819Y-58191428D01*
X98734819Y-58191428D02*
X98734819Y-58000952D01*
X98734819Y-58000952D02*
X98782438Y-57905714D01*
X98782438Y-57905714D02*
X98877676Y-57810476D01*
X98877676Y-57810476D02*
X99068152Y-57762857D01*
X99068152Y-57762857D02*
X99401485Y-57762857D01*
X99401485Y-57762857D02*
X99591961Y-57810476D01*
X99591961Y-57810476D02*
X99687200Y-57905714D01*
X99687200Y-57905714D02*
X99734819Y-58000952D01*
X99734819Y-58000952D02*
X99734819Y-58191428D01*
X99734819Y-56810476D02*
X99734819Y-57381904D01*
X99734819Y-57096190D02*
X98734819Y-57096190D01*
X98734819Y-57096190D02*
X98877676Y-57191428D01*
X98877676Y-57191428D02*
X98972914Y-57286666D01*
X98972914Y-57286666D02*
X99020533Y-57381904D01*
X53238095Y-112254819D02*
X53238095Y-111254819D01*
X53238095Y-111731009D02*
X53809523Y-111731009D01*
X53809523Y-112254819D02*
X53809523Y-111254819D01*
X54238095Y-111350057D02*
X54285714Y-111302438D01*
X54285714Y-111302438D02*
X54380952Y-111254819D01*
X54380952Y-111254819D02*
X54619047Y-111254819D01*
X54619047Y-111254819D02*
X54714285Y-111302438D01*
X54714285Y-111302438D02*
X54761904Y-111350057D01*
X54761904Y-111350057D02*
X54809523Y-111445295D01*
X54809523Y-111445295D02*
X54809523Y-111540533D01*
X54809523Y-111540533D02*
X54761904Y-111683390D01*
X54761904Y-111683390D02*
X54190476Y-112254819D01*
X54190476Y-112254819D02*
X54809523Y-112254819D01*
X84298095Y-110956819D02*
X84869523Y-110956819D01*
X84583809Y-111956819D02*
X84583809Y-110956819D01*
X85202857Y-111956819D02*
X85202857Y-110956819D01*
X85202857Y-110956819D02*
X85583809Y-110956819D01*
X85583809Y-110956819D02*
X85679047Y-111004438D01*
X85679047Y-111004438D02*
X85726666Y-111052057D01*
X85726666Y-111052057D02*
X85774285Y-111147295D01*
X85774285Y-111147295D02*
X85774285Y-111290152D01*
X85774285Y-111290152D02*
X85726666Y-111385390D01*
X85726666Y-111385390D02*
X85679047Y-111433009D01*
X85679047Y-111433009D02*
X85583809Y-111480628D01*
X85583809Y-111480628D02*
X85202857Y-111480628D01*
X86726666Y-111956819D02*
X86155238Y-111956819D01*
X86440952Y-111956819D02*
X86440952Y-110956819D01*
X86440952Y-110956819D02*
X86345714Y-111099676D01*
X86345714Y-111099676D02*
X86250476Y-111194914D01*
X86250476Y-111194914D02*
X86155238Y-111242533D01*
D12*
%TO.C,C1*%
X92935225Y-71385000D02*
X93435225Y-71385000D01*
X93185225Y-71135000D02*
X93185225Y-71635000D01*
X95740000Y-70280000D02*
X95740000Y-75440000D01*
X95780000Y-70280000D02*
X95780000Y-75440000D01*
X95820000Y-70281000D02*
X95820000Y-75439000D01*
X95860000Y-70282000D02*
X95860000Y-75438000D01*
X95900000Y-70284000D02*
X95900000Y-75436000D01*
X95940000Y-70287000D02*
X95940000Y-75433000D01*
X95980000Y-70291000D02*
X95980000Y-71820000D01*
X95980000Y-73900000D02*
X95980000Y-75429000D01*
X96020000Y-70295000D02*
X96020000Y-71820000D01*
X96020000Y-73900000D02*
X96020000Y-75425000D01*
X96060000Y-70299000D02*
X96060000Y-71820000D01*
X96060000Y-73900000D02*
X96060000Y-75421000D01*
X96100000Y-70304000D02*
X96100000Y-71820000D01*
X96100000Y-73900000D02*
X96100000Y-75416000D01*
X96140000Y-70310000D02*
X96140000Y-71820000D01*
X96140000Y-73900000D02*
X96140000Y-75410000D01*
X96180000Y-70317000D02*
X96180000Y-71820000D01*
X96180000Y-73900000D02*
X96180000Y-75403000D01*
X96220000Y-70324000D02*
X96220000Y-71820000D01*
X96220000Y-73900000D02*
X96220000Y-75396000D01*
X96260000Y-70332000D02*
X96260000Y-71820000D01*
X96260000Y-73900000D02*
X96260000Y-75388000D01*
X96300000Y-70340000D02*
X96300000Y-71820000D01*
X96300000Y-73900000D02*
X96300000Y-75380000D01*
X96340000Y-70349000D02*
X96340000Y-71820000D01*
X96340000Y-73900000D02*
X96340000Y-75371000D01*
X96380000Y-70359000D02*
X96380000Y-71820000D01*
X96380000Y-73900000D02*
X96380000Y-75361000D01*
X96420000Y-70369000D02*
X96420000Y-71820000D01*
X96420000Y-73900000D02*
X96420000Y-75351000D01*
X96461000Y-70380000D02*
X96461000Y-71820000D01*
X96461000Y-73900000D02*
X96461000Y-75340000D01*
X96501000Y-70392000D02*
X96501000Y-71820000D01*
X96501000Y-73900000D02*
X96501000Y-75328000D01*
X96541000Y-70405000D02*
X96541000Y-71820000D01*
X96541000Y-73900000D02*
X96541000Y-75315000D01*
X96581000Y-70418000D02*
X96581000Y-71820000D01*
X96581000Y-73900000D02*
X96581000Y-75302000D01*
X96621000Y-70432000D02*
X96621000Y-71820000D01*
X96621000Y-73900000D02*
X96621000Y-75288000D01*
X96661000Y-70446000D02*
X96661000Y-71820000D01*
X96661000Y-73900000D02*
X96661000Y-75274000D01*
X96701000Y-70462000D02*
X96701000Y-71820000D01*
X96701000Y-73900000D02*
X96701000Y-75258000D01*
X96741000Y-70478000D02*
X96741000Y-71820000D01*
X96741000Y-73900000D02*
X96741000Y-75242000D01*
X96781000Y-70495000D02*
X96781000Y-71820000D01*
X96781000Y-73900000D02*
X96781000Y-75225000D01*
X96821000Y-70512000D02*
X96821000Y-71820000D01*
X96821000Y-73900000D02*
X96821000Y-75208000D01*
X96861000Y-70531000D02*
X96861000Y-71820000D01*
X96861000Y-73900000D02*
X96861000Y-75189000D01*
X96901000Y-70550000D02*
X96901000Y-71820000D01*
X96901000Y-73900000D02*
X96901000Y-75170000D01*
X96941000Y-70570000D02*
X96941000Y-71820000D01*
X96941000Y-73900000D02*
X96941000Y-75150000D01*
X96981000Y-70592000D02*
X96981000Y-71820000D01*
X96981000Y-73900000D02*
X96981000Y-75128000D01*
X97021000Y-70613000D02*
X97021000Y-71820000D01*
X97021000Y-73900000D02*
X97021000Y-75107000D01*
X97061000Y-70636000D02*
X97061000Y-71820000D01*
X97061000Y-73900000D02*
X97061000Y-75084000D01*
X97101000Y-70660000D02*
X97101000Y-71820000D01*
X97101000Y-73900000D02*
X97101000Y-75060000D01*
X97141000Y-70685000D02*
X97141000Y-71820000D01*
X97141000Y-73900000D02*
X97141000Y-75035000D01*
X97181000Y-70711000D02*
X97181000Y-71820000D01*
X97181000Y-73900000D02*
X97181000Y-75009000D01*
X97221000Y-70738000D02*
X97221000Y-71820000D01*
X97221000Y-73900000D02*
X97221000Y-74982000D01*
X97261000Y-70765000D02*
X97261000Y-71820000D01*
X97261000Y-73900000D02*
X97261000Y-74955000D01*
X97301000Y-70795000D02*
X97301000Y-71820000D01*
X97301000Y-73900000D02*
X97301000Y-74925000D01*
X97341000Y-70825000D02*
X97341000Y-71820000D01*
X97341000Y-73900000D02*
X97341000Y-74895000D01*
X97381000Y-70856000D02*
X97381000Y-71820000D01*
X97381000Y-73900000D02*
X97381000Y-74864000D01*
X97421000Y-70889000D02*
X97421000Y-71820000D01*
X97421000Y-73900000D02*
X97421000Y-74831000D01*
X97461000Y-70923000D02*
X97461000Y-71820000D01*
X97461000Y-73900000D02*
X97461000Y-74797000D01*
X97501000Y-70959000D02*
X97501000Y-71820000D01*
X97501000Y-73900000D02*
X97501000Y-74761000D01*
X97541000Y-70996000D02*
X97541000Y-71820000D01*
X97541000Y-73900000D02*
X97541000Y-74724000D01*
X97581000Y-71034000D02*
X97581000Y-71820000D01*
X97581000Y-73900000D02*
X97581000Y-74686000D01*
X97621000Y-71075000D02*
X97621000Y-71820000D01*
X97621000Y-73900000D02*
X97621000Y-74645000D01*
X97661000Y-71117000D02*
X97661000Y-71820000D01*
X97661000Y-73900000D02*
X97661000Y-74603000D01*
X97701000Y-71161000D02*
X97701000Y-71820000D01*
X97701000Y-73900000D02*
X97701000Y-74559000D01*
X97741000Y-71207000D02*
X97741000Y-71820000D01*
X97741000Y-73900000D02*
X97741000Y-74513000D01*
X97781000Y-71255000D02*
X97781000Y-71820000D01*
X97781000Y-73900000D02*
X97781000Y-74465000D01*
X97821000Y-71306000D02*
X97821000Y-71820000D01*
X97821000Y-73900000D02*
X97821000Y-74414000D01*
X97861000Y-71360000D02*
X97861000Y-71820000D01*
X97861000Y-73900000D02*
X97861000Y-74360000D01*
X97901000Y-71417000D02*
X97901000Y-71820000D01*
X97901000Y-73900000D02*
X97901000Y-74303000D01*
X97941000Y-71477000D02*
X97941000Y-71820000D01*
X97941000Y-73900000D02*
X97941000Y-74243000D01*
X97981000Y-71541000D02*
X97981000Y-71820000D01*
X97981000Y-73900000D02*
X97981000Y-74179000D01*
X98021000Y-71609000D02*
X98021000Y-71820000D01*
X98021000Y-73900000D02*
X98021000Y-74111000D01*
X98061000Y-71682000D02*
X98061000Y-74038000D01*
X98101000Y-71762000D02*
X98101000Y-73958000D01*
X98141000Y-71849000D02*
X98141000Y-73871000D01*
X98181000Y-71945000D02*
X98181000Y-73775000D01*
X98221000Y-72055000D02*
X98221000Y-73665000D01*
X98261000Y-72183000D02*
X98261000Y-73537000D01*
X98301000Y-72342000D02*
X98301000Y-73378000D01*
X98341000Y-72576000D02*
X98341000Y-73144000D01*
X98360000Y-72860000D02*
G75*
G03*
X93120000Y-72860000I-2620000J0D01*
G01*
X93120000Y-72860000D02*
G75*
G03*
X98360000Y-72860000I2620000J0D01*
G01*
%TO.C,SW3*%
X54500000Y-96250000D02*
X54500000Y-97750000D01*
X55750000Y-100250000D02*
X60250000Y-100250000D01*
X60250000Y-93750000D02*
X55750000Y-93750000D01*
X61500000Y-97750000D02*
X61500000Y-96250000D01*
%TO.C,SW2*%
X54500000Y-78250000D02*
X54500000Y-79750000D01*
X55750000Y-82250000D02*
X60250000Y-82250000D01*
X60250000Y-75750000D02*
X55750000Y-75750000D01*
X61500000Y-79750000D02*
X61500000Y-78250000D01*
%TO.C,SW1*%
X54500000Y-62250000D02*
X54500000Y-63750000D01*
X55750000Y-66250000D02*
X60250000Y-66250000D01*
X60250000Y-59750000D02*
X55750000Y-59750000D01*
X61500000Y-63750000D02*
X61500000Y-62250000D01*
%TO.C,C2*%
X94120000Y-64120000D02*
X94120000Y-64185000D01*
X94120000Y-64120000D02*
X97360000Y-64120000D01*
X94120000Y-66295000D02*
X94120000Y-66360000D01*
X94120000Y-66360000D02*
X97360000Y-66360000D01*
X97360000Y-64120000D02*
X97360000Y-64185000D01*
X97360000Y-66295000D02*
X97360000Y-66360000D01*
%TO.C,J1*%
X95660000Y-84290000D02*
X95660000Y-89430000D01*
X95660000Y-84290000D02*
X98320000Y-84290000D01*
X95660000Y-89430000D02*
X98320000Y-89430000D01*
X96990000Y-81690000D02*
X98320000Y-81690000D01*
X98320000Y-81690000D02*
X98320000Y-83020000D01*
X98320000Y-84290000D02*
X98320000Y-89430000D01*
%TO.C,J4*%
X100740000Y-63970000D02*
X100740000Y-66570000D01*
X100740000Y-63970000D02*
X103400000Y-63970000D01*
X100740000Y-66570000D02*
X103400000Y-66570000D01*
X102070000Y-61370000D02*
X103400000Y-61370000D01*
X103400000Y-61370000D02*
X103400000Y-62700000D01*
X103400000Y-63970000D02*
X103400000Y-66570000D01*
%TO.C,J2*%
X91875000Y-109705000D02*
X91875000Y-114845000D01*
X91875000Y-109705000D02*
X94535000Y-109705000D01*
X91875000Y-114845000D02*
X94535000Y-114845000D01*
X93205000Y-107105000D02*
X94535000Y-107105000D01*
X94535000Y-107105000D02*
X94535000Y-108435000D01*
X94535000Y-109705000D02*
X94535000Y-114845000D01*
%TO.C,J5*%
X100740000Y-72860000D02*
X100740000Y-75460000D01*
X100740000Y-72860000D02*
X103400000Y-72860000D01*
X100740000Y-75460000D02*
X103400000Y-75460000D01*
X102070000Y-70260000D02*
X103400000Y-70260000D01*
X103400000Y-70260000D02*
X103400000Y-71590000D01*
X103400000Y-72860000D02*
X103400000Y-75460000D01*
%TO.C,J3*%
X62665000Y-109705000D02*
X62665000Y-114845000D01*
X62665000Y-109705000D02*
X65325000Y-109705000D01*
X62665000Y-114845000D02*
X65325000Y-114845000D01*
X63995000Y-107105000D02*
X65325000Y-107105000D01*
X65325000Y-107105000D02*
X65325000Y-108435000D01*
X65325000Y-109705000D02*
X65325000Y-114845000D01*
%TO.C,U1*%
X67440000Y-51170000D02*
X67440000Y-51470000D01*
X67440000Y-51170000D02*
X88440000Y-51170000D01*
X67440000Y-53570000D02*
X67440000Y-53970000D01*
X67440000Y-53837000D02*
X70447000Y-53837000D01*
X67440000Y-56170000D02*
X67440000Y-56570000D01*
X67440000Y-58670000D02*
X67440000Y-59070000D01*
X67440000Y-61270000D02*
X67440000Y-61670000D01*
X67440000Y-63770000D02*
X67440000Y-64170000D01*
X67440000Y-66270000D02*
X67440000Y-66670000D01*
X67440000Y-68870000D02*
X67440000Y-69270000D01*
X67440000Y-71370000D02*
X67440000Y-71770000D01*
X67440000Y-73970000D02*
X67440000Y-74370000D01*
X67440000Y-76470000D02*
X67440000Y-76870000D01*
X67440000Y-78970000D02*
X67440000Y-79370000D01*
X67440000Y-81570000D02*
X67440000Y-81970000D01*
X67440000Y-84070000D02*
X67440000Y-84470000D01*
X67440000Y-86670000D02*
X67440000Y-87070000D01*
X67440000Y-89170000D02*
X67440000Y-89570000D01*
X67440000Y-91770000D02*
X67440000Y-92170000D01*
X67440000Y-94270000D02*
X67440000Y-94670000D01*
X67440000Y-96770000D02*
X67440000Y-97170000D01*
X67440000Y-99370000D02*
X67440000Y-99770000D01*
X70447000Y-53837000D02*
X70447000Y-51170000D01*
X74240000Y-102170000D02*
X67440000Y-102170000D01*
X76440000Y-102170000D02*
X76840000Y-102170000D01*
X79040000Y-102170000D02*
X79440000Y-102170000D01*
X88440000Y-51170000D02*
X88440000Y-51470000D01*
X88440000Y-53570000D02*
X88440000Y-53970000D01*
X88440000Y-56170000D02*
X88440000Y-56570000D01*
X88440000Y-58670000D02*
X88440000Y-59070000D01*
X88440000Y-61270000D02*
X88440000Y-61670000D01*
X88440000Y-63770000D02*
X88440000Y-64170000D01*
X88440000Y-66270000D02*
X88440000Y-66670000D01*
X88440000Y-68870000D02*
X88440000Y-69270000D01*
X88440000Y-71370000D02*
X88440000Y-71770000D01*
X88440000Y-73970000D02*
X88440000Y-74370000D01*
X88440000Y-76470000D02*
X88440000Y-76870000D01*
X88440000Y-78970000D02*
X88440000Y-79370000D01*
X88440000Y-81570000D02*
X88440000Y-81970000D01*
X88440000Y-84070000D02*
X88440000Y-84470000D01*
X88440000Y-86670000D02*
X88440000Y-87070000D01*
X88440000Y-89170000D02*
X88440000Y-89570000D01*
X88440000Y-91770000D02*
X88440000Y-92170000D01*
X88440000Y-94270000D02*
X88440000Y-94670000D01*
X88440000Y-96770000D02*
X88440000Y-97170000D01*
X88440000Y-99370000D02*
X88440000Y-99770000D01*
X88440000Y-102170000D02*
X81640000Y-102170000D01*
%TO.C,Q1*%
X93870000Y-55820000D02*
X93870000Y-59420000D01*
X98319999Y-57620000D02*
G75*
G03*
X96818807Y-55263601I-2599999J0D01*
G01*
X94597205Y-55295817D02*
G75*
G03*
X93870001Y-55820001I1122795J-2324183D01*
G01*
X96818807Y-59976400D02*
G75*
G03*
X98320000Y-57620000I-1098807J2356400D01*
G01*
X93870001Y-59419999D02*
G75*
G03*
X94597205Y-59944183I1849999J1799999D01*
G01*
%TO.C,TP1*%
X86760000Y-113500000D02*
G75*
G03*
X84360000Y-113500000I-1200000J0D01*
G01*
X84360000Y-113500000D02*
G75*
G03*
X86760000Y-113500000I1200000J0D01*
G01*
%TD*%
%LPC*%
D13*
%TO.C,H1*%
X106000000Y-116000000D03*
%TD*%
D14*
%TO.C,C1*%
X94490000Y-72860000D03*
D15*
X96990000Y-72860000D03*
%TD*%
D16*
%TO.C,SW3*%
X54750000Y-94750000D03*
X61250000Y-94750000D03*
X54750000Y-99250000D03*
X61250000Y-99250000D03*
%TD*%
%TO.C,SW2*%
X54750000Y-76750000D03*
X61250000Y-76750000D03*
X54750000Y-81250000D03*
X61250000Y-81250000D03*
%TD*%
D13*
%TO.C,H4*%
X106000000Y-53810000D03*
%TD*%
D16*
%TO.C,SW1*%
X54750000Y-60750000D03*
X61250000Y-60750000D03*
X54750000Y-65250000D03*
X61250000Y-65250000D03*
%TD*%
D15*
%TO.C,C2*%
X94490000Y-65240000D03*
X96990000Y-65240000D03*
%TD*%
D17*
%TO.C,J1*%
X96990000Y-83020000D03*
D18*
X96990000Y-85560000D03*
X96990000Y-88100000D03*
%TD*%
D17*
%TO.C,J4*%
X102070000Y-62700000D03*
D18*
X102070000Y-65240000D03*
%TD*%
D17*
%TO.C,J2*%
X93205000Y-108435000D03*
D18*
X93205000Y-110975000D03*
X93205000Y-113515000D03*
%TD*%
D17*
%TO.C,J5*%
X102070000Y-71590000D03*
D18*
X102070000Y-74130000D03*
%TD*%
D17*
%TO.C,J3*%
X63995000Y-108435000D03*
D18*
X63995000Y-110975000D03*
X63995000Y-113515000D03*
%TD*%
D19*
%TO.C,U1*%
X75215000Y-52670000D03*
D20*
X75515000Y-55700000D03*
X80365000Y-55700000D03*
D19*
X80665000Y-52670000D03*
D18*
X69050000Y-52540000D03*
D21*
X68150000Y-52540000D03*
D18*
X69050000Y-55080000D03*
D21*
X68150000Y-55080000D03*
D17*
X69050000Y-57620000D03*
D21*
X68150000Y-57620000D03*
D18*
X69050000Y-60160000D03*
D21*
X68150000Y-60160000D03*
D18*
X69050000Y-62700000D03*
D21*
X68150000Y-62700000D03*
D18*
X69050000Y-65240000D03*
D21*
X68150000Y-65240000D03*
D18*
X69050000Y-67780000D03*
D21*
X68150000Y-67780000D03*
D17*
X69050000Y-70320000D03*
D21*
X68150000Y-70320000D03*
D18*
X69050000Y-72860000D03*
D21*
X68150000Y-72860000D03*
D18*
X69050000Y-75400000D03*
D21*
X68150000Y-75400000D03*
D18*
X69050000Y-77940000D03*
D21*
X68150000Y-77940000D03*
D18*
X69050000Y-80480000D03*
D21*
X68150000Y-80480000D03*
D17*
X69050000Y-83020000D03*
D21*
X68150000Y-83020000D03*
D18*
X69050000Y-85560000D03*
D21*
X68150000Y-85560000D03*
D18*
X69050000Y-88100000D03*
D21*
X68150000Y-88100000D03*
D18*
X69050000Y-90640000D03*
D21*
X68150000Y-90640000D03*
D18*
X69050000Y-93180000D03*
D21*
X68150000Y-93180000D03*
D17*
X69050000Y-95720000D03*
D21*
X68150000Y-95720000D03*
D18*
X69050000Y-98260000D03*
D21*
X68150000Y-98260000D03*
D18*
X69050000Y-100800000D03*
D21*
X68150000Y-100800000D03*
D18*
X86830000Y-100800000D03*
D21*
X87730000Y-100800000D03*
D18*
X86830000Y-98260000D03*
D21*
X87730000Y-98260000D03*
D17*
X86830000Y-95720000D03*
D21*
X87730000Y-95720000D03*
D18*
X86830000Y-93180000D03*
D21*
X87730000Y-93180000D03*
D18*
X86830000Y-90640000D03*
D21*
X87730000Y-90640000D03*
D18*
X86830000Y-88100000D03*
D21*
X87730000Y-88100000D03*
D18*
X86830000Y-85560000D03*
D21*
X87730000Y-85560000D03*
D17*
X86830000Y-83020000D03*
D21*
X87730000Y-83020000D03*
D18*
X86830000Y-80480000D03*
D21*
X87730000Y-80480000D03*
D18*
X86830000Y-77940000D03*
D21*
X87730000Y-77940000D03*
D18*
X86830000Y-75400000D03*
D21*
X87730000Y-75400000D03*
D18*
X86830000Y-72860000D03*
D21*
X87730000Y-72860000D03*
D17*
X86830000Y-70320000D03*
D21*
X87730000Y-70320000D03*
D18*
X86830000Y-67780000D03*
D21*
X87730000Y-67780000D03*
D18*
X86830000Y-65240000D03*
D21*
X87730000Y-65240000D03*
D18*
X86830000Y-62700000D03*
D21*
X87730000Y-62700000D03*
D18*
X86830000Y-60160000D03*
D21*
X87730000Y-60160000D03*
D17*
X86830000Y-57620000D03*
D21*
X87730000Y-57620000D03*
D18*
X86830000Y-55080000D03*
D21*
X87730000Y-55080000D03*
D18*
X86830000Y-52540000D03*
D21*
X87730000Y-52540000D03*
D18*
X75400000Y-100570000D03*
D22*
X75400000Y-101470000D03*
D17*
X77940000Y-100570000D03*
D22*
X77940000Y-101470000D03*
D18*
X80480000Y-100570000D03*
D22*
X80480000Y-101470000D03*
%TD*%
D13*
%TO.C,H3*%
X53810000Y-53810000D03*
%TD*%
D23*
%TO.C,Q1*%
X95720000Y-55080000D03*
D24*
X95720000Y-57620000D03*
X95720000Y-60160000D03*
%TD*%
D13*
%TO.C,H2*%
X54000000Y-116000000D03*
%TD*%
D16*
%TO.C,TP1*%
X85560000Y-113500000D03*
%TD*%
%LPD*%
M02*
