M48
; DRILL file {KiCad 7.0.10} date Sun Jan  7 12:32:22 2024
; FORMAT={-:-/ absolute / inch / decimal}
; #@! TF.CreationDate,2024-01-07T12:32:22+09:00
; #@! TF.GenerationSoftware,Kicad,Pcbnew,7.0.10
; #@! TF.FileFunction,Plated,1,2,PTH
FMAT,2
INCH
; #@! TA.AperFunction,Plated,PTH,ComponentDrill
T1C0.0315
; #@! TA.AperFunction,Plated,PTH,ComponentDrill
T2C0.0394
; #@! TA.AperFunction,Plated,PTH,ComponentDrill
T3C0.0402
; #@! TA.AperFunction,Plated,PTH,ComponentDrill
T4C0.0433
%
G90
G05
T1
X3.7201Y-2.5685
X3.7201Y-2.8685
X3.7685Y-2.1685
X3.7685Y-2.2685
X3.7685Y-2.3685
X3.8185Y-2.5685
X3.8185Y-2.8685
T2
X2.5195Y-4.2691
X2.5195Y-4.3691
X2.5195Y-4.4691
X3.3685Y-4.4685
X3.6695Y-4.2691
X3.6695Y-4.3691
X3.6695Y-4.4691
X3.8185Y-3.2685
X3.8185Y-3.3685
X3.8185Y-3.4685
X4.0185Y-2.4685
X4.0185Y-2.5685
X4.0185Y-2.8185
X4.0185Y-2.9185
T3
X2.7185Y-2.0685
X2.7185Y-2.1685
X2.7185Y-2.2685
X2.7185Y-2.3685
X2.7185Y-2.4685
X2.7185Y-2.5685
X2.7185Y-2.6685
X2.7185Y-2.7685
X2.7185Y-2.8685
X2.7185Y-2.9685
X2.7185Y-3.0685
X2.7185Y-3.1685
X2.7185Y-3.2685
X2.7185Y-3.3685
X2.7185Y-3.4685
X2.7185Y-3.5685
X2.7185Y-3.6685
X2.7185Y-3.7685
X2.7185Y-3.8685
X2.7185Y-3.9685
X2.9685Y-3.9594
X3.0685Y-3.9594
X3.1685Y-3.9594
X3.4185Y-2.0685
X3.4185Y-2.1685
X3.4185Y-2.2685
X3.4185Y-2.3685
X3.4185Y-2.4685
X3.4185Y-2.5685
X3.4185Y-2.6685
X3.4185Y-2.7685
X3.4185Y-2.8685
X3.4185Y-2.9685
X3.4185Y-3.0685
X3.4185Y-3.1685
X3.4185Y-3.2685
X3.4185Y-3.3685
X3.4185Y-3.4685
X3.4185Y-3.5685
X3.4185Y-3.6685
X3.4185Y-3.7685
X3.4185Y-3.8685
X3.4185Y-3.9685
T4
X2.1555Y-2.3917
X2.1555Y-2.5689
X2.1555Y-3.0217
X2.1555Y-3.1988
X2.1555Y-3.7303
X2.1555Y-3.9075
X2.4114Y-2.3917
X2.4114Y-2.5689
X2.4114Y-3.0217
X2.4114Y-3.1988
X2.4114Y-3.7303
X2.4114Y-3.9075
M30
